%TF.GenerationSoftware,KiCad,Pcbnew,(6.0.1)*%
%TF.CreationDate,2022-02-07T23:01:22+01:00*%
%TF.ProjectId,pluto,706c7574-6f2e-46b6-9963-61645f706362,1.0*%
%TF.SameCoordinates,Original*%
%TF.FileFunction,Copper,L1,Top*%
%TF.FilePolarity,Positive*%
%FSLAX46Y46*%
G04 Gerber Fmt 4.6, Leading zero omitted, Abs format (unit mm)*
G04 Created by KiCad (PCBNEW (6.0.1)) date 2022-02-07 23:01:22*
%MOMM*%
%LPD*%
G01*
G04 APERTURE LIST*
%TA.AperFunction,ComponentPad*%
%ADD10C,1.752600*%
%TD*%
%TA.AperFunction,ComponentPad*%
%ADD11R,1.700000X1.700000*%
%TD*%
%TA.AperFunction,ComponentPad*%
%ADD12O,1.700000X1.700000*%
%TD*%
%TA.AperFunction,ViaPad*%
%ADD13C,0.800000*%
%TD*%
%TA.AperFunction,Conductor*%
%ADD14C,0.250000*%
%TD*%
G04 APERTURE END LIST*
D10*
%TO.P,J1,1,D6*%
%TO.N,unconnected-(J1-Pad1)*%
X139280000Y-100250000D03*
%TO.P,J1,2,D3*%
%TO.N,unconnected-(J1-Pad2)*%
X139280000Y-102790000D03*
%TO.P,J1,3,D2*%
%TO.N,unconnected-(J1-Pad3)*%
X139280000Y-105330000D03*
%TO.P,J1,4,GND*%
%TO.N,unconnected-(J1-Pad4)*%
X139280000Y-107870000D03*
%TO.P,J1,5,GND*%
%TO.N,unconnected-(J1-Pad5)*%
X139280000Y-110410000D03*
%TO.P,J1,6,D1*%
%TO.N,unconnected-(J1-Pad6)*%
X139280000Y-112950000D03*
%TO.P,J1,7,D0*%
%TO.N,unconnected-(J1-Pad7)*%
X139280000Y-115490000D03*
%TO.P,J1,8,D4*%
%TO.N,unconnected-(J1-Pad8)*%
X139280000Y-118030000D03*
%TO.P,J1,9,C6*%
%TO.N,unconnected-(J1-Pad9)*%
X139280000Y-120570000D03*
%TO.P,J1,10,D7*%
%TO.N,unconnected-(J1-Pad10)*%
X139280000Y-123110000D03*
%TO.P,J1,11,E6*%
%TO.N,unconnected-(J1-Pad11)*%
X139280000Y-125650000D03*
%TO.P,J1,12,B4*%
%TO.N,unconnected-(J1-Pad12)*%
X139280000Y-128190000D03*
%TO.P,J1,13,B5*%
%TO.N,unconnected-(J1-Pad13)*%
X139280000Y-130730000D03*
%TO.P,J1,14,B7*%
%TO.N,unconnected-(J1-Pad14)*%
X141820000Y-130730000D03*
%TO.P,J1,15,D5*%
%TO.N,unconnected-(J1-Pad15)*%
X144360000Y-130730000D03*
%TO.P,J1,16,C7*%
%TO.N,unconnected-(J1-Pad16)*%
X146900000Y-130730000D03*
%TO.P,J1,17,F1*%
%TO.N,unconnected-(J1-Pad17)*%
X149440000Y-130730000D03*
%TO.P,J1,18,F0*%
%TO.N,unconnected-(J1-Pad18)*%
X151980000Y-130730000D03*
%TO.P,J1,19,B6*%
%TO.N,unconnected-(J1-Pad19)*%
X154520000Y-130730000D03*
%TO.P,J1,20,B2*%
%TO.N,MOSI*%
X154520000Y-128190000D03*
%TO.P,J1,21,B3*%
%TO.N,MISO*%
X154520000Y-125650000D03*
%TO.P,J1,22,B1*%
%TO.N,SCK*%
X154520000Y-123110000D03*
%TO.P,J1,23,F7*%
%TO.N,unconnected-(J1-Pad23)*%
X154520000Y-120570000D03*
%TO.P,J1,24,F6*%
%TO.N,unconnected-(J1-Pad24)*%
X154520000Y-118030000D03*
%TO.P,J1,25,F5*%
%TO.N,unconnected-(J1-Pad25)*%
X154520000Y-115490000D03*
%TO.P,J1,26,F4*%
%TO.N,unconnected-(J1-Pad26)*%
X154520000Y-112950000D03*
%TO.P,J1,27,VCC*%
%TO.N,unconnected-(J1-Pad27)*%
X154520000Y-110410000D03*
%TO.P,J1,28,RST*%
%TO.N,RST*%
X154520000Y-107870000D03*
%TO.P,J1,29,GND*%
%TO.N,GND*%
X154520000Y-105330000D03*
%TO.P,J1,30,B0*%
%TO.N,unconnected-(J1-Pad30)*%
X154520000Y-102790000D03*
%TO.P,J1,31,VBUS*%
%TO.N,+5V*%
X154520000Y-100250000D03*
%TO.P,J1,32,D-*%
%TO.N,unconnected-(J1-Pad32)*%
X148170000Y-107870000D03*
%TO.P,J1,33,D+*%
%TO.N,unconnected-(J1-Pad33)*%
X145630000Y-107870000D03*
%TD*%
D11*
%TO.P,J2,1,Pin_1*%
%TO.N,MOSI*%
X140850000Y-97885000D03*
D12*
%TO.P,J2,2,Pin_2*%
%TO.N,MISO*%
X143390000Y-97885000D03*
%TO.P,J2,3,Pin_3*%
%TO.N,SCK*%
X145930000Y-97885000D03*
%TO.P,J2,4,Pin_4*%
%TO.N,RST*%
X148470000Y-97885000D03*
%TO.P,J2,5,Pin_5*%
%TO.N,GND*%
X151010000Y-97885000D03*
%TO.P,J2,6,Pin_6*%
%TO.N,+5V*%
X153550000Y-97885000D03*
%TD*%
D13*
%TO.N,GND*%
X140970000Y-129120000D03*
%TD*%
D14*
%TO.N,+5V*%
X153550000Y-97885000D02*
X153550000Y-99072893D01*
X153696447Y-99426447D02*
X154520000Y-100250000D01*
X153550000Y-99072893D02*
G75*
G03*
X153696447Y-99426447I499997J-1D01*
G01*
%TO.N,RST*%
X148470000Y-97885000D02*
X148470000Y-99748932D01*
X149934466Y-103284466D02*
X154520000Y-107870000D01*
X148470000Y-99748932D02*
G75*
G03*
X149934466Y-103284466I4999998J-1D01*
G01*
%TD*%
%TA.AperFunction,Conductor*%
%TO.N,+5V*%
G36*
X153560401Y-97493029D02*
G01*
X153561143Y-97494821D01*
X153926496Y-98636505D01*
X153925754Y-98645428D01*
X153921056Y-98650286D01*
X153914855Y-98653748D01*
X153903643Y-98660007D01*
X153873488Y-98680256D01*
X153873303Y-98680403D01*
X153873294Y-98680410D01*
X153856149Y-98694072D01*
X153840620Y-98706447D01*
X153806711Y-98738660D01*
X153773431Y-98776976D01*
X153742454Y-98821474D01*
X153715450Y-98872234D01*
X153694092Y-98929337D01*
X153680051Y-98992864D01*
X153680021Y-98993286D01*
X153675783Y-99052035D01*
X153671770Y-99060040D01*
X153664113Y-99062893D01*
X153435887Y-99062893D01*
X153427614Y-99059466D01*
X153424217Y-99052035D01*
X153419978Y-98993286D01*
X153419948Y-98992864D01*
X153405907Y-98929337D01*
X153384549Y-98872234D01*
X153357545Y-98821474D01*
X153326568Y-98776976D01*
X153293288Y-98738660D01*
X153259379Y-98706447D01*
X153243850Y-98694072D01*
X153226705Y-98680410D01*
X153226696Y-98680403D01*
X153226511Y-98680256D01*
X153196356Y-98660007D01*
X153178943Y-98650286D01*
X153173391Y-98643262D01*
X153173504Y-98636505D01*
X153173505Y-98636504D01*
X153538857Y-97494821D01*
X153544642Y-97487986D01*
X153553566Y-97487244D01*
X153560401Y-97493029D01*
G37*
%TD.AperFunction*%
%TD*%
%TA.AperFunction,Conductor*%
%TO.N,GND*%
G36*
X153500126Y-87921123D02*
G01*
X153519999Y-87924627D01*
X153526839Y-87923421D01*
X153546941Y-87922653D01*
X153565791Y-87924510D01*
X153649309Y-87932736D01*
X153663536Y-87935566D01*
X153780904Y-87971169D01*
X153794306Y-87976721D01*
X153902470Y-88034536D01*
X153914532Y-88042595D01*
X154009340Y-88120401D01*
X154019598Y-88130659D01*
X154097404Y-88225467D01*
X154105463Y-88237529D01*
X154163278Y-88345693D01*
X154168830Y-88359095D01*
X154204433Y-88476463D01*
X154207263Y-88490690D01*
X154217346Y-88593057D01*
X154216578Y-88613160D01*
X154215372Y-88620000D01*
X154216496Y-88626374D01*
X154218876Y-88639872D01*
X154220000Y-88652722D01*
X154220000Y-96813085D01*
X154202687Y-96860651D01*
X154158850Y-96885961D01*
X154106513Y-96875669D01*
X154077421Y-96857313D01*
X154077413Y-96857309D01*
X154074554Y-96855505D01*
X154071412Y-96854251D01*
X154071409Y-96854250D01*
X153881314Y-96778410D01*
X153881311Y-96778409D01*
X153878160Y-96777152D01*
X153690734Y-96739871D01*
X153674099Y-96736562D01*
X153674097Y-96736562D01*
X153670775Y-96735901D01*
X153577571Y-96734681D01*
X153462739Y-96733177D01*
X153462734Y-96733177D01*
X153459346Y-96733133D01*
X153456000Y-96733708D01*
X153455999Y-96733708D01*
X153398864Y-96743526D01*
X153250953Y-96768941D01*
X153052575Y-96842127D01*
X152870856Y-96950238D01*
X152868312Y-96952469D01*
X152868308Y-96952472D01*
X152781282Y-97028792D01*
X152711881Y-97089655D01*
X152709784Y-97092314D01*
X152709783Y-97092316D01*
X152692226Y-97114588D01*
X152580976Y-97255708D01*
X152482523Y-97442836D01*
X152481517Y-97446075D01*
X152481516Y-97446078D01*
X152465117Y-97498891D01*
X152419820Y-97644773D01*
X152394967Y-97854754D01*
X152408796Y-98065749D01*
X152409632Y-98069040D01*
X152409632Y-98069041D01*
X152419194Y-98106689D01*
X152460845Y-98270690D01*
X152462261Y-98273762D01*
X152462263Y-98273767D01*
X152544292Y-98451702D01*
X152549369Y-98462714D01*
X152551327Y-98465484D01*
X152669446Y-98632620D01*
X152669450Y-98632624D01*
X152671405Y-98635391D01*
X152673830Y-98637753D01*
X152673834Y-98637758D01*
X152737110Y-98699398D01*
X152822865Y-98782937D01*
X152825683Y-98784820D01*
X152825688Y-98784824D01*
X152981880Y-98889188D01*
X152998677Y-98900411D01*
X153001791Y-98901749D01*
X153001795Y-98901751D01*
X153016697Y-98908153D01*
X153038852Y-98917671D01*
X153055768Y-98927797D01*
X153056893Y-98928694D01*
X153056900Y-98928698D01*
X153059688Y-98930920D01*
X153064535Y-98935139D01*
X153073658Y-98943806D01*
X153078558Y-98948930D01*
X153086933Y-98958572D01*
X153091798Y-98964819D01*
X153098582Y-98974564D01*
X153103179Y-98982088D01*
X153108172Y-98991473D01*
X153112152Y-99000305D01*
X153115708Y-99009813D01*
X153118652Y-99019758D01*
X153120844Y-99029673D01*
X153121678Y-99057221D01*
X153119196Y-99072892D01*
X153120107Y-99078644D01*
X153123595Y-99100667D01*
X153124278Y-99106437D01*
X153131407Y-99197013D01*
X153133068Y-99218121D01*
X153133746Y-99220945D01*
X153156251Y-99314685D01*
X153167075Y-99359773D01*
X153168186Y-99362456D01*
X153168188Y-99362461D01*
X153190101Y-99415362D01*
X153222824Y-99494362D01*
X153298940Y-99618572D01*
X153313422Y-99635528D01*
X153371691Y-99703752D01*
X153375287Y-99708314D01*
X153388400Y-99726362D01*
X153388404Y-99726366D01*
X153391824Y-99731073D01*
X153396533Y-99734494D01*
X153400652Y-99738613D01*
X153399389Y-99739876D01*
X153423321Y-99775355D01*
X153424568Y-99781428D01*
X153424740Y-99782490D01*
X153422364Y-99816265D01*
X153419197Y-99826466D01*
X153363984Y-100004281D01*
X153359993Y-100038003D01*
X153346639Y-100150833D01*
X153338563Y-100219063D01*
X153352708Y-100434881D01*
X153405947Y-100644507D01*
X153407363Y-100647579D01*
X153407365Y-100647584D01*
X153447044Y-100733654D01*
X153496495Y-100840921D01*
X153621320Y-101017545D01*
X153776243Y-101168464D01*
X153779062Y-101170348D01*
X153779065Y-101170350D01*
X153953252Y-101286738D01*
X153953257Y-101286741D01*
X153956074Y-101288623D01*
X153959194Y-101289963D01*
X153959195Y-101289964D01*
X154151671Y-101372659D01*
X154151675Y-101372660D01*
X154154791Y-101373999D01*
X154261295Y-101398098D01*
X154362423Y-101420981D01*
X154362426Y-101420981D01*
X154365739Y-101421731D01*
X154473796Y-101425976D01*
X154578458Y-101430089D01*
X154578462Y-101430089D01*
X154581853Y-101430222D01*
X154724340Y-101409563D01*
X154792538Y-101399675D01*
X154792539Y-101399675D01*
X154795896Y-101399188D01*
X155000698Y-101329666D01*
X155003650Y-101328013D01*
X155003654Y-101328011D01*
X155186443Y-101225645D01*
X155186446Y-101225643D01*
X155189403Y-101223987D01*
X155192008Y-101221820D01*
X155192013Y-101221817D01*
X155353080Y-101087857D01*
X155355688Y-101085688D01*
X155359104Y-101081581D01*
X155359709Y-101081228D01*
X155360256Y-101080681D01*
X155360400Y-101080825D01*
X155402830Y-101056078D01*
X155452718Y-101064649D01*
X155485425Y-101103282D01*
X155490000Y-101128897D01*
X155490000Y-101914800D01*
X155472687Y-101962366D01*
X155428850Y-101987676D01*
X155379000Y-101978886D01*
X155365769Y-101969140D01*
X155241952Y-101854685D01*
X155241948Y-101854682D01*
X155239460Y-101852382D01*
X155056545Y-101736971D01*
X155053407Y-101735719D01*
X155053401Y-101735716D01*
X154858815Y-101658085D01*
X154858812Y-101658084D01*
X154855661Y-101656827D01*
X154852334Y-101656165D01*
X154852330Y-101656164D01*
X154646860Y-101615293D01*
X154646858Y-101615293D01*
X154643536Y-101614632D01*
X154548358Y-101613386D01*
X154430667Y-101611845D01*
X154430662Y-101611845D01*
X154427274Y-101611801D01*
X154423928Y-101612376D01*
X154423927Y-101612376D01*
X154364049Y-101622665D01*
X154214117Y-101648428D01*
X154011204Y-101723287D01*
X153825331Y-101833870D01*
X153822787Y-101836101D01*
X153822783Y-101836104D01*
X153733048Y-101914800D01*
X153662722Y-101976474D01*
X153528824Y-102146323D01*
X153428120Y-102337729D01*
X153427114Y-102340968D01*
X153427113Y-102340971D01*
X153382215Y-102485566D01*
X153363984Y-102544281D01*
X153338563Y-102759063D01*
X153352708Y-102974881D01*
X153405947Y-103184507D01*
X153407363Y-103187579D01*
X153407365Y-103187584D01*
X153447044Y-103273654D01*
X153496495Y-103380921D01*
X153621320Y-103557545D01*
X153776243Y-103708464D01*
X153779062Y-103710348D01*
X153779065Y-103710350D01*
X153953252Y-103826738D01*
X153953257Y-103826741D01*
X153956074Y-103828623D01*
X153959194Y-103829963D01*
X153959195Y-103829964D01*
X154151671Y-103912659D01*
X154151675Y-103912660D01*
X154154791Y-103913999D01*
X154261295Y-103938098D01*
X154362423Y-103960981D01*
X154362426Y-103960981D01*
X154365739Y-103961731D01*
X154473796Y-103965976D01*
X154578458Y-103970089D01*
X154578462Y-103970089D01*
X154581853Y-103970222D01*
X154724340Y-103949563D01*
X154792538Y-103939675D01*
X154792539Y-103939675D01*
X154795896Y-103939188D01*
X155000698Y-103869666D01*
X155003650Y-103868013D01*
X155003654Y-103868011D01*
X155186443Y-103765645D01*
X155186446Y-103765643D01*
X155189403Y-103763987D01*
X155192008Y-103761820D01*
X155192013Y-103761817D01*
X155353080Y-103627857D01*
X155355688Y-103625688D01*
X155359104Y-103621581D01*
X155359709Y-103621228D01*
X155360256Y-103620681D01*
X155360400Y-103620825D01*
X155402830Y-103596078D01*
X155452718Y-103604649D01*
X155485425Y-103643282D01*
X155490000Y-103668897D01*
X155490000Y-104687635D01*
X155472687Y-104735201D01*
X155428850Y-104760511D01*
X155379000Y-104751721D01*
X155358655Y-104734406D01*
X155353007Y-104727481D01*
X155343872Y-104722036D01*
X155339366Y-104722766D01*
X154741358Y-105320774D01*
X154736863Y-105330413D01*
X154738444Y-105336312D01*
X155336740Y-105934608D01*
X155346379Y-105939103D01*
X155351155Y-105937823D01*
X155359984Y-105927595D01*
X155404171Y-105902902D01*
X155453893Y-105912388D01*
X155485884Y-105951616D01*
X155490000Y-105975950D01*
X155490000Y-106994800D01*
X155472687Y-107042366D01*
X155428850Y-107067676D01*
X155379000Y-107058886D01*
X155365769Y-107049140D01*
X155241952Y-106934685D01*
X155241948Y-106934682D01*
X155239460Y-106932382D01*
X155056545Y-106816971D01*
X155053407Y-106815719D01*
X155053401Y-106815716D01*
X154858815Y-106738085D01*
X154858812Y-106738084D01*
X154855661Y-106736827D01*
X154819350Y-106729604D01*
X154787309Y-106723230D01*
X154780854Y-106721641D01*
X154713716Y-106701881D01*
X154713682Y-106701872D01*
X154713317Y-106701764D01*
X154699934Y-106698159D01*
X154698884Y-106697902D01*
X154698491Y-106697815D01*
X154698468Y-106697810D01*
X154685766Y-106695010D01*
X154685762Y-106695009D01*
X154685353Y-106694919D01*
X154632744Y-106684591D01*
X154632486Y-106684540D01*
X154568739Y-106672027D01*
X154525049Y-106663451D01*
X154520287Y-106662603D01*
X154515065Y-106661672D01*
X154515032Y-106661666D01*
X154514704Y-106661608D01*
X154513911Y-106661481D01*
X154513626Y-106661441D01*
X154513609Y-106661438D01*
X154503526Y-106660008D01*
X154503524Y-106660008D01*
X154503258Y-106659970D01*
X154503032Y-106659942D01*
X154502994Y-106659937D01*
X154393293Y-106646383D01*
X154357043Y-106641904D01*
X154352187Y-106641344D01*
X154351853Y-106641308D01*
X154351735Y-106641296D01*
X154350090Y-106641134D01*
X154346844Y-106640814D01*
X154346615Y-106640793D01*
X154346601Y-106640792D01*
X154214295Y-106628849D01*
X154212924Y-106628713D01*
X154100973Y-106616502D01*
X154095425Y-106615683D01*
X154005806Y-106598963D01*
X153996839Y-106596702D01*
X153918531Y-106571661D01*
X153908195Y-106567474D01*
X153825995Y-106526713D01*
X153816592Y-106521150D01*
X153717658Y-106452280D01*
X153710390Y-106446512D01*
X153588797Y-106336909D01*
X153586017Y-106334269D01*
X153407773Y-106156025D01*
X153911251Y-106156025D01*
X153912506Y-106160706D01*
X153928685Y-106174476D01*
X153934605Y-106178590D01*
X154103975Y-106273249D01*
X154110576Y-106276132D01*
X154295105Y-106336089D01*
X154302150Y-106337638D01*
X154494803Y-106360611D01*
X154502015Y-106360762D01*
X154695466Y-106345877D01*
X154702565Y-106344625D01*
X154889450Y-106292446D01*
X154896158Y-106289844D01*
X155069346Y-106202361D01*
X155075434Y-106198497D01*
X155121813Y-106162262D01*
X155127450Y-106153240D01*
X155126852Y-106148984D01*
X154529226Y-105551358D01*
X154519587Y-105546863D01*
X154513688Y-105548444D01*
X153915746Y-106146386D01*
X153911251Y-106156025D01*
X153407773Y-106156025D01*
X151551335Y-104299587D01*
X151831349Y-104299587D01*
X153237331Y-105705569D01*
X153318973Y-105583383D01*
X153315347Y-105570739D01*
X153314437Y-105567247D01*
X153313321Y-105562491D01*
X153312580Y-105558944D01*
X153309973Y-105544739D01*
X153309407Y-105541167D01*
X153308761Y-105536325D01*
X153308371Y-105532731D01*
X153291530Y-105332169D01*
X153291315Y-105328553D01*
X153291145Y-105323673D01*
X153291107Y-105320067D01*
X153291119Y-105319212D01*
X153489138Y-105319212D01*
X153505373Y-105512556D01*
X153506674Y-105519643D01*
X153560156Y-105706155D01*
X153562806Y-105712850D01*
X153651499Y-105885428D01*
X153655399Y-105891480D01*
X153687524Y-105932013D01*
X153696584Y-105937587D01*
X153700922Y-105936946D01*
X154298642Y-105339226D01*
X154303137Y-105329587D01*
X154301556Y-105323688D01*
X153703933Y-104726065D01*
X153694294Y-104721570D01*
X153689705Y-104722800D01*
X153671413Y-104744599D01*
X153667347Y-104750537D01*
X153573869Y-104920573D01*
X153571033Y-104927190D01*
X153512363Y-105112141D01*
X153510867Y-105119180D01*
X153489239Y-105312003D01*
X153489138Y-105319212D01*
X153291119Y-105319212D01*
X153291308Y-105305626D01*
X153291447Y-105302007D01*
X153291754Y-105297130D01*
X153292069Y-105293530D01*
X153314504Y-105093517D01*
X153314994Y-105089939D01*
X153315775Y-105085115D01*
X153316442Y-105081554D01*
X153319445Y-105067428D01*
X153320281Y-105063918D01*
X153321528Y-105059197D01*
X153322538Y-105055720D01*
X153383395Y-104863873D01*
X153384571Y-104860456D01*
X153386273Y-104855879D01*
X153387616Y-104852522D01*
X153393305Y-104839247D01*
X153394814Y-104835952D01*
X153396957Y-104831559D01*
X153398619Y-104828353D01*
X153431817Y-104767967D01*
X153422454Y-104720894D01*
X153279116Y-104506374D01*
X153912243Y-104506374D01*
X153912928Y-104510796D01*
X154510774Y-105108642D01*
X154520413Y-105113137D01*
X154526312Y-105111556D01*
X155123652Y-104514216D01*
X155128147Y-104504577D01*
X155126941Y-104500079D01*
X155099472Y-104477354D01*
X155093487Y-104473317D01*
X154922817Y-104381036D01*
X154916176Y-104378244D01*
X154730820Y-104320867D01*
X154723767Y-104319419D01*
X154530795Y-104299137D01*
X154523596Y-104299087D01*
X154330365Y-104316673D01*
X154323288Y-104318023D01*
X154137152Y-104372805D01*
X154130476Y-104375503D01*
X153958524Y-104465396D01*
X153952498Y-104469340D01*
X153917753Y-104497276D01*
X153912243Y-104506374D01*
X153279116Y-104506374D01*
X153217908Y-104414770D01*
X153122148Y-104319010D01*
X152816024Y-104114464D01*
X152462214Y-104044087D01*
X152108404Y-104114464D01*
X151831349Y-104299587D01*
X151551335Y-104299587D01*
X150263133Y-103011385D01*
X150255592Y-103002555D01*
X150242511Y-102984551D01*
X150239090Y-102979842D01*
X150234383Y-102976422D01*
X150234381Y-102976420D01*
X150223618Y-102968600D01*
X150212557Y-102958728D01*
X150012487Y-102740390D01*
X150281045Y-102740390D01*
X150350107Y-102815759D01*
X150355476Y-102819660D01*
X150360039Y-102823258D01*
X150366005Y-102828354D01*
X150370270Y-102832297D01*
X150386640Y-102848668D01*
X150390581Y-102852931D01*
X150395676Y-102858896D01*
X150399275Y-102863461D01*
X150410040Y-102878278D01*
X151681696Y-104149934D01*
X151866819Y-103872879D01*
X151937196Y-103519069D01*
X151866819Y-103165259D01*
X151662273Y-102859135D01*
X151566513Y-102763375D01*
X151260389Y-102558829D01*
X150906579Y-102488452D01*
X150552769Y-102558829D01*
X150281045Y-102740390D01*
X150012487Y-102740390D01*
X149967906Y-102691738D01*
X149963757Y-102686792D01*
X149724758Y-102375323D01*
X149721055Y-102370035D01*
X149510103Y-102038907D01*
X149506875Y-102033316D01*
X149470497Y-101963434D01*
X151431598Y-101963434D01*
X151501975Y-102317244D01*
X151706521Y-102623369D01*
X151802279Y-102719127D01*
X152108404Y-102923673D01*
X152462214Y-102994050D01*
X152816024Y-102923673D01*
X153122149Y-102719127D01*
X153146829Y-102694447D01*
X153167357Y-102521008D01*
X153167832Y-102517656D01*
X153168578Y-102513136D01*
X153169208Y-102509798D01*
X153172024Y-102496552D01*
X153172804Y-102493256D01*
X153173960Y-102488826D01*
X153174891Y-102485566D01*
X153239027Y-102279014D01*
X153240104Y-102275804D01*
X153241660Y-102271499D01*
X153242886Y-102268337D01*
X153248068Y-102255825D01*
X153249439Y-102252718D01*
X153251385Y-102248569D01*
X153252893Y-102245536D01*
X153353597Y-102054130D01*
X153355244Y-102051166D01*
X153357561Y-102047213D01*
X153359343Y-102044327D01*
X153366719Y-102032970D01*
X153368625Y-102030177D01*
X153371291Y-102026456D01*
X153373332Y-102023742D01*
X153478333Y-101890549D01*
X153422454Y-101609624D01*
X153217908Y-101303500D01*
X153122148Y-101207740D01*
X152816024Y-101003194D01*
X152462214Y-100932818D01*
X152108404Y-101003194D01*
X151802280Y-101207740D01*
X151706521Y-101303499D01*
X151501975Y-101609624D01*
X151431598Y-101963434D01*
X149470497Y-101963434D01*
X149325587Y-101685065D01*
X149322859Y-101679215D01*
X149172612Y-101316486D01*
X149170404Y-101310419D01*
X149052344Y-100935982D01*
X149050673Y-100929747D01*
X148987437Y-100644507D01*
X148965693Y-100546427D01*
X148964575Y-100540084D01*
X148962708Y-100525896D01*
X148947160Y-100407799D01*
X149875963Y-100407799D01*
X149946340Y-100761609D01*
X150150886Y-101067734D01*
X150246644Y-101163492D01*
X150552769Y-101368038D01*
X150906579Y-101438415D01*
X151260389Y-101368038D01*
X151566514Y-101163492D01*
X151662273Y-101067733D01*
X151866819Y-100761609D01*
X151937196Y-100407799D01*
X151866819Y-100053989D01*
X151662273Y-99747865D01*
X151566513Y-99652105D01*
X151260389Y-99447559D01*
X150906579Y-99377183D01*
X150552769Y-99447559D01*
X150246645Y-99652105D01*
X150150886Y-99747864D01*
X149946340Y-100053989D01*
X149875963Y-100407799D01*
X148947160Y-100407799D01*
X148913329Y-100150828D01*
X148912766Y-100144402D01*
X148907597Y-100025995D01*
X148896971Y-99782627D01*
X148897812Y-99767823D01*
X148899893Y-99754684D01*
X148900804Y-99748932D01*
X148896411Y-99721196D01*
X148895500Y-99709620D01*
X148895500Y-99699863D01*
X149093500Y-99699863D01*
X149096366Y-99717958D01*
X149097049Y-99723724D01*
X149097665Y-99731546D01*
X149097893Y-99737356D01*
X149097893Y-99760508D01*
X149097665Y-99766318D01*
X149097049Y-99774140D01*
X149096366Y-99779904D01*
X149095328Y-99786460D01*
X149097331Y-99832334D01*
X149350944Y-99882780D01*
X149704754Y-99812404D01*
X150010878Y-99607858D01*
X150106638Y-99512098D01*
X150311184Y-99205974D01*
X150352273Y-98999404D01*
X151460886Y-98999404D01*
X151501975Y-99205974D01*
X151706521Y-99512099D01*
X151802280Y-99607858D01*
X152108404Y-99812404D01*
X152462214Y-99882780D01*
X152816024Y-99812404D01*
X153078164Y-99637247D01*
X153054002Y-99597817D01*
X153052536Y-99595317D01*
X153050618Y-99591893D01*
X153049246Y-99589326D01*
X153043974Y-99578980D01*
X153042701Y-99576356D01*
X153041057Y-99572789D01*
X153039896Y-99570134D01*
X152984147Y-99435545D01*
X152983085Y-99432831D01*
X152981726Y-99429146D01*
X152980776Y-99426406D01*
X152977188Y-99415362D01*
X152976349Y-99412597D01*
X152975283Y-99408820D01*
X152974546Y-99405995D01*
X152940539Y-99264343D01*
X152939914Y-99261497D01*
X152939149Y-99257649D01*
X152938641Y-99254799D01*
X152936824Y-99243330D01*
X152936426Y-99240454D01*
X152935964Y-99236553D01*
X152935678Y-99233656D01*
X152927270Y-99126824D01*
X152923634Y-99103867D01*
X152922951Y-99098100D01*
X152922335Y-99090278D01*
X152922107Y-99084468D01*
X152922107Y-99083014D01*
X152920521Y-99082333D01*
X152917427Y-99080919D01*
X152913307Y-99078920D01*
X152910301Y-99077376D01*
X152898399Y-99070914D01*
X152895460Y-99069230D01*
X152891538Y-99066862D01*
X152888674Y-99065042D01*
X152712862Y-98947568D01*
X152710085Y-98945619D01*
X152706398Y-98942903D01*
X152703717Y-98940832D01*
X152693192Y-98932309D01*
X152690613Y-98930121D01*
X152687189Y-98927079D01*
X152684701Y-98924764D01*
X152533241Y-98777218D01*
X152530860Y-98774789D01*
X152527729Y-98771445D01*
X152525476Y-98768926D01*
X152516682Y-98758629D01*
X152514542Y-98756004D01*
X152511731Y-98752390D01*
X152509711Y-98749666D01*
X152387675Y-98576989D01*
X152385784Y-98574179D01*
X152383316Y-98570324D01*
X152381554Y-98567428D01*
X152374782Y-98555700D01*
X152373153Y-98552724D01*
X152371046Y-98548655D01*
X152369556Y-98545609D01*
X152281032Y-98353585D01*
X152279681Y-98350468D01*
X152277956Y-98346224D01*
X152276754Y-98343060D01*
X152272234Y-98330295D01*
X152271181Y-98327091D01*
X152269851Y-98322710D01*
X152268937Y-98319430D01*
X152216888Y-98114489D01*
X152216127Y-98111174D01*
X152215205Y-98106689D01*
X152214600Y-98103367D01*
X152212481Y-98089991D01*
X152212028Y-98086634D01*
X152211519Y-98082081D01*
X152211219Y-98078699D01*
X152197812Y-97874140D01*
X152126036Y-97888417D01*
X152136214Y-97896142D01*
X152144661Y-97903636D01*
X152155238Y-97914570D01*
X152169628Y-97935864D01*
X152177578Y-97953679D01*
X152182162Y-97967440D01*
X152193377Y-98016801D01*
X152195128Y-98029578D01*
X152195977Y-98046923D01*
X152195482Y-98059815D01*
X152186308Y-98132436D01*
X152185765Y-98136022D01*
X152184916Y-98140833D01*
X152184203Y-98144369D01*
X152181003Y-98158453D01*
X152180118Y-98161952D01*
X152178805Y-98166656D01*
X152177746Y-98170119D01*
X152115844Y-98356203D01*
X152114621Y-98359600D01*
X152112855Y-98364154D01*
X152111464Y-98367496D01*
X152105590Y-98380690D01*
X152104038Y-98383959D01*
X152101835Y-98388320D01*
X152100127Y-98391506D01*
X152003260Y-98562023D01*
X152001396Y-98565124D01*
X151998778Y-98569249D01*
X151996767Y-98572253D01*
X151988442Y-98584054D01*
X151986288Y-98586954D01*
X151983281Y-98590803D01*
X151980985Y-98593599D01*
X151852843Y-98742053D01*
X151850415Y-98744730D01*
X151847046Y-98748268D01*
X151844488Y-98750827D01*
X151834029Y-98760787D01*
X151831341Y-98763223D01*
X151827643Y-98766414D01*
X151824858Y-98768702D01*
X151670321Y-98889440D01*
X151667425Y-98891591D01*
X151663434Y-98894407D01*
X151660424Y-98896422D01*
X151648230Y-98904161D01*
X151645126Y-98906026D01*
X151640878Y-98908439D01*
X151637694Y-98910147D01*
X151462648Y-98998568D01*
X151460886Y-98999404D01*
X150352273Y-98999404D01*
X150371883Y-98900820D01*
X150339929Y-98882961D01*
X150336818Y-98881122D01*
X150332676Y-98878534D01*
X150329656Y-98876543D01*
X150317797Y-98868301D01*
X150314879Y-98866165D01*
X150311008Y-98863184D01*
X150308197Y-98860908D01*
X150158851Y-98733805D01*
X150156155Y-98731394D01*
X150152593Y-98728049D01*
X150150017Y-98725509D01*
X150139985Y-98715120D01*
X150137538Y-98712458D01*
X150134321Y-98708783D01*
X150132008Y-98706007D01*
X150010195Y-98552317D01*
X150008019Y-98549430D01*
X150005176Y-98545459D01*
X150003144Y-98542469D01*
X149995320Y-98530329D01*
X149993437Y-98527244D01*
X149990994Y-98523013D01*
X149989261Y-98519835D01*
X149899619Y-98345411D01*
X149898042Y-98342148D01*
X149896024Y-98337698D01*
X149894614Y-98334375D01*
X149889298Y-98320947D01*
X149888051Y-98317558D01*
X149886477Y-98312935D01*
X149885395Y-98309482D01*
X149831340Y-98120969D01*
X149830430Y-98117477D01*
X149829314Y-98112721D01*
X149828573Y-98109174D01*
X149825966Y-98094969D01*
X149825400Y-98091397D01*
X149824754Y-98086555D01*
X149824364Y-98082961D01*
X149821728Y-98051568D01*
X149821482Y-98046798D01*
X149821405Y-98042792D01*
X150019687Y-98042792D01*
X150021366Y-98062786D01*
X150022667Y-98069873D01*
X150074727Y-98251427D01*
X150077377Y-98258122D01*
X150163711Y-98426110D01*
X150167616Y-98432168D01*
X150284930Y-98580182D01*
X150289935Y-98585366D01*
X150433768Y-98707776D01*
X150439687Y-98711890D01*
X150604555Y-98804032D01*
X150611156Y-98806915D01*
X150790780Y-98865278D01*
X150797825Y-98866827D01*
X150847043Y-98872696D01*
X150857400Y-98870267D01*
X150860000Y-98866791D01*
X150860000Y-98863409D01*
X151160000Y-98863409D01*
X151163638Y-98873405D01*
X151167876Y-98875851D01*
X151180877Y-98874851D01*
X151187977Y-98873599D01*
X151369891Y-98822807D01*
X151376599Y-98820206D01*
X151545195Y-98735043D01*
X151551269Y-98731188D01*
X151700104Y-98614905D01*
X151705323Y-98609935D01*
X151828736Y-98466959D01*
X151832885Y-98461079D01*
X151926180Y-98296848D01*
X151929108Y-98290273D01*
X151988725Y-98111056D01*
X151990322Y-98104031D01*
X151997407Y-98047944D01*
X151995051Y-98037573D01*
X151991660Y-98035000D01*
X151173048Y-98035000D01*
X151163052Y-98038638D01*
X151160000Y-98043925D01*
X151160000Y-98863409D01*
X150860000Y-98863409D01*
X150860000Y-98048048D01*
X150856362Y-98038052D01*
X150851075Y-98035000D01*
X150032081Y-98035000D01*
X150022085Y-98038638D01*
X150019687Y-98042792D01*
X149821405Y-98042792D01*
X149821358Y-98040348D01*
X149821420Y-98035572D01*
X149822284Y-98016530D01*
X149822496Y-98013362D01*
X149822873Y-98009101D01*
X149826512Y-97991837D01*
X149831646Y-97976711D01*
X149820371Y-97969177D01*
X149820079Y-97971715D01*
X149819797Y-97973883D01*
X149789455Y-98183143D01*
X149788892Y-98186486D01*
X149788028Y-98190983D01*
X149787313Y-98194295D01*
X149784152Y-98207462D01*
X149783285Y-98210739D01*
X149782013Y-98215139D01*
X149780997Y-98218374D01*
X149713030Y-98418599D01*
X149711866Y-98421785D01*
X149710197Y-98426049D01*
X149708891Y-98429174D01*
X149703383Y-98441546D01*
X149701932Y-98444614D01*
X149699879Y-98448709D01*
X149698292Y-98451702D01*
X149594974Y-98636189D01*
X149593256Y-98639098D01*
X149592089Y-98640975D01*
X149586066Y-98652028D01*
X149585920Y-98652296D01*
X149585652Y-98652783D01*
X149585403Y-98653232D01*
X149584574Y-98654714D01*
X149584310Y-98655181D01*
X149584017Y-98655696D01*
X149583848Y-98655992D01*
X149576975Y-98667944D01*
X149576778Y-98668285D01*
X149576491Y-98668778D01*
X149576263Y-98669166D01*
X149575397Y-98670633D01*
X149575171Y-98671013D01*
X149574873Y-98671511D01*
X149574658Y-98671869D01*
X149574101Y-98672788D01*
X149573888Y-98673137D01*
X149573583Y-98673634D01*
X149573344Y-98674020D01*
X149572445Y-98675465D01*
X149572247Y-98675781D01*
X149571945Y-98676261D01*
X149571696Y-98676655D01*
X149564285Y-98688271D01*
X149564042Y-98688649D01*
X149563731Y-98689130D01*
X149563514Y-98689464D01*
X149562585Y-98690884D01*
X149562331Y-98691270D01*
X149562014Y-98691748D01*
X149561799Y-98692070D01*
X149473898Y-98823120D01*
X149473718Y-98823388D01*
X149473458Y-98823772D01*
X149473253Y-98824072D01*
X149472488Y-98825190D01*
X149472300Y-98825463D01*
X149472043Y-98825835D01*
X149471851Y-98826112D01*
X149465571Y-98835114D01*
X149465368Y-98835403D01*
X149465115Y-98835762D01*
X149464943Y-98836006D01*
X149464159Y-98837109D01*
X149463985Y-98837352D01*
X149463709Y-98837737D01*
X149463474Y-98838064D01*
X149463007Y-98838708D01*
X149462805Y-98838984D01*
X149462537Y-98839350D01*
X149462342Y-98839615D01*
X149461597Y-98840623D01*
X149461467Y-98840799D01*
X149461232Y-98841115D01*
X149461014Y-98841406D01*
X149454923Y-98849513D01*
X149454651Y-98849874D01*
X149454390Y-98850217D01*
X149454277Y-98850364D01*
X149453519Y-98851355D01*
X149453356Y-98851568D01*
X149453104Y-98851895D01*
X149452894Y-98852165D01*
X149390871Y-98931881D01*
X149365561Y-98964411D01*
X149365562Y-98964411D01*
X149365479Y-98964518D01*
X149365289Y-98964762D01*
X149364933Y-98965217D01*
X149364860Y-98965310D01*
X149364703Y-98965510D01*
X149364543Y-98965713D01*
X149361567Y-98969477D01*
X149361372Y-98969722D01*
X149361245Y-98969882D01*
X149360867Y-98970356D01*
X149360723Y-98970535D01*
X149360597Y-98970692D01*
X149360555Y-98970745D01*
X149360317Y-98971041D01*
X149360309Y-98971051D01*
X149360198Y-98971189D01*
X149360041Y-98971383D01*
X149359649Y-98971867D01*
X149359511Y-98972037D01*
X149359357Y-98972226D01*
X149359268Y-98972336D01*
X149356135Y-98976166D01*
X149356064Y-98976251D01*
X149355904Y-98976446D01*
X149355738Y-98976649D01*
X149355357Y-98977110D01*
X149355084Y-98977438D01*
X149354987Y-98977554D01*
X149273772Y-99075218D01*
X149209861Y-99155099D01*
X149167877Y-99216605D01*
X149140105Y-99270722D01*
X149118275Y-99335770D01*
X149101029Y-99432419D01*
X149093500Y-99578141D01*
X149093500Y-99699863D01*
X148895500Y-99699863D01*
X148895500Y-99574956D01*
X148895599Y-99571138D01*
X148903694Y-99414456D01*
X148904746Y-99405274D01*
X148924963Y-99291978D01*
X148927657Y-99281434D01*
X148943020Y-99235656D01*
X148955365Y-99198873D01*
X148959682Y-99188634D01*
X148995261Y-99119306D01*
X148999978Y-99111375D01*
X149048978Y-99039588D01*
X149052315Y-99035076D01*
X149053971Y-99033007D01*
X149077201Y-99003972D01*
X149119876Y-98950633D01*
X149120761Y-98949548D01*
X149184670Y-98872696D01*
X149202878Y-98850800D01*
X149206011Y-98846970D01*
X149206249Y-98846674D01*
X149209225Y-98842910D01*
X149234601Y-98810295D01*
X149296624Y-98730579D01*
X149302715Y-98722472D01*
X149303182Y-98721828D01*
X149309462Y-98712826D01*
X149316716Y-98702012D01*
X149397127Y-98582128D01*
X149397131Y-98582122D01*
X149397363Y-98581776D01*
X149404774Y-98570160D01*
X149405331Y-98569241D01*
X149411978Y-98557683D01*
X149411982Y-98557675D01*
X149412204Y-98557289D01*
X149420438Y-98542178D01*
X149421833Y-98539906D01*
X149422219Y-98539442D01*
X149443307Y-98501787D01*
X149523881Y-98357913D01*
X149523883Y-98357908D01*
X149525537Y-98354955D01*
X149593504Y-98154730D01*
X149593991Y-98151373D01*
X149593992Y-98151368D01*
X149623533Y-97947629D01*
X149623533Y-97947628D01*
X149623846Y-97945470D01*
X149625429Y-97885000D01*
X149611646Y-97735000D01*
X149610455Y-97722033D01*
X150021965Y-97722033D01*
X150024466Y-97732372D01*
X150028030Y-97735000D01*
X150846952Y-97735000D01*
X150856948Y-97731362D01*
X150860000Y-97726075D01*
X150860000Y-97721952D01*
X151160000Y-97721952D01*
X151163638Y-97731948D01*
X151168925Y-97735000D01*
X151987083Y-97735000D01*
X151997079Y-97731362D01*
X151999383Y-97727371D01*
X151996055Y-97693428D01*
X151994656Y-97686361D01*
X151940065Y-97505549D01*
X151937321Y-97498891D01*
X151848651Y-97332126D01*
X151844665Y-97326127D01*
X151725291Y-97179760D01*
X151720215Y-97174649D01*
X151574694Y-97054263D01*
X151568709Y-97050226D01*
X151402574Y-96960397D01*
X151395936Y-96957607D01*
X151215510Y-96901756D01*
X151208450Y-96900307D01*
X151172976Y-96896578D01*
X151162657Y-96899151D01*
X151160000Y-96902808D01*
X151160000Y-97721952D01*
X150860000Y-97721952D01*
X150860000Y-96907523D01*
X150856362Y-96897527D01*
X150852290Y-96895177D01*
X150825316Y-96897631D01*
X150818238Y-96898982D01*
X150637048Y-96952310D01*
X150630378Y-96955004D01*
X150462994Y-97042510D01*
X150456967Y-97046454D01*
X150309770Y-97164803D01*
X150304623Y-97169844D01*
X150183221Y-97314525D01*
X150179152Y-97320469D01*
X150088159Y-97485984D01*
X150085323Y-97492601D01*
X150028212Y-97672635D01*
X150026716Y-97679674D01*
X150021965Y-97722033D01*
X149610455Y-97722033D01*
X149606392Y-97677819D01*
X149606391Y-97677814D01*
X149606081Y-97674440D01*
X149596801Y-97641533D01*
X149556571Y-97498891D01*
X149548686Y-97470931D01*
X149455165Y-97281290D01*
X149438300Y-97258704D01*
X149330683Y-97114588D01*
X149330682Y-97114587D01*
X149328651Y-97111867D01*
X149253621Y-97042510D01*
X149175873Y-96970640D01*
X149175869Y-96970637D01*
X149173381Y-96968337D01*
X149158714Y-96959083D01*
X148997415Y-96857310D01*
X148997414Y-96857309D01*
X148994554Y-96855505D01*
X148991412Y-96854251D01*
X148991409Y-96854250D01*
X148801314Y-96778410D01*
X148801311Y-96778409D01*
X148798160Y-96777152D01*
X148610734Y-96739871D01*
X148594099Y-96736562D01*
X148594097Y-96736562D01*
X148590775Y-96735901D01*
X148497571Y-96734681D01*
X148382739Y-96733177D01*
X148382734Y-96733177D01*
X148379346Y-96733133D01*
X148376000Y-96733708D01*
X148375999Y-96733708D01*
X148318864Y-96743526D01*
X148170953Y-96768941D01*
X147972575Y-96842127D01*
X147790856Y-96950238D01*
X147788312Y-96952469D01*
X147788308Y-96952472D01*
X147701282Y-97028792D01*
X147631881Y-97089655D01*
X147629784Y-97092314D01*
X147629783Y-97092316D01*
X147612226Y-97114588D01*
X147500976Y-97255708D01*
X147402523Y-97442836D01*
X147401517Y-97446075D01*
X147401516Y-97446078D01*
X147385117Y-97498891D01*
X147339820Y-97644773D01*
X147314967Y-97854754D01*
X147328796Y-98065749D01*
X147329632Y-98069040D01*
X147329632Y-98069041D01*
X147339194Y-98106689D01*
X147380845Y-98270690D01*
X147382261Y-98273762D01*
X147382263Y-98273767D01*
X147464292Y-98451702D01*
X147469369Y-98462714D01*
X147493237Y-98496486D01*
X147496983Y-98501787D01*
X147501529Y-98509086D01*
X147527794Y-98557287D01*
X147527997Y-98557640D01*
X147528021Y-98557683D01*
X147528022Y-98557684D01*
X147534668Y-98569241D01*
X147535225Y-98570160D01*
X147542636Y-98581776D01*
X147542868Y-98582122D01*
X147542872Y-98582128D01*
X147623284Y-98702012D01*
X147630537Y-98712826D01*
X147636817Y-98721828D01*
X147637284Y-98722472D01*
X147643374Y-98730579D01*
X147705397Y-98810295D01*
X147730773Y-98842910D01*
X147733750Y-98846674D01*
X147733988Y-98846970D01*
X147737121Y-98850800D01*
X147755329Y-98872696D01*
X147819238Y-98949548D01*
X147820123Y-98950633D01*
X147862798Y-99003972D01*
X147886029Y-99033007D01*
X147887684Y-99035076D01*
X147891021Y-99039588D01*
X147940021Y-99111375D01*
X147944738Y-99119306D01*
X147980317Y-99188634D01*
X147984634Y-99198873D01*
X147996979Y-99235656D01*
X148012342Y-99281434D01*
X148015036Y-99291978D01*
X148035253Y-99405274D01*
X148036305Y-99414455D01*
X148038497Y-99456887D01*
X148044401Y-99571140D01*
X148044500Y-99574959D01*
X148044500Y-99709620D01*
X148043589Y-99721196D01*
X148039196Y-99748932D01*
X148040107Y-99754683D01*
X148040107Y-99755095D01*
X148040854Y-99762683D01*
X148043591Y-99832334D01*
X148057052Y-100174940D01*
X148057222Y-100176377D01*
X148057223Y-100176389D01*
X148073512Y-100314015D01*
X148107162Y-100598322D01*
X148190336Y-101016467D01*
X148190729Y-101017859D01*
X148190731Y-101017869D01*
X148220512Y-101123463D01*
X148306062Y-101426797D01*
X148307326Y-101430222D01*
X148421157Y-101738776D01*
X148453624Y-101826783D01*
X148454224Y-101828084D01*
X148454225Y-101828087D01*
X148614398Y-102175528D01*
X148632114Y-102213958D01*
X148632823Y-102215224D01*
X148632824Y-102215226D01*
X148651497Y-102248569D01*
X148840431Y-102585935D01*
X148841230Y-102587130D01*
X148841235Y-102587139D01*
X149076489Y-102939221D01*
X149076495Y-102939230D01*
X149077292Y-102940422D01*
X149341234Y-103275231D01*
X149342224Y-103276302D01*
X149621300Y-103578205D01*
X149626122Y-103584081D01*
X149626417Y-103584376D01*
X149629842Y-103589090D01*
X149634556Y-103592515D01*
X149652555Y-103605592D01*
X149661385Y-103613133D01*
X152984269Y-106936017D01*
X152986909Y-106938797D01*
X153096512Y-107060390D01*
X153102280Y-107067658D01*
X153171150Y-107166592D01*
X153176713Y-107175995D01*
X153217474Y-107258195D01*
X153221661Y-107268531D01*
X153246701Y-107346838D01*
X153248962Y-107355805D01*
X153265682Y-107445420D01*
X153266501Y-107450968D01*
X153278713Y-107562930D01*
X153278849Y-107564301D01*
X153290814Y-107696844D01*
X153291303Y-107701804D01*
X153291344Y-107702187D01*
X153291904Y-107707042D01*
X153309968Y-107853244D01*
X153311470Y-107863840D01*
X153311601Y-107864659D01*
X153311655Y-107864961D01*
X153311660Y-107864992D01*
X153312552Y-107870000D01*
X153313454Y-107875065D01*
X153313502Y-107875309D01*
X153313509Y-107875347D01*
X153329754Y-107958099D01*
X153344919Y-108035350D01*
X153347902Y-108048884D01*
X153348159Y-108049934D01*
X153351764Y-108063317D01*
X153351866Y-108063664D01*
X153351874Y-108063692D01*
X153373880Y-108138457D01*
X153374614Y-108141135D01*
X153405947Y-108264507D01*
X153407363Y-108267579D01*
X153407365Y-108267584D01*
X153447044Y-108353654D01*
X153496495Y-108460921D01*
X153498447Y-108463683D01*
X153562207Y-108553901D01*
X153621320Y-108637545D01*
X153776243Y-108788464D01*
X153779062Y-108790348D01*
X153779065Y-108790350D01*
X153953252Y-108906738D01*
X153953257Y-108906741D01*
X153956074Y-108908623D01*
X153959194Y-108909963D01*
X153959195Y-108909964D01*
X154151671Y-108992659D01*
X154151675Y-108992660D01*
X154154791Y-108993999D01*
X154247683Y-109015018D01*
X154362423Y-109040981D01*
X154362426Y-109040981D01*
X154365739Y-109041731D01*
X154473796Y-109045977D01*
X154578458Y-109050089D01*
X154578462Y-109050089D01*
X154581853Y-109050222D01*
X154724340Y-109029563D01*
X154792538Y-109019675D01*
X154792539Y-109019675D01*
X154795896Y-109019188D01*
X155000698Y-108949666D01*
X155003650Y-108948013D01*
X155003654Y-108948011D01*
X155186443Y-108845645D01*
X155186446Y-108845643D01*
X155189403Y-108843987D01*
X155192008Y-108841820D01*
X155192013Y-108841817D01*
X155353080Y-108707857D01*
X155355688Y-108705688D01*
X155359104Y-108701581D01*
X155359709Y-108701228D01*
X155360256Y-108700681D01*
X155360400Y-108700825D01*
X155402830Y-108676078D01*
X155452718Y-108684649D01*
X155485425Y-108723282D01*
X155490000Y-108748897D01*
X155490000Y-109534800D01*
X155472687Y-109582366D01*
X155428850Y-109607676D01*
X155379000Y-109598886D01*
X155365769Y-109589140D01*
X155241952Y-109474685D01*
X155241948Y-109474682D01*
X155239460Y-109472382D01*
X155056545Y-109356971D01*
X155053407Y-109355719D01*
X155053401Y-109355716D01*
X154858815Y-109278085D01*
X154858812Y-109278084D01*
X154855661Y-109276827D01*
X154852334Y-109276165D01*
X154852330Y-109276164D01*
X154646860Y-109235293D01*
X154646858Y-109235293D01*
X154643536Y-109234632D01*
X154548358Y-109233386D01*
X154430667Y-109231845D01*
X154430662Y-109231845D01*
X154427274Y-109231801D01*
X154423928Y-109232376D01*
X154423927Y-109232376D01*
X154382014Y-109239578D01*
X154214117Y-109268428D01*
X154011204Y-109343287D01*
X153825331Y-109453870D01*
X153822787Y-109456101D01*
X153822783Y-109456104D01*
X153733048Y-109534800D01*
X153662722Y-109596474D01*
X153528824Y-109766323D01*
X153428120Y-109957729D01*
X153427114Y-109960968D01*
X153427113Y-109960971D01*
X153385366Y-110095418D01*
X153363984Y-110164281D01*
X153338563Y-110379063D01*
X153352708Y-110594881D01*
X153405947Y-110804507D01*
X153407363Y-110807579D01*
X153407365Y-110807584D01*
X153447044Y-110893654D01*
X153496495Y-111000921D01*
X153498447Y-111003683D01*
X153562207Y-111093901D01*
X153621320Y-111177545D01*
X153776243Y-111328464D01*
X153779062Y-111330348D01*
X153779065Y-111330350D01*
X153953252Y-111446738D01*
X153953257Y-111446741D01*
X153956074Y-111448623D01*
X153959194Y-111449963D01*
X153959195Y-111449964D01*
X154151671Y-111532659D01*
X154151675Y-111532660D01*
X154154791Y-111533999D01*
X154261295Y-111558098D01*
X154362423Y-111580981D01*
X154362426Y-111580981D01*
X154365739Y-111581731D01*
X154473796Y-111585977D01*
X154578458Y-111590089D01*
X154578462Y-111590089D01*
X154581853Y-111590222D01*
X154724340Y-111569563D01*
X154792538Y-111559675D01*
X154792539Y-111559675D01*
X154795896Y-111559188D01*
X155000698Y-111489666D01*
X155003650Y-111488013D01*
X155003654Y-111488011D01*
X155186443Y-111385645D01*
X155186446Y-111385643D01*
X155189403Y-111383987D01*
X155192008Y-111381820D01*
X155192013Y-111381817D01*
X155353080Y-111247857D01*
X155355688Y-111245688D01*
X155359104Y-111241581D01*
X155359709Y-111241228D01*
X155360256Y-111240681D01*
X155360400Y-111240825D01*
X155402830Y-111216078D01*
X155452718Y-111224649D01*
X155485425Y-111263282D01*
X155490000Y-111288897D01*
X155490000Y-112074800D01*
X155472687Y-112122366D01*
X155428850Y-112147676D01*
X155379000Y-112138886D01*
X155365769Y-112129140D01*
X155241952Y-112014685D01*
X155241948Y-112014682D01*
X155239460Y-112012382D01*
X155056545Y-111896971D01*
X155053407Y-111895719D01*
X155053401Y-111895716D01*
X154858815Y-111818085D01*
X154858812Y-111818084D01*
X154855661Y-111816827D01*
X154852334Y-111816165D01*
X154852330Y-111816164D01*
X154646860Y-111775293D01*
X154646858Y-111775293D01*
X154643536Y-111774632D01*
X154548358Y-111773386D01*
X154430667Y-111771845D01*
X154430662Y-111771845D01*
X154427274Y-111771801D01*
X154423928Y-111772376D01*
X154423927Y-111772376D01*
X154364049Y-111782665D01*
X154214117Y-111808428D01*
X154011204Y-111883287D01*
X153825331Y-111993870D01*
X153822787Y-111996101D01*
X153822783Y-111996104D01*
X153733048Y-112074800D01*
X153662722Y-112136474D01*
X153528824Y-112306323D01*
X153428120Y-112497729D01*
X153363984Y-112704281D01*
X153338563Y-112919063D01*
X153352708Y-113134881D01*
X153405947Y-113344507D01*
X153407363Y-113347579D01*
X153407365Y-113347584D01*
X153447044Y-113433654D01*
X153496495Y-113540921D01*
X153621320Y-113717545D01*
X153776243Y-113868464D01*
X153779062Y-113870348D01*
X153779065Y-113870350D01*
X153953252Y-113986738D01*
X153953257Y-113986741D01*
X153956074Y-113988623D01*
X153959194Y-113989963D01*
X153959195Y-113989964D01*
X154151671Y-114072659D01*
X154151675Y-114072660D01*
X154154791Y-114073999D01*
X154261295Y-114098098D01*
X154362423Y-114120981D01*
X154362426Y-114120981D01*
X154365739Y-114121731D01*
X154473796Y-114125976D01*
X154578458Y-114130089D01*
X154578462Y-114130089D01*
X154581853Y-114130222D01*
X154724340Y-114109563D01*
X154792538Y-114099675D01*
X154792539Y-114099675D01*
X154795896Y-114099188D01*
X155000698Y-114029666D01*
X155003650Y-114028013D01*
X155003654Y-114028011D01*
X155186443Y-113925645D01*
X155186446Y-113925643D01*
X155189403Y-113923987D01*
X155192008Y-113921820D01*
X155192013Y-113921817D01*
X155353080Y-113787857D01*
X155355688Y-113785688D01*
X155359104Y-113781581D01*
X155359709Y-113781228D01*
X155360256Y-113780681D01*
X155360400Y-113780825D01*
X155402830Y-113756078D01*
X155452718Y-113764649D01*
X155485425Y-113803282D01*
X155490000Y-113828897D01*
X155490000Y-114614800D01*
X155472687Y-114662366D01*
X155428850Y-114687676D01*
X155379000Y-114678886D01*
X155365769Y-114669140D01*
X155241952Y-114554685D01*
X155241948Y-114554682D01*
X155239460Y-114552382D01*
X155056545Y-114436971D01*
X155053407Y-114435719D01*
X155053401Y-114435716D01*
X154858815Y-114358085D01*
X154858812Y-114358084D01*
X154855661Y-114356827D01*
X154852334Y-114356165D01*
X154852330Y-114356164D01*
X154646860Y-114315293D01*
X154646858Y-114315293D01*
X154643536Y-114314632D01*
X154548358Y-114313386D01*
X154430667Y-114311845D01*
X154430662Y-114311845D01*
X154427274Y-114311801D01*
X154423928Y-114312376D01*
X154423927Y-114312376D01*
X154364049Y-114322665D01*
X154214117Y-114348428D01*
X154011204Y-114423287D01*
X153825331Y-114533870D01*
X153822787Y-114536101D01*
X153822783Y-114536104D01*
X153702185Y-114641866D01*
X153662722Y-114676474D01*
X153528824Y-114846323D01*
X153428120Y-115037729D01*
X153427114Y-115040968D01*
X153427113Y-115040971D01*
X153375108Y-115208455D01*
X153363984Y-115244281D01*
X153338563Y-115459063D01*
X153352708Y-115674881D01*
X153405947Y-115884507D01*
X153407363Y-115887579D01*
X153407365Y-115887584D01*
X153469677Y-116022748D01*
X153496495Y-116080921D01*
X153621320Y-116257545D01*
X153776243Y-116408464D01*
X153779062Y-116410348D01*
X153779065Y-116410350D01*
X153953252Y-116526738D01*
X153953257Y-116526741D01*
X153956074Y-116528623D01*
X153959194Y-116529963D01*
X153959195Y-116529964D01*
X154151671Y-116612659D01*
X154151675Y-116612660D01*
X154154791Y-116613999D01*
X154261295Y-116638098D01*
X154362423Y-116660981D01*
X154362426Y-116660981D01*
X154365739Y-116661731D01*
X154473796Y-116665977D01*
X154578458Y-116670089D01*
X154578462Y-116670089D01*
X154581853Y-116670222D01*
X154724340Y-116649563D01*
X154792538Y-116639675D01*
X154792539Y-116639675D01*
X154795896Y-116639188D01*
X155000698Y-116569666D01*
X155003650Y-116568013D01*
X155003654Y-116568011D01*
X155186443Y-116465645D01*
X155186446Y-116465643D01*
X155189403Y-116463987D01*
X155192008Y-116461820D01*
X155192013Y-116461817D01*
X155353080Y-116327857D01*
X155355688Y-116325688D01*
X155359104Y-116321581D01*
X155359709Y-116321228D01*
X155360256Y-116320681D01*
X155360400Y-116320825D01*
X155402830Y-116296078D01*
X155452718Y-116304649D01*
X155485425Y-116343282D01*
X155490000Y-116368897D01*
X155490000Y-117154800D01*
X155472687Y-117202366D01*
X155428850Y-117227676D01*
X155379000Y-117218886D01*
X155365769Y-117209140D01*
X155241952Y-117094685D01*
X155241948Y-117094682D01*
X155239460Y-117092382D01*
X155056545Y-116976971D01*
X155053407Y-116975719D01*
X155053401Y-116975716D01*
X154858815Y-116898085D01*
X154858812Y-116898084D01*
X154855661Y-116896827D01*
X154852334Y-116896165D01*
X154852330Y-116896164D01*
X154646860Y-116855293D01*
X154646858Y-116855293D01*
X154643536Y-116854632D01*
X154548358Y-116853386D01*
X154430667Y-116851845D01*
X154430662Y-116851845D01*
X154427274Y-116851801D01*
X154423928Y-116852376D01*
X154423927Y-116852376D01*
X154380443Y-116859848D01*
X154214117Y-116888428D01*
X154011204Y-116963287D01*
X153825331Y-117073870D01*
X153822787Y-117076101D01*
X153822783Y-117076104D01*
X153733048Y-117154800D01*
X153662722Y-117216474D01*
X153528824Y-117386323D01*
X153428120Y-117577729D01*
X153363984Y-117784281D01*
X153359993Y-117818003D01*
X153341318Y-117975790D01*
X153338563Y-117999063D01*
X153352708Y-118214881D01*
X153405947Y-118424507D01*
X153407363Y-118427579D01*
X153407365Y-118427584D01*
X153447044Y-118513654D01*
X153496495Y-118620921D01*
X153621320Y-118797545D01*
X153776243Y-118948464D01*
X153779062Y-118950348D01*
X153779065Y-118950350D01*
X153953252Y-119066738D01*
X153953257Y-119066741D01*
X153956074Y-119068623D01*
X153959194Y-119069963D01*
X153959195Y-119069964D01*
X154151671Y-119152659D01*
X154151675Y-119152660D01*
X154154791Y-119153999D01*
X154261295Y-119178098D01*
X154362423Y-119200981D01*
X154362426Y-119200981D01*
X154365739Y-119201731D01*
X154473796Y-119205977D01*
X154578458Y-119210089D01*
X154578462Y-119210089D01*
X154581853Y-119210222D01*
X154724340Y-119189563D01*
X154792538Y-119179675D01*
X154792539Y-119179675D01*
X154795896Y-119179188D01*
X155000698Y-119109666D01*
X155003650Y-119108013D01*
X155003654Y-119108011D01*
X155186443Y-119005645D01*
X155186446Y-119005643D01*
X155189403Y-119003987D01*
X155192008Y-119001820D01*
X155192013Y-119001817D01*
X155353080Y-118867857D01*
X155355688Y-118865688D01*
X155359104Y-118861581D01*
X155359709Y-118861228D01*
X155360256Y-118860681D01*
X155360400Y-118860825D01*
X155402830Y-118836078D01*
X155452718Y-118844649D01*
X155485425Y-118883282D01*
X155490000Y-118908897D01*
X155490000Y-119694800D01*
X155472687Y-119742366D01*
X155428850Y-119767676D01*
X155379000Y-119758886D01*
X155365769Y-119749140D01*
X155241952Y-119634685D01*
X155241948Y-119634682D01*
X155239460Y-119632382D01*
X155056545Y-119516971D01*
X155053407Y-119515719D01*
X155053401Y-119515716D01*
X154858815Y-119438085D01*
X154858812Y-119438084D01*
X154855661Y-119436827D01*
X154852334Y-119436165D01*
X154852330Y-119436164D01*
X154646860Y-119395293D01*
X154646858Y-119395293D01*
X154643536Y-119394632D01*
X154548358Y-119393386D01*
X154430667Y-119391845D01*
X154430662Y-119391845D01*
X154427274Y-119391801D01*
X154423928Y-119392376D01*
X154423927Y-119392376D01*
X154364049Y-119402665D01*
X154214117Y-119428428D01*
X154011204Y-119503287D01*
X153825331Y-119613870D01*
X153822787Y-119616101D01*
X153822783Y-119616104D01*
X153733048Y-119694800D01*
X153662722Y-119756474D01*
X153528824Y-119926323D01*
X153428120Y-120117729D01*
X153363984Y-120324281D01*
X153359993Y-120358003D01*
X153341318Y-120515790D01*
X153338563Y-120539063D01*
X153352708Y-120754881D01*
X153405947Y-120964507D01*
X153407363Y-120967579D01*
X153407365Y-120967584D01*
X153447044Y-121053654D01*
X153496495Y-121160921D01*
X153621320Y-121337545D01*
X153776243Y-121488464D01*
X153779062Y-121490348D01*
X153779065Y-121490350D01*
X153953252Y-121606738D01*
X153953257Y-121606741D01*
X153956074Y-121608623D01*
X153959194Y-121609963D01*
X153959195Y-121609964D01*
X154151671Y-121692659D01*
X154151675Y-121692660D01*
X154154791Y-121693999D01*
X154261295Y-121718098D01*
X154362423Y-121740981D01*
X154362426Y-121740981D01*
X154365739Y-121741731D01*
X154473796Y-121745977D01*
X154578458Y-121750089D01*
X154578462Y-121750089D01*
X154581853Y-121750222D01*
X154724340Y-121729563D01*
X154792538Y-121719675D01*
X154792539Y-121719675D01*
X154795896Y-121719188D01*
X155000698Y-121649666D01*
X155003650Y-121648013D01*
X155003654Y-121648011D01*
X155186443Y-121545645D01*
X155186446Y-121545643D01*
X155189403Y-121543987D01*
X155192008Y-121541820D01*
X155192013Y-121541817D01*
X155353080Y-121407857D01*
X155355688Y-121405688D01*
X155359104Y-121401581D01*
X155359709Y-121401228D01*
X155360256Y-121400681D01*
X155360400Y-121400825D01*
X155402830Y-121376078D01*
X155452718Y-121384649D01*
X155485425Y-121423282D01*
X155490000Y-121448897D01*
X155490000Y-122234800D01*
X155472687Y-122282366D01*
X155428850Y-122307676D01*
X155379000Y-122298886D01*
X155365769Y-122289140D01*
X155241952Y-122174685D01*
X155241948Y-122174682D01*
X155239460Y-122172382D01*
X155056545Y-122056971D01*
X155053407Y-122055719D01*
X155053401Y-122055716D01*
X154858815Y-121978085D01*
X154858812Y-121978084D01*
X154855661Y-121976827D01*
X154852334Y-121976165D01*
X154852330Y-121976164D01*
X154646860Y-121935293D01*
X154646858Y-121935293D01*
X154643536Y-121934632D01*
X154548358Y-121933386D01*
X154430667Y-121931845D01*
X154430662Y-121931845D01*
X154427274Y-121931801D01*
X154423928Y-121932376D01*
X154423927Y-121932376D01*
X154364049Y-121942665D01*
X154214117Y-121968428D01*
X154011204Y-122043287D01*
X153825331Y-122153870D01*
X153822787Y-122156101D01*
X153822783Y-122156104D01*
X153733048Y-122234800D01*
X153662722Y-122296474D01*
X153528824Y-122466323D01*
X153428120Y-122657729D01*
X153427114Y-122660968D01*
X153427113Y-122660971D01*
X153389507Y-122782083D01*
X153363984Y-122864281D01*
X153349503Y-122986629D01*
X153341318Y-123055790D01*
X153338563Y-123079063D01*
X153352708Y-123294881D01*
X153405947Y-123504507D01*
X153407363Y-123507579D01*
X153407365Y-123507584D01*
X153447044Y-123593654D01*
X153496495Y-123700921D01*
X153498447Y-123703683D01*
X153562207Y-123793901D01*
X153621320Y-123877545D01*
X153776243Y-124028464D01*
X153779062Y-124030348D01*
X153779065Y-124030350D01*
X153953252Y-124146738D01*
X153953257Y-124146741D01*
X153956074Y-124148623D01*
X153959194Y-124149963D01*
X153959195Y-124149964D01*
X154151671Y-124232659D01*
X154151675Y-124232660D01*
X154154791Y-124233999D01*
X154261295Y-124258098D01*
X154362423Y-124280981D01*
X154362426Y-124280981D01*
X154365739Y-124281731D01*
X154473796Y-124285976D01*
X154578458Y-124290089D01*
X154578462Y-124290089D01*
X154581853Y-124290222D01*
X154724340Y-124269563D01*
X154792538Y-124259675D01*
X154792539Y-124259675D01*
X154795896Y-124259188D01*
X155000698Y-124189666D01*
X155003650Y-124188013D01*
X155003654Y-124188011D01*
X155186443Y-124085645D01*
X155186446Y-124085643D01*
X155189403Y-124083987D01*
X155192008Y-124081820D01*
X155192013Y-124081817D01*
X155353080Y-123947857D01*
X155355688Y-123945688D01*
X155359104Y-123941581D01*
X155359709Y-123941228D01*
X155360256Y-123940681D01*
X155360400Y-123940825D01*
X155402830Y-123916078D01*
X155452718Y-123924649D01*
X155485425Y-123963282D01*
X155490000Y-123988897D01*
X155490000Y-124774800D01*
X155472687Y-124822366D01*
X155428850Y-124847676D01*
X155379000Y-124838886D01*
X155365769Y-124829140D01*
X155241952Y-124714685D01*
X155241948Y-124714682D01*
X155239460Y-124712382D01*
X155121610Y-124638024D01*
X155059406Y-124598776D01*
X155059405Y-124598775D01*
X155056545Y-124596971D01*
X155053407Y-124595719D01*
X155053401Y-124595716D01*
X154858815Y-124518085D01*
X154858812Y-124518084D01*
X154855661Y-124516827D01*
X154852334Y-124516165D01*
X154852330Y-124516164D01*
X154646860Y-124475293D01*
X154646858Y-124475293D01*
X154643536Y-124474632D01*
X154548358Y-124473386D01*
X154430667Y-124471845D01*
X154430662Y-124471845D01*
X154427274Y-124471801D01*
X154423928Y-124472376D01*
X154423927Y-124472376D01*
X154364049Y-124482665D01*
X154214117Y-124508428D01*
X154011204Y-124583287D01*
X153825331Y-124693870D01*
X153822787Y-124696101D01*
X153822783Y-124696104D01*
X153735170Y-124772939D01*
X153662722Y-124836474D01*
X153528824Y-125006323D01*
X153428120Y-125197729D01*
X153363984Y-125404281D01*
X153338563Y-125619063D01*
X153352708Y-125834881D01*
X153405947Y-126044507D01*
X153407363Y-126047579D01*
X153407365Y-126047584D01*
X153447044Y-126133654D01*
X153496495Y-126240921D01*
X153621320Y-126417545D01*
X153776243Y-126568464D01*
X153779062Y-126570348D01*
X153779065Y-126570350D01*
X153953252Y-126686738D01*
X153953257Y-126686741D01*
X153956074Y-126688623D01*
X153959194Y-126689963D01*
X153959195Y-126689964D01*
X154151671Y-126772659D01*
X154151675Y-126772660D01*
X154154791Y-126773999D01*
X154261295Y-126798098D01*
X154362423Y-126820981D01*
X154362426Y-126820981D01*
X154365739Y-126821731D01*
X154473796Y-126825976D01*
X154578458Y-126830089D01*
X154578462Y-126830089D01*
X154581853Y-126830222D01*
X154724340Y-126809563D01*
X154792538Y-126799675D01*
X154792539Y-126799675D01*
X154795896Y-126799188D01*
X155000698Y-126729666D01*
X155003650Y-126728013D01*
X155003654Y-126728011D01*
X155186443Y-126625645D01*
X155186446Y-126625643D01*
X155189403Y-126623987D01*
X155192008Y-126621820D01*
X155192013Y-126621817D01*
X155353080Y-126487857D01*
X155355688Y-126485688D01*
X155359104Y-126481581D01*
X155359709Y-126481228D01*
X155360256Y-126480681D01*
X155360400Y-126480825D01*
X155402830Y-126456078D01*
X155452718Y-126464649D01*
X155485425Y-126503282D01*
X155490000Y-126528897D01*
X155490000Y-127314800D01*
X155472687Y-127362366D01*
X155428850Y-127387676D01*
X155379000Y-127378886D01*
X155365769Y-127369140D01*
X155241952Y-127254685D01*
X155241948Y-127254682D01*
X155239460Y-127252382D01*
X155056545Y-127136971D01*
X155053407Y-127135719D01*
X155053401Y-127135716D01*
X154858815Y-127058085D01*
X154858812Y-127058084D01*
X154855661Y-127056827D01*
X154852334Y-127056165D01*
X154852330Y-127056164D01*
X154646860Y-127015293D01*
X154646858Y-127015293D01*
X154643536Y-127014632D01*
X154548358Y-127013386D01*
X154430667Y-127011845D01*
X154430662Y-127011845D01*
X154427274Y-127011801D01*
X154423928Y-127012376D01*
X154423927Y-127012376D01*
X154364049Y-127022665D01*
X154214117Y-127048428D01*
X154011204Y-127123287D01*
X153825331Y-127233870D01*
X153822787Y-127236101D01*
X153822783Y-127236104D01*
X153733048Y-127314800D01*
X153662722Y-127376474D01*
X153528824Y-127546323D01*
X153428120Y-127737729D01*
X153363984Y-127944281D01*
X153338563Y-128159063D01*
X153352708Y-128374881D01*
X153405947Y-128584507D01*
X153407363Y-128587579D01*
X153407365Y-128587584D01*
X153447044Y-128673654D01*
X153496495Y-128780921D01*
X153621320Y-128957545D01*
X153776243Y-129108464D01*
X153779062Y-129110348D01*
X153779065Y-129110350D01*
X153953252Y-129226738D01*
X153953257Y-129226741D01*
X153956074Y-129228623D01*
X153959194Y-129229963D01*
X153959195Y-129229964D01*
X154151671Y-129312659D01*
X154151675Y-129312660D01*
X154154791Y-129313999D01*
X154261295Y-129338098D01*
X154362423Y-129360981D01*
X154362426Y-129360981D01*
X154365739Y-129361731D01*
X154473796Y-129365976D01*
X154578458Y-129370089D01*
X154578462Y-129370089D01*
X154581853Y-129370222D01*
X154724340Y-129349563D01*
X154792538Y-129339675D01*
X154792539Y-129339675D01*
X154795896Y-129339188D01*
X155000698Y-129269666D01*
X155003650Y-129268013D01*
X155003654Y-129268011D01*
X155186443Y-129165645D01*
X155186446Y-129165643D01*
X155189403Y-129163987D01*
X155192008Y-129161820D01*
X155192013Y-129161817D01*
X155353080Y-129027857D01*
X155355688Y-129025688D01*
X155359104Y-129021581D01*
X155359709Y-129021228D01*
X155360256Y-129020681D01*
X155360400Y-129020825D01*
X155402830Y-128996078D01*
X155452718Y-129004649D01*
X155485425Y-129043282D01*
X155490000Y-129068897D01*
X155490000Y-129854800D01*
X155472687Y-129902366D01*
X155428850Y-129927676D01*
X155379000Y-129918886D01*
X155365769Y-129909140D01*
X155241952Y-129794685D01*
X155241948Y-129794682D01*
X155239460Y-129792382D01*
X155056545Y-129676971D01*
X155053407Y-129675719D01*
X155053401Y-129675716D01*
X154858815Y-129598085D01*
X154858812Y-129598084D01*
X154855661Y-129596827D01*
X154852334Y-129596165D01*
X154852330Y-129596164D01*
X154646860Y-129555293D01*
X154646858Y-129555293D01*
X154643536Y-129554632D01*
X154548358Y-129553386D01*
X154430667Y-129551845D01*
X154430662Y-129551845D01*
X154427274Y-129551801D01*
X154423928Y-129552376D01*
X154423927Y-129552376D01*
X154364049Y-129562665D01*
X154214117Y-129588428D01*
X154011204Y-129663287D01*
X153825331Y-129773870D01*
X153822787Y-129776101D01*
X153822783Y-129776104D01*
X153733048Y-129854800D01*
X153662722Y-129916474D01*
X153528824Y-130086323D01*
X153428120Y-130277729D01*
X153363984Y-130484281D01*
X153338563Y-130699063D01*
X153352708Y-130914881D01*
X153405947Y-131124507D01*
X153407363Y-131127579D01*
X153407365Y-131127584D01*
X153447044Y-131213654D01*
X153496495Y-131320921D01*
X153621320Y-131497545D01*
X153693500Y-131567859D01*
X153698771Y-131572994D01*
X153720763Y-131618586D01*
X153708303Y-131667647D01*
X153667222Y-131697222D01*
X153647135Y-131700000D01*
X152858897Y-131700000D01*
X152811331Y-131682687D01*
X152786021Y-131638850D01*
X152794811Y-131589000D01*
X152811581Y-131569104D01*
X152813078Y-131567859D01*
X152813080Y-131567857D01*
X152815688Y-131565688D01*
X152829518Y-131549059D01*
X152951817Y-131402013D01*
X152951820Y-131402008D01*
X152953987Y-131399403D01*
X153059666Y-131210698D01*
X153129188Y-131005896D01*
X153142384Y-130914881D01*
X153159909Y-130794015D01*
X153159910Y-130794007D01*
X153160222Y-130791853D01*
X153161842Y-130730000D01*
X153142052Y-130514626D01*
X153141133Y-130511368D01*
X153141132Y-130511362D01*
X153084266Y-130309731D01*
X153084265Y-130309729D01*
X153083345Y-130306466D01*
X152987686Y-130112489D01*
X152970390Y-130089326D01*
X152860312Y-129941914D01*
X152860311Y-129941913D01*
X152858280Y-129939193D01*
X152855789Y-129936890D01*
X152855786Y-129936887D01*
X152701952Y-129794685D01*
X152701948Y-129794682D01*
X152699460Y-129792382D01*
X152516545Y-129676971D01*
X152513407Y-129675719D01*
X152513401Y-129675716D01*
X152318815Y-129598085D01*
X152318812Y-129598084D01*
X152315661Y-129596827D01*
X152312334Y-129596165D01*
X152312330Y-129596164D01*
X152106860Y-129555293D01*
X152106858Y-129555293D01*
X152103536Y-129554632D01*
X152008358Y-129553386D01*
X151890667Y-129551845D01*
X151890662Y-129551845D01*
X151887274Y-129551801D01*
X151883928Y-129552376D01*
X151883927Y-129552376D01*
X151824049Y-129562665D01*
X151674117Y-129588428D01*
X151471204Y-129663287D01*
X151285331Y-129773870D01*
X151282787Y-129776101D01*
X151282783Y-129776104D01*
X151193048Y-129854800D01*
X151122722Y-129916474D01*
X150988824Y-130086323D01*
X150888120Y-130277729D01*
X150823984Y-130484281D01*
X150798563Y-130699063D01*
X150812708Y-130914881D01*
X150865947Y-131124507D01*
X150867363Y-131127579D01*
X150867365Y-131127584D01*
X150907044Y-131213654D01*
X150956495Y-131320921D01*
X151081320Y-131497545D01*
X151153500Y-131567859D01*
X151158771Y-131572994D01*
X151180763Y-131618586D01*
X151168303Y-131667647D01*
X151127222Y-131697222D01*
X151107135Y-131700000D01*
X150318897Y-131700000D01*
X150271331Y-131682687D01*
X150246021Y-131638850D01*
X150254811Y-131589000D01*
X150271581Y-131569104D01*
X150273078Y-131567859D01*
X150273080Y-131567857D01*
X150275688Y-131565688D01*
X150289518Y-131549059D01*
X150411817Y-131402013D01*
X150411820Y-131402008D01*
X150413987Y-131399403D01*
X150519666Y-131210698D01*
X150589188Y-131005896D01*
X150602384Y-130914881D01*
X150619909Y-130794015D01*
X150619910Y-130794007D01*
X150620222Y-130791853D01*
X150621842Y-130730000D01*
X150602052Y-130514626D01*
X150601133Y-130511368D01*
X150601132Y-130511362D01*
X150544266Y-130309731D01*
X150544265Y-130309729D01*
X150543345Y-130306466D01*
X150447686Y-130112489D01*
X150430390Y-130089326D01*
X150320312Y-129941914D01*
X150320311Y-129941913D01*
X150318280Y-129939193D01*
X150315789Y-129936890D01*
X150315786Y-129936887D01*
X150161952Y-129794685D01*
X150161948Y-129794682D01*
X150159460Y-129792382D01*
X149976545Y-129676971D01*
X149973407Y-129675719D01*
X149973401Y-129675716D01*
X149778815Y-129598085D01*
X149778812Y-129598084D01*
X149775661Y-129596827D01*
X149772334Y-129596165D01*
X149772330Y-129596164D01*
X149566860Y-129555293D01*
X149566858Y-129555293D01*
X149563536Y-129554632D01*
X149468358Y-129553386D01*
X149350667Y-129551845D01*
X149350662Y-129551845D01*
X149347274Y-129551801D01*
X149343928Y-129552376D01*
X149343927Y-129552376D01*
X149284049Y-129562665D01*
X149134117Y-129588428D01*
X148931204Y-129663287D01*
X148745331Y-129773870D01*
X148742787Y-129776101D01*
X148742783Y-129776104D01*
X148653048Y-129854800D01*
X148582722Y-129916474D01*
X148448824Y-130086323D01*
X148348120Y-130277729D01*
X148283984Y-130484281D01*
X148258563Y-130699063D01*
X148272708Y-130914881D01*
X148325947Y-131124507D01*
X148327363Y-131127579D01*
X148327365Y-131127584D01*
X148367044Y-131213654D01*
X148416495Y-131320921D01*
X148541320Y-131497545D01*
X148613500Y-131567859D01*
X148618771Y-131572994D01*
X148640763Y-131618586D01*
X148628303Y-131667647D01*
X148587222Y-131697222D01*
X148567135Y-131700000D01*
X147778897Y-131700000D01*
X147731331Y-131682687D01*
X147706021Y-131638850D01*
X147714811Y-131589000D01*
X147731581Y-131569104D01*
X147733078Y-131567859D01*
X147733080Y-131567857D01*
X147735688Y-131565688D01*
X147749518Y-131549059D01*
X147871817Y-131402013D01*
X147871820Y-131402008D01*
X147873987Y-131399403D01*
X147979666Y-131210698D01*
X148049188Y-131005896D01*
X148062384Y-130914881D01*
X148079909Y-130794015D01*
X148079910Y-130794007D01*
X148080222Y-130791853D01*
X148081842Y-130730000D01*
X148062052Y-130514626D01*
X148061133Y-130511368D01*
X148061132Y-130511362D01*
X148004266Y-130309731D01*
X148004265Y-130309729D01*
X148003345Y-130306466D01*
X147907686Y-130112489D01*
X147890390Y-130089326D01*
X147780312Y-129941914D01*
X147780311Y-129941913D01*
X147778280Y-129939193D01*
X147775789Y-129936890D01*
X147775786Y-129936887D01*
X147621952Y-129794685D01*
X147621948Y-129794682D01*
X147619460Y-129792382D01*
X147436545Y-129676971D01*
X147433407Y-129675719D01*
X147433401Y-129675716D01*
X147238815Y-129598085D01*
X147238812Y-129598084D01*
X147235661Y-129596827D01*
X147232334Y-129596165D01*
X147232330Y-129596164D01*
X147026860Y-129555293D01*
X147026858Y-129555293D01*
X147023536Y-129554632D01*
X146928358Y-129553386D01*
X146810667Y-129551845D01*
X146810662Y-129551845D01*
X146807274Y-129551801D01*
X146803928Y-129552376D01*
X146803927Y-129552376D01*
X146744049Y-129562665D01*
X146594117Y-129588428D01*
X146391204Y-129663287D01*
X146205331Y-129773870D01*
X146202787Y-129776101D01*
X146202783Y-129776104D01*
X146113048Y-129854800D01*
X146042722Y-129916474D01*
X145908824Y-130086323D01*
X145808120Y-130277729D01*
X145743984Y-130484281D01*
X145718563Y-130699063D01*
X145732708Y-130914881D01*
X145785947Y-131124507D01*
X145787363Y-131127579D01*
X145787365Y-131127584D01*
X145827044Y-131213654D01*
X145876495Y-131320921D01*
X146001320Y-131497545D01*
X146073500Y-131567859D01*
X146078771Y-131572994D01*
X146100763Y-131618586D01*
X146088303Y-131667647D01*
X146047222Y-131697222D01*
X146027135Y-131700000D01*
X145238897Y-131700000D01*
X145191331Y-131682687D01*
X145166021Y-131638850D01*
X145174811Y-131589000D01*
X145191581Y-131569104D01*
X145193078Y-131567859D01*
X145193080Y-131567857D01*
X145195688Y-131565688D01*
X145209518Y-131549059D01*
X145331817Y-131402013D01*
X145331820Y-131402008D01*
X145333987Y-131399403D01*
X145439666Y-131210698D01*
X145509188Y-131005896D01*
X145522384Y-130914881D01*
X145539909Y-130794015D01*
X145539910Y-130794007D01*
X145540222Y-130791853D01*
X145541842Y-130730000D01*
X145522052Y-130514626D01*
X145521133Y-130511368D01*
X145521132Y-130511362D01*
X145464266Y-130309731D01*
X145464265Y-130309729D01*
X145463345Y-130306466D01*
X145367686Y-130112489D01*
X145350390Y-130089326D01*
X145240312Y-129941914D01*
X145240311Y-129941913D01*
X145238280Y-129939193D01*
X145235789Y-129936890D01*
X145235786Y-129936887D01*
X145081952Y-129794685D01*
X145081948Y-129794682D01*
X145079460Y-129792382D01*
X144896545Y-129676971D01*
X144893407Y-129675719D01*
X144893401Y-129675716D01*
X144698815Y-129598085D01*
X144698812Y-129598084D01*
X144695661Y-129596827D01*
X144692334Y-129596165D01*
X144692330Y-129596164D01*
X144486860Y-129555293D01*
X144486858Y-129555293D01*
X144483536Y-129554632D01*
X144388358Y-129553386D01*
X144270667Y-129551845D01*
X144270662Y-129551845D01*
X144267274Y-129551801D01*
X144263928Y-129552376D01*
X144263927Y-129552376D01*
X144204049Y-129562665D01*
X144054117Y-129588428D01*
X143851204Y-129663287D01*
X143665331Y-129773870D01*
X143662787Y-129776101D01*
X143662783Y-129776104D01*
X143573048Y-129854800D01*
X143502722Y-129916474D01*
X143368824Y-130086323D01*
X143268120Y-130277729D01*
X143203984Y-130484281D01*
X143178563Y-130699063D01*
X143192708Y-130914881D01*
X143245947Y-131124507D01*
X143247363Y-131127579D01*
X143247365Y-131127584D01*
X143287044Y-131213654D01*
X143336495Y-131320921D01*
X143461320Y-131497545D01*
X143533500Y-131567859D01*
X143538771Y-131572994D01*
X143560763Y-131618586D01*
X143548303Y-131667647D01*
X143507222Y-131697222D01*
X143487135Y-131700000D01*
X142698897Y-131700000D01*
X142651331Y-131682687D01*
X142626021Y-131638850D01*
X142634811Y-131589000D01*
X142651581Y-131569104D01*
X142653078Y-131567859D01*
X142653080Y-131567857D01*
X142655688Y-131565688D01*
X142669518Y-131549059D01*
X142791817Y-131402013D01*
X142791820Y-131402008D01*
X142793987Y-131399403D01*
X142899666Y-131210698D01*
X142969188Y-131005896D01*
X142982384Y-130914881D01*
X142999909Y-130794015D01*
X142999910Y-130794007D01*
X143000222Y-130791853D01*
X143001842Y-130730000D01*
X142982052Y-130514626D01*
X142981133Y-130511368D01*
X142981132Y-130511362D01*
X142924266Y-130309731D01*
X142924265Y-130309729D01*
X142923345Y-130306466D01*
X142827686Y-130112489D01*
X142810390Y-130089326D01*
X142700312Y-129941914D01*
X142700311Y-129941913D01*
X142698280Y-129939193D01*
X142695789Y-129936890D01*
X142695786Y-129936887D01*
X142541952Y-129794685D01*
X142541948Y-129794682D01*
X142539460Y-129792382D01*
X142356545Y-129676971D01*
X142353407Y-129675719D01*
X142353401Y-129675716D01*
X142158815Y-129598085D01*
X142158812Y-129598084D01*
X142155661Y-129596827D01*
X142152334Y-129596165D01*
X142152330Y-129596164D01*
X141946860Y-129555293D01*
X141946858Y-129555293D01*
X141943536Y-129554632D01*
X141848358Y-129553386D01*
X141730667Y-129551845D01*
X141730662Y-129551845D01*
X141727274Y-129551801D01*
X141723928Y-129552376D01*
X141723927Y-129552376D01*
X141664049Y-129562665D01*
X141514117Y-129588428D01*
X141311204Y-129663287D01*
X141125331Y-129773870D01*
X141122787Y-129776101D01*
X141122783Y-129776104D01*
X141033048Y-129854800D01*
X140962722Y-129916474D01*
X140828824Y-130086323D01*
X140728120Y-130277729D01*
X140663984Y-130484281D01*
X140638563Y-130699063D01*
X140652708Y-130914881D01*
X140705947Y-131124507D01*
X140707363Y-131127579D01*
X140707365Y-131127584D01*
X140747044Y-131213654D01*
X140796495Y-131320921D01*
X140921320Y-131497545D01*
X140993500Y-131567859D01*
X140998771Y-131572994D01*
X141020763Y-131618586D01*
X141008303Y-131667647D01*
X140967222Y-131697222D01*
X140947135Y-131700000D01*
X140158897Y-131700000D01*
X140111331Y-131682687D01*
X140086021Y-131638850D01*
X140094811Y-131589000D01*
X140111581Y-131569104D01*
X140113078Y-131567859D01*
X140113080Y-131567857D01*
X140115688Y-131565688D01*
X140129518Y-131549059D01*
X140251817Y-131402013D01*
X140251820Y-131402008D01*
X140253987Y-131399403D01*
X140359666Y-131210698D01*
X140429188Y-131005896D01*
X140442384Y-130914881D01*
X140459909Y-130794015D01*
X140459910Y-130794007D01*
X140460222Y-130791853D01*
X140461842Y-130730000D01*
X140442052Y-130514626D01*
X140441133Y-130511368D01*
X140441132Y-130511362D01*
X140384266Y-130309731D01*
X140384265Y-130309729D01*
X140383345Y-130306466D01*
X140287686Y-130112489D01*
X140270390Y-130089326D01*
X140160312Y-129941914D01*
X140160311Y-129941913D01*
X140158280Y-129939193D01*
X140155789Y-129936890D01*
X140155786Y-129936887D01*
X140001952Y-129794685D01*
X140001948Y-129794682D01*
X139999460Y-129792382D01*
X139816545Y-129676971D01*
X139813407Y-129675719D01*
X139813401Y-129675716D01*
X139618815Y-129598085D01*
X139618812Y-129598084D01*
X139615661Y-129596827D01*
X139612334Y-129596165D01*
X139612330Y-129596164D01*
X139406860Y-129555293D01*
X139406858Y-129555293D01*
X139403536Y-129554632D01*
X139308358Y-129553386D01*
X139190667Y-129551845D01*
X139190662Y-129551845D01*
X139187274Y-129551801D01*
X139183928Y-129552376D01*
X139183927Y-129552376D01*
X139124049Y-129562665D01*
X138974117Y-129588428D01*
X138771204Y-129663287D01*
X138585331Y-129773870D01*
X138582787Y-129776101D01*
X138582783Y-129776104D01*
X138432792Y-129907643D01*
X138385614Y-129925989D01*
X138337682Y-129909718D01*
X138311422Y-129866444D01*
X138310000Y-129852007D01*
X138310000Y-129063463D01*
X138327313Y-129015897D01*
X138371150Y-128990587D01*
X138421000Y-128999377D01*
X138435635Y-129010456D01*
X138536243Y-129108464D01*
X138539062Y-129110348D01*
X138539065Y-129110350D01*
X138713252Y-129226738D01*
X138713257Y-129226741D01*
X138716074Y-129228623D01*
X138719194Y-129229963D01*
X138719195Y-129229964D01*
X138911671Y-129312659D01*
X138911675Y-129312660D01*
X138914791Y-129313999D01*
X139021295Y-129338098D01*
X139122423Y-129360981D01*
X139122426Y-129360981D01*
X139125739Y-129361731D01*
X139233796Y-129365976D01*
X139338458Y-129370089D01*
X139338462Y-129370089D01*
X139341853Y-129370222D01*
X139484340Y-129349563D01*
X139552538Y-129339675D01*
X139552539Y-129339675D01*
X139555896Y-129339188D01*
X139760698Y-129269666D01*
X139763650Y-129268013D01*
X139763654Y-129268011D01*
X139946443Y-129165645D01*
X139946446Y-129165643D01*
X139949403Y-129163987D01*
X139952008Y-129161820D01*
X139952013Y-129161817D01*
X140113080Y-129027857D01*
X140115688Y-129025688D01*
X140140315Y-128996078D01*
X140251817Y-128862013D01*
X140251820Y-128862008D01*
X140253987Y-128859403D01*
X140307954Y-128763038D01*
X140358011Y-128673654D01*
X140358013Y-128673650D01*
X140359666Y-128670698D01*
X140429188Y-128465896D01*
X140429675Y-128462538D01*
X140459909Y-128254015D01*
X140459910Y-128254007D01*
X140460222Y-128251853D01*
X140461842Y-128190000D01*
X140445150Y-128008343D01*
X140643985Y-128008343D01*
X140646950Y-128040619D01*
X140750909Y-128010022D01*
X140765095Y-128007316D01*
X140970677Y-127988607D01*
X140985119Y-127988707D01*
X141190420Y-128010285D01*
X141204567Y-128013189D01*
X141401767Y-128074232D01*
X141415081Y-128079829D01*
X141596668Y-128178013D01*
X141608641Y-128186089D01*
X141767699Y-128317673D01*
X141777876Y-128327921D01*
X141908347Y-128487894D01*
X141916339Y-128499923D01*
X142013253Y-128682192D01*
X142018757Y-128695545D01*
X142078422Y-128893166D01*
X142081227Y-128907333D01*
X142101371Y-129112779D01*
X142101717Y-129121032D01*
X142101305Y-129150565D01*
X142100728Y-129158808D01*
X142087717Y-129261798D01*
X142232704Y-129164921D01*
X142328463Y-129069162D01*
X142533009Y-128763038D01*
X142603386Y-128409227D01*
X143653423Y-128409227D01*
X143723800Y-128763038D01*
X143928346Y-129069161D01*
X144024106Y-129164921D01*
X144307545Y-129354310D01*
X144486128Y-129356648D01*
X144489520Y-129356771D01*
X144494094Y-129357041D01*
X144497471Y-129357318D01*
X144510939Y-129358734D01*
X144514304Y-129359166D01*
X144518831Y-129359853D01*
X144522165Y-129360437D01*
X144734290Y-129402632D01*
X144737595Y-129403368D01*
X144742041Y-129404466D01*
X144745316Y-129405355D01*
X144758300Y-129409201D01*
X144761521Y-129410236D01*
X144765848Y-129411736D01*
X144769030Y-129412922D01*
X144785784Y-129419606D01*
X145037850Y-129369467D01*
X145343973Y-129164921D01*
X145439733Y-129069161D01*
X145644279Y-128763038D01*
X145714656Y-128409227D01*
X146764693Y-128409227D01*
X146835070Y-128763038D01*
X147039616Y-129069161D01*
X147135376Y-129164921D01*
X147441499Y-129369467D01*
X147795309Y-129439844D01*
X148149119Y-129369467D01*
X148455243Y-129164921D01*
X148551003Y-129069161D01*
X148755549Y-128763038D01*
X148825926Y-128409227D01*
X149875963Y-128409227D01*
X149946340Y-128763038D01*
X150150886Y-129069162D01*
X150246645Y-129164921D01*
X150552769Y-129369467D01*
X150906579Y-129439844D01*
X151260389Y-129369467D01*
X151566513Y-129164921D01*
X151662273Y-129069161D01*
X151866819Y-128763038D01*
X151937196Y-128409227D01*
X151866819Y-128055417D01*
X151662273Y-127749294D01*
X151566513Y-127653534D01*
X151260389Y-127448988D01*
X150906579Y-127378611D01*
X150552769Y-127448988D01*
X150246645Y-127653534D01*
X150150886Y-127749293D01*
X149946340Y-128055417D01*
X149875963Y-128409227D01*
X148825926Y-128409227D01*
X148755549Y-128055417D01*
X148551003Y-127749294D01*
X148455243Y-127653534D01*
X148149119Y-127448988D01*
X147795309Y-127378611D01*
X147441499Y-127448988D01*
X147135376Y-127653534D01*
X147039616Y-127749294D01*
X146835070Y-128055417D01*
X146764693Y-128409227D01*
X145714656Y-128409227D01*
X145644279Y-128055417D01*
X145439733Y-127749294D01*
X145343973Y-127653534D01*
X145037850Y-127448988D01*
X144684040Y-127378611D01*
X144330229Y-127448988D01*
X144024106Y-127653534D01*
X143928346Y-127749294D01*
X143723800Y-128055417D01*
X143653423Y-128409227D01*
X142603386Y-128409227D01*
X142533009Y-128055417D01*
X142328463Y-127749293D01*
X142232704Y-127653534D01*
X141926580Y-127448988D01*
X141572770Y-127378611D01*
X141218960Y-127448988D01*
X140912836Y-127653534D01*
X140817076Y-127749294D01*
X140643985Y-128008343D01*
X140445150Y-128008343D01*
X140442052Y-127974626D01*
X140441133Y-127971368D01*
X140441132Y-127971362D01*
X140384266Y-127769731D01*
X140384265Y-127769729D01*
X140383345Y-127766466D01*
X140287686Y-127572489D01*
X140270390Y-127549326D01*
X140160312Y-127401914D01*
X140160311Y-127401913D01*
X140158280Y-127399193D01*
X140155789Y-127396890D01*
X140155786Y-127396887D01*
X140001952Y-127254685D01*
X140001948Y-127254682D01*
X139999460Y-127252382D01*
X139816545Y-127136971D01*
X139813407Y-127135719D01*
X139813401Y-127135716D01*
X139618815Y-127058085D01*
X139618812Y-127058084D01*
X139615661Y-127056827D01*
X139612334Y-127056165D01*
X139612330Y-127056164D01*
X139406860Y-127015293D01*
X139406858Y-127015293D01*
X139403536Y-127014632D01*
X139308358Y-127013386D01*
X139190667Y-127011845D01*
X139190662Y-127011845D01*
X139187274Y-127011801D01*
X139183928Y-127012376D01*
X139183927Y-127012376D01*
X139124049Y-127022665D01*
X138974117Y-127048428D01*
X138771204Y-127123287D01*
X138585331Y-127233870D01*
X138582787Y-127236101D01*
X138582783Y-127236104D01*
X138432792Y-127367643D01*
X138385614Y-127385989D01*
X138337682Y-127369718D01*
X138311422Y-127326444D01*
X138310000Y-127312007D01*
X138310000Y-126853593D01*
X142097788Y-126853593D01*
X142168165Y-127207403D01*
X142372711Y-127513526D01*
X142468471Y-127609286D01*
X142774595Y-127813832D01*
X143128405Y-127884209D01*
X143482215Y-127813832D01*
X143788338Y-127609286D01*
X143884098Y-127513526D01*
X144088644Y-127207403D01*
X144159021Y-126853593D01*
X145209058Y-126853593D01*
X145279435Y-127207403D01*
X145483981Y-127513526D01*
X145579741Y-127609286D01*
X145885864Y-127813832D01*
X146239674Y-127884209D01*
X146593485Y-127813832D01*
X146899608Y-127609286D01*
X146995368Y-127513526D01*
X147199914Y-127207403D01*
X147270291Y-126853593D01*
X148320328Y-126853593D01*
X148390705Y-127207403D01*
X148595251Y-127513526D01*
X148691011Y-127609286D01*
X148997134Y-127813832D01*
X149350944Y-127884209D01*
X149704754Y-127813832D01*
X150010878Y-127609286D01*
X150106638Y-127513526D01*
X150311184Y-127207403D01*
X150381561Y-126853593D01*
X151431598Y-126853593D01*
X151501975Y-127207403D01*
X151706521Y-127513527D01*
X151802280Y-127609286D01*
X152108404Y-127813832D01*
X152462214Y-127884209D01*
X152816024Y-127813832D01*
X153122148Y-127609286D01*
X153217908Y-127513526D01*
X153422454Y-127207403D01*
X153492830Y-126853593D01*
X153422454Y-126499782D01*
X153217908Y-126193659D01*
X153122148Y-126097899D01*
X152816024Y-125893353D01*
X152462214Y-125822976D01*
X152108404Y-125893353D01*
X151802280Y-126097899D01*
X151706521Y-126193658D01*
X151501975Y-126499782D01*
X151431598Y-126853593D01*
X150381561Y-126853593D01*
X150311184Y-126499782D01*
X150106638Y-126193659D01*
X150010878Y-126097899D01*
X149704754Y-125893353D01*
X149350944Y-125822976D01*
X148997134Y-125893353D01*
X148691011Y-126097899D01*
X148595251Y-126193659D01*
X148390705Y-126499782D01*
X148320328Y-126853593D01*
X147270291Y-126853593D01*
X147199914Y-126499782D01*
X146995368Y-126193659D01*
X146899608Y-126097899D01*
X146593485Y-125893353D01*
X146239674Y-125822976D01*
X145885864Y-125893353D01*
X145579741Y-126097899D01*
X145483981Y-126193659D01*
X145279435Y-126499782D01*
X145209058Y-126853593D01*
X144159021Y-126853593D01*
X144088644Y-126499782D01*
X143884098Y-126193659D01*
X143788338Y-126097899D01*
X143482215Y-125893353D01*
X143128405Y-125822976D01*
X142774595Y-125893353D01*
X142468471Y-126097899D01*
X142372711Y-126193659D01*
X142168165Y-126499782D01*
X142097788Y-126853593D01*
X138310000Y-126853593D01*
X138310000Y-126523463D01*
X138327313Y-126475897D01*
X138371150Y-126450587D01*
X138421000Y-126459377D01*
X138435635Y-126470456D01*
X138536243Y-126568464D01*
X138539062Y-126570348D01*
X138539065Y-126570350D01*
X138713252Y-126686738D01*
X138713257Y-126686741D01*
X138716074Y-126688623D01*
X138719194Y-126689963D01*
X138719195Y-126689964D01*
X138911671Y-126772659D01*
X138911675Y-126772660D01*
X138914791Y-126773999D01*
X139021295Y-126798098D01*
X139122423Y-126820981D01*
X139122426Y-126820981D01*
X139125739Y-126821731D01*
X139233796Y-126825976D01*
X139338458Y-126830089D01*
X139338462Y-126830089D01*
X139341853Y-126830222D01*
X139484340Y-126809563D01*
X139552538Y-126799675D01*
X139552539Y-126799675D01*
X139555896Y-126799188D01*
X139760698Y-126729666D01*
X139763650Y-126728013D01*
X139763654Y-126728011D01*
X139946443Y-126625645D01*
X139946446Y-126625643D01*
X139949403Y-126623987D01*
X139952008Y-126621820D01*
X139952013Y-126621817D01*
X140113080Y-126487857D01*
X140115688Y-126485688D01*
X140140315Y-126456078D01*
X140251817Y-126322013D01*
X140251820Y-126322008D01*
X140253987Y-126319403D01*
X140299659Y-126237849D01*
X140358011Y-126133654D01*
X140358013Y-126133650D01*
X140359666Y-126130698D01*
X140429188Y-125925896D01*
X140429675Y-125922538D01*
X140459909Y-125714015D01*
X140459910Y-125714007D01*
X140460222Y-125711853D01*
X140461842Y-125650000D01*
X140442052Y-125434626D01*
X140441133Y-125431368D01*
X140441132Y-125431362D01*
X140384266Y-125229731D01*
X140384265Y-125229729D01*
X140383345Y-125226466D01*
X140350574Y-125160014D01*
X140569592Y-125160014D01*
X140570331Y-125161940D01*
X140571473Y-125165132D01*
X140572917Y-125169479D01*
X140573912Y-125172720D01*
X140632619Y-125380880D01*
X140633464Y-125384162D01*
X140634504Y-125388622D01*
X140635198Y-125391941D01*
X140637666Y-125405257D01*
X140638208Y-125408613D01*
X140638835Y-125413150D01*
X140639222Y-125416509D01*
X140659012Y-125631883D01*
X140659179Y-125634055D01*
X140659362Y-125636994D01*
X140659465Y-125639172D01*
X140659750Y-125647880D01*
X140659790Y-125650050D01*
X140659800Y-125652995D01*
X140659775Y-125655183D01*
X140658155Y-125717036D01*
X140658065Y-125719216D01*
X140658029Y-125719861D01*
X140817076Y-125957891D01*
X140912836Y-126053651D01*
X141218960Y-126258197D01*
X141572770Y-126328574D01*
X141926580Y-126258197D01*
X142232704Y-126053651D01*
X142328463Y-125957892D01*
X142533009Y-125651768D01*
X142603386Y-125297958D01*
X143653423Y-125297958D01*
X143723800Y-125651768D01*
X143928346Y-125957891D01*
X144024106Y-126053651D01*
X144330229Y-126258197D01*
X144684040Y-126328574D01*
X145037850Y-126258197D01*
X145343973Y-126053651D01*
X145439733Y-125957891D01*
X145644279Y-125651768D01*
X145714656Y-125297958D01*
X146764693Y-125297958D01*
X146835070Y-125651768D01*
X147039616Y-125957891D01*
X147135376Y-126053651D01*
X147441499Y-126258197D01*
X147795309Y-126328574D01*
X148149119Y-126258197D01*
X148455243Y-126053651D01*
X148551003Y-125957891D01*
X148755549Y-125651768D01*
X148825926Y-125297958D01*
X149875963Y-125297958D01*
X149946340Y-125651768D01*
X150150886Y-125957892D01*
X150246645Y-126053651D01*
X150552769Y-126258197D01*
X150906579Y-126328574D01*
X151260389Y-126258197D01*
X151566513Y-126053651D01*
X151662273Y-125957891D01*
X151866819Y-125651768D01*
X151937196Y-125297958D01*
X151866819Y-124944148D01*
X151662273Y-124638024D01*
X151566513Y-124542264D01*
X151260389Y-124337718D01*
X150906579Y-124267341D01*
X150552769Y-124337718D01*
X150246645Y-124542264D01*
X150150886Y-124638023D01*
X149946340Y-124944148D01*
X149875963Y-125297958D01*
X148825926Y-125297958D01*
X148755549Y-124944148D01*
X148551003Y-124638024D01*
X148455243Y-124542264D01*
X148149119Y-124337718D01*
X147795309Y-124267341D01*
X147441499Y-124337718D01*
X147135376Y-124542264D01*
X147039616Y-124638024D01*
X146835070Y-124944148D01*
X146764693Y-125297958D01*
X145714656Y-125297958D01*
X145644279Y-124944148D01*
X145439733Y-124638024D01*
X145343973Y-124542264D01*
X145037850Y-124337718D01*
X144684040Y-124267341D01*
X144330229Y-124337718D01*
X144024106Y-124542264D01*
X143928346Y-124638024D01*
X143723800Y-124944148D01*
X143653423Y-125297958D01*
X142603386Y-125297958D01*
X142533009Y-124944148D01*
X142328463Y-124638023D01*
X142232704Y-124542264D01*
X141926580Y-124337718D01*
X141572770Y-124267341D01*
X141218960Y-124337718D01*
X140912836Y-124542264D01*
X140817076Y-124638024D01*
X140612530Y-124944148D01*
X140569592Y-125160014D01*
X140350574Y-125160014D01*
X140287686Y-125032489D01*
X140270390Y-125009326D01*
X140160312Y-124861914D01*
X140160311Y-124861913D01*
X140158280Y-124859193D01*
X140155789Y-124856890D01*
X140155786Y-124856887D01*
X140001952Y-124714685D01*
X140001948Y-124714682D01*
X139999460Y-124712382D01*
X139881610Y-124638024D01*
X139819406Y-124598776D01*
X139819405Y-124598775D01*
X139816545Y-124596971D01*
X139813407Y-124595719D01*
X139813401Y-124595716D01*
X139618815Y-124518085D01*
X139618812Y-124518084D01*
X139615661Y-124516827D01*
X139612334Y-124516165D01*
X139612330Y-124516164D01*
X139406860Y-124475293D01*
X139406858Y-124475293D01*
X139403536Y-124474632D01*
X139308358Y-124473386D01*
X139190667Y-124471845D01*
X139190662Y-124471845D01*
X139187274Y-124471801D01*
X139183928Y-124472376D01*
X139183927Y-124472376D01*
X139124049Y-124482665D01*
X138974117Y-124508428D01*
X138771204Y-124583287D01*
X138585331Y-124693870D01*
X138582787Y-124696101D01*
X138582783Y-124696104D01*
X138432792Y-124827643D01*
X138385614Y-124845989D01*
X138337682Y-124829718D01*
X138311422Y-124786444D01*
X138310000Y-124772007D01*
X138310000Y-123983463D01*
X138327313Y-123935897D01*
X138371150Y-123910587D01*
X138421000Y-123919377D01*
X138435635Y-123930456D01*
X138536243Y-124028464D01*
X138539062Y-124030348D01*
X138539065Y-124030350D01*
X138713252Y-124146738D01*
X138713257Y-124146741D01*
X138716074Y-124148623D01*
X138719194Y-124149963D01*
X138719195Y-124149964D01*
X138911671Y-124232659D01*
X138911675Y-124232660D01*
X138914791Y-124233999D01*
X139021295Y-124258098D01*
X139122423Y-124280981D01*
X139122426Y-124280981D01*
X139125739Y-124281731D01*
X139233796Y-124285976D01*
X139338458Y-124290089D01*
X139338462Y-124290089D01*
X139341853Y-124290222D01*
X139484340Y-124269563D01*
X139552538Y-124259675D01*
X139552539Y-124259675D01*
X139555896Y-124259188D01*
X139760698Y-124189666D01*
X139763650Y-124188013D01*
X139763654Y-124188011D01*
X139946443Y-124085645D01*
X139946446Y-124085643D01*
X139949403Y-124083987D01*
X139952008Y-124081820D01*
X139952013Y-124081817D01*
X140113080Y-123947857D01*
X140115688Y-123945688D01*
X140140315Y-123916078D01*
X140251817Y-123782013D01*
X140251820Y-123782008D01*
X140253987Y-123779403D01*
X140274753Y-123742323D01*
X142097788Y-123742323D01*
X142168165Y-124096133D01*
X142372711Y-124402256D01*
X142468471Y-124498016D01*
X142774595Y-124702562D01*
X143128405Y-124772939D01*
X143482215Y-124702562D01*
X143788338Y-124498016D01*
X143884098Y-124402256D01*
X144088644Y-124096133D01*
X144159021Y-123742323D01*
X145209058Y-123742323D01*
X145279435Y-124096133D01*
X145483981Y-124402256D01*
X145579741Y-124498016D01*
X145885864Y-124702562D01*
X146239674Y-124772939D01*
X146593485Y-124702562D01*
X146899608Y-124498016D01*
X146995368Y-124402256D01*
X147199914Y-124096133D01*
X147270291Y-123742323D01*
X148320328Y-123742323D01*
X148390705Y-124096133D01*
X148595251Y-124402256D01*
X148691011Y-124498016D01*
X148997134Y-124702562D01*
X149350944Y-124772939D01*
X149704754Y-124702562D01*
X150010878Y-124498016D01*
X150106638Y-124402256D01*
X150311184Y-124096133D01*
X150381561Y-123742323D01*
X151431598Y-123742323D01*
X151501975Y-124096133D01*
X151706521Y-124402257D01*
X151802280Y-124498016D01*
X152108404Y-124702562D01*
X152462214Y-124772939D01*
X152816024Y-124702562D01*
X153122148Y-124498016D01*
X153217908Y-124402256D01*
X153422454Y-124096133D01*
X153446809Y-123973688D01*
X153334799Y-123815196D01*
X153332914Y-123812394D01*
X153330444Y-123808537D01*
X153328675Y-123805629D01*
X153321904Y-123793901D01*
X153320271Y-123790917D01*
X153318166Y-123786850D01*
X153316682Y-123783816D01*
X153226134Y-123587402D01*
X153224783Y-123584285D01*
X153223058Y-123580041D01*
X153221856Y-123576877D01*
X153217336Y-123564112D01*
X153216283Y-123560908D01*
X153214953Y-123556527D01*
X153214039Y-123553247D01*
X153160800Y-123343621D01*
X153160039Y-123340306D01*
X153159117Y-123335821D01*
X153158512Y-123332499D01*
X153156393Y-123319123D01*
X153155940Y-123315766D01*
X153155431Y-123311213D01*
X153155131Y-123307831D01*
X153140986Y-123092013D01*
X153140842Y-123088627D01*
X153140752Y-123084046D01*
X153140763Y-123080652D01*
X153141118Y-123067114D01*
X153141286Y-123063720D01*
X153141616Y-123059154D01*
X153141936Y-123055790D01*
X153147161Y-123011642D01*
X153122148Y-122986629D01*
X152816024Y-122782083D01*
X152462214Y-122711706D01*
X152108404Y-122782083D01*
X151802280Y-122986629D01*
X151706521Y-123082388D01*
X151501975Y-123388513D01*
X151431598Y-123742323D01*
X150381561Y-123742323D01*
X150311184Y-123388513D01*
X150106638Y-123082389D01*
X150010878Y-122986629D01*
X149704754Y-122782083D01*
X149350944Y-122711706D01*
X148997134Y-122782083D01*
X148691011Y-122986629D01*
X148595251Y-123082389D01*
X148390705Y-123388513D01*
X148320328Y-123742323D01*
X147270291Y-123742323D01*
X147199914Y-123388513D01*
X146995368Y-123082389D01*
X146899608Y-122986629D01*
X146593485Y-122782083D01*
X146239674Y-122711706D01*
X145885864Y-122782083D01*
X145579741Y-122986629D01*
X145483981Y-123082389D01*
X145279435Y-123388513D01*
X145209058Y-123742323D01*
X144159021Y-123742323D01*
X144088644Y-123388513D01*
X143884098Y-123082389D01*
X143788338Y-122986629D01*
X143482215Y-122782083D01*
X143128405Y-122711706D01*
X142774595Y-122782083D01*
X142468471Y-122986629D01*
X142372711Y-123082389D01*
X142168165Y-123388513D01*
X142097788Y-123742323D01*
X140274753Y-123742323D01*
X140359666Y-123590698D01*
X140429188Y-123385896D01*
X140429675Y-123382538D01*
X140459909Y-123174015D01*
X140459910Y-123174007D01*
X140460222Y-123171853D01*
X140461842Y-123110000D01*
X140457590Y-123063720D01*
X140442362Y-122898003D01*
X140442052Y-122894626D01*
X140441133Y-122891368D01*
X140441132Y-122891362D01*
X140384266Y-122689731D01*
X140384265Y-122689729D01*
X140383345Y-122686466D01*
X140287686Y-122492489D01*
X140270390Y-122469326D01*
X140160312Y-122321914D01*
X140160311Y-122321913D01*
X140158280Y-122319193D01*
X140155789Y-122316890D01*
X140155786Y-122316887D01*
X140014937Y-122186688D01*
X140542153Y-122186688D01*
X140612530Y-122540498D01*
X140817076Y-122846622D01*
X140912835Y-122942381D01*
X141218960Y-123146927D01*
X141572770Y-123217304D01*
X141926580Y-123146927D01*
X142232705Y-122942381D01*
X142328463Y-122846623D01*
X142533009Y-122540498D01*
X142603386Y-122186688D01*
X143653423Y-122186688D01*
X143723800Y-122540498D01*
X143928346Y-122846622D01*
X144024105Y-122942381D01*
X144330229Y-123146927D01*
X144684040Y-123217304D01*
X145037850Y-123146927D01*
X145343974Y-122942381D01*
X145439733Y-122846622D01*
X145644279Y-122540498D01*
X145714656Y-122186688D01*
X146764693Y-122186688D01*
X146835070Y-122540498D01*
X147039616Y-122846622D01*
X147135375Y-122942381D01*
X147441499Y-123146927D01*
X147795309Y-123217304D01*
X148149119Y-123146927D01*
X148455244Y-122942381D01*
X148551003Y-122846622D01*
X148755549Y-122540498D01*
X148825926Y-122186688D01*
X149875963Y-122186688D01*
X149946340Y-122540498D01*
X150150886Y-122846623D01*
X150246644Y-122942381D01*
X150552769Y-123146927D01*
X150906579Y-123217304D01*
X151260389Y-123146927D01*
X151566514Y-122942381D01*
X151662273Y-122846622D01*
X151866819Y-122540498D01*
X151937196Y-122186688D01*
X151866819Y-121832878D01*
X151662273Y-121526754D01*
X151566513Y-121430994D01*
X151260389Y-121226448D01*
X150906579Y-121156071D01*
X150552769Y-121226448D01*
X150246645Y-121430994D01*
X150150886Y-121526753D01*
X149946340Y-121832878D01*
X149875963Y-122186688D01*
X148825926Y-122186688D01*
X148755549Y-121832878D01*
X148551003Y-121526754D01*
X148455243Y-121430994D01*
X148149119Y-121226448D01*
X147795309Y-121156071D01*
X147441499Y-121226448D01*
X147135376Y-121430994D01*
X147039616Y-121526754D01*
X146835070Y-121832878D01*
X146764693Y-122186688D01*
X145714656Y-122186688D01*
X145644279Y-121832878D01*
X145439733Y-121526754D01*
X145343973Y-121430994D01*
X145037850Y-121226448D01*
X144684040Y-121156071D01*
X144330229Y-121226448D01*
X144024106Y-121430994D01*
X143928346Y-121526754D01*
X143723800Y-121832878D01*
X143653423Y-122186688D01*
X142603386Y-122186688D01*
X142533009Y-121832878D01*
X142328463Y-121526753D01*
X142232704Y-121430994D01*
X141926580Y-121226448D01*
X141572770Y-121156071D01*
X141218960Y-121226448D01*
X140912836Y-121430994D01*
X140817076Y-121526754D01*
X140612530Y-121832878D01*
X140542153Y-122186688D01*
X140014937Y-122186688D01*
X140001952Y-122174685D01*
X140001948Y-122174682D01*
X139999460Y-122172382D01*
X139816545Y-122056971D01*
X139813407Y-122055719D01*
X139813401Y-122055716D01*
X139618815Y-121978085D01*
X139618812Y-121978084D01*
X139615661Y-121976827D01*
X139612334Y-121976165D01*
X139612330Y-121976164D01*
X139406860Y-121935293D01*
X139406858Y-121935293D01*
X139403536Y-121934632D01*
X139308358Y-121933386D01*
X139190667Y-121931845D01*
X139190662Y-121931845D01*
X139187274Y-121931801D01*
X139183928Y-121932376D01*
X139183927Y-121932376D01*
X139124049Y-121942665D01*
X138974117Y-121968428D01*
X138771204Y-122043287D01*
X138585331Y-122153870D01*
X138582787Y-122156101D01*
X138582783Y-122156104D01*
X138432792Y-122287643D01*
X138385614Y-122305989D01*
X138337682Y-122289718D01*
X138311422Y-122246444D01*
X138310000Y-122232007D01*
X138310000Y-121443463D01*
X138327313Y-121395897D01*
X138371150Y-121370587D01*
X138421000Y-121379377D01*
X138435635Y-121390456D01*
X138536243Y-121488464D01*
X138539062Y-121490348D01*
X138539065Y-121490350D01*
X138713252Y-121606738D01*
X138713257Y-121606741D01*
X138716074Y-121608623D01*
X138719194Y-121609963D01*
X138719195Y-121609964D01*
X138911671Y-121692659D01*
X138911675Y-121692660D01*
X138914791Y-121693999D01*
X139021295Y-121718098D01*
X139122423Y-121740981D01*
X139122426Y-121740981D01*
X139125739Y-121741731D01*
X139233796Y-121745977D01*
X139338458Y-121750089D01*
X139338462Y-121750089D01*
X139341853Y-121750222D01*
X139484340Y-121729563D01*
X139552538Y-121719675D01*
X139552539Y-121719675D01*
X139555896Y-121719188D01*
X139760698Y-121649666D01*
X139763650Y-121648013D01*
X139763654Y-121648011D01*
X139946443Y-121545645D01*
X139946446Y-121545643D01*
X139949403Y-121543987D01*
X139952008Y-121541820D01*
X139952013Y-121541817D01*
X140113080Y-121407857D01*
X140115688Y-121405688D01*
X140140315Y-121376078D01*
X140251817Y-121242013D01*
X140251820Y-121242008D01*
X140253987Y-121239403D01*
X140359666Y-121050698D01*
X140429188Y-120845896D01*
X140429675Y-120842538D01*
X140459909Y-120634015D01*
X140459910Y-120634007D01*
X140460222Y-120631853D01*
X140460243Y-120631053D01*
X142097788Y-120631053D01*
X142168165Y-120984863D01*
X142372711Y-121290987D01*
X142468470Y-121386746D01*
X142774595Y-121591292D01*
X143128405Y-121661669D01*
X143482215Y-121591292D01*
X143788339Y-121386746D01*
X143884098Y-121290987D01*
X144088644Y-120984863D01*
X144159021Y-120631053D01*
X145209058Y-120631053D01*
X145279435Y-120984863D01*
X145483981Y-121290987D01*
X145579740Y-121386746D01*
X145885864Y-121591292D01*
X146239674Y-121661669D01*
X146593485Y-121591292D01*
X146899609Y-121386746D01*
X146995368Y-121290987D01*
X147199914Y-120984863D01*
X147270291Y-120631053D01*
X148320328Y-120631053D01*
X148390705Y-120984863D01*
X148595251Y-121290987D01*
X148691010Y-121386746D01*
X148997134Y-121591292D01*
X149350944Y-121661669D01*
X149704754Y-121591292D01*
X150010879Y-121386746D01*
X150106638Y-121290987D01*
X150311184Y-120984863D01*
X150381561Y-120631053D01*
X151431598Y-120631053D01*
X151501975Y-120984863D01*
X151706521Y-121290988D01*
X151802279Y-121386746D01*
X152108404Y-121591292D01*
X152462214Y-121661669D01*
X152816024Y-121591292D01*
X153122149Y-121386746D01*
X153217907Y-121290988D01*
X153289224Y-121184255D01*
X153226134Y-121047402D01*
X153224783Y-121044285D01*
X153223058Y-121040041D01*
X153221856Y-121036877D01*
X153217336Y-121024112D01*
X153216283Y-121020908D01*
X153214953Y-121016527D01*
X153214039Y-121013247D01*
X153160800Y-120803621D01*
X153160039Y-120800306D01*
X153159117Y-120795821D01*
X153158512Y-120792499D01*
X153156393Y-120779123D01*
X153155940Y-120775766D01*
X153155431Y-120771213D01*
X153155131Y-120767831D01*
X153140986Y-120552013D01*
X153140842Y-120548627D01*
X153140752Y-120544046D01*
X153140763Y-120540652D01*
X153141118Y-120527114D01*
X153141286Y-120523720D01*
X153141616Y-120519154D01*
X153141936Y-120515790D01*
X153167357Y-120301008D01*
X153167832Y-120297656D01*
X153168578Y-120293136D01*
X153169208Y-120289798D01*
X153172024Y-120276552D01*
X153172804Y-120273256D01*
X153173960Y-120268826D01*
X153174891Y-120265566D01*
X153239027Y-120059014D01*
X153240104Y-120055804D01*
X153241660Y-120051499D01*
X153242886Y-120048337D01*
X153248068Y-120035825D01*
X153249439Y-120032718D01*
X153251385Y-120028569D01*
X153252893Y-120025537D01*
X153253499Y-120024385D01*
X153217908Y-119971119D01*
X153122148Y-119875359D01*
X152816024Y-119670813D01*
X152462214Y-119600437D01*
X152108404Y-119670813D01*
X151802280Y-119875359D01*
X151706521Y-119971118D01*
X151501975Y-120277243D01*
X151431598Y-120631053D01*
X150381561Y-120631053D01*
X150311184Y-120277243D01*
X150106638Y-119971119D01*
X150010878Y-119875359D01*
X149704754Y-119670813D01*
X149350944Y-119600437D01*
X148997134Y-119670813D01*
X148691011Y-119875359D01*
X148595251Y-119971119D01*
X148390705Y-120277243D01*
X148320328Y-120631053D01*
X147270291Y-120631053D01*
X147199914Y-120277243D01*
X146995368Y-119971119D01*
X146899608Y-119875359D01*
X146593485Y-119670813D01*
X146239674Y-119600437D01*
X145885864Y-119670813D01*
X145579741Y-119875359D01*
X145483981Y-119971119D01*
X145279435Y-120277243D01*
X145209058Y-120631053D01*
X144159021Y-120631053D01*
X144088644Y-120277243D01*
X143884098Y-119971119D01*
X143788338Y-119875359D01*
X143482215Y-119670813D01*
X143128405Y-119600437D01*
X142774595Y-119670813D01*
X142468471Y-119875359D01*
X142372711Y-119971119D01*
X142168165Y-120277243D01*
X142097788Y-120631053D01*
X140460243Y-120631053D01*
X140461842Y-120570000D01*
X140457590Y-120523720D01*
X140442362Y-120358003D01*
X140442052Y-120354626D01*
X140441133Y-120351368D01*
X140441132Y-120351362D01*
X140384266Y-120149731D01*
X140384265Y-120149729D01*
X140383345Y-120146466D01*
X140287686Y-119952489D01*
X140270390Y-119929326D01*
X140160312Y-119781914D01*
X140160311Y-119781913D01*
X140158280Y-119779193D01*
X140155789Y-119776890D01*
X140155786Y-119776887D01*
X140001952Y-119634685D01*
X140001948Y-119634682D01*
X139999460Y-119632382D01*
X139816545Y-119516971D01*
X139813407Y-119515719D01*
X139813401Y-119515716D01*
X139618815Y-119438085D01*
X139618812Y-119438084D01*
X139615661Y-119436827D01*
X139612334Y-119436165D01*
X139612330Y-119436164D01*
X139406860Y-119395293D01*
X139406858Y-119395293D01*
X139403536Y-119394632D01*
X139308358Y-119393386D01*
X139190667Y-119391845D01*
X139190662Y-119391845D01*
X139187274Y-119391801D01*
X139183928Y-119392376D01*
X139183927Y-119392376D01*
X139124049Y-119402665D01*
X138974117Y-119428428D01*
X138771204Y-119503287D01*
X138585331Y-119613870D01*
X138582787Y-119616101D01*
X138582783Y-119616104D01*
X138432792Y-119747643D01*
X138385614Y-119765989D01*
X138337682Y-119749718D01*
X138311422Y-119706444D01*
X138310000Y-119692007D01*
X138310000Y-118903463D01*
X138327313Y-118855897D01*
X138371150Y-118830587D01*
X138421000Y-118839377D01*
X138435635Y-118850456D01*
X138536243Y-118948464D01*
X138539062Y-118950348D01*
X138539065Y-118950350D01*
X138713252Y-119066738D01*
X138713257Y-119066741D01*
X138716074Y-119068623D01*
X138719194Y-119069963D01*
X138719195Y-119069964D01*
X138911671Y-119152659D01*
X138911675Y-119152660D01*
X138914791Y-119153999D01*
X139021295Y-119178098D01*
X139122423Y-119200981D01*
X139122426Y-119200981D01*
X139125739Y-119201731D01*
X139233796Y-119205977D01*
X139338458Y-119210089D01*
X139338462Y-119210089D01*
X139341853Y-119210222D01*
X139484340Y-119189563D01*
X139552538Y-119179675D01*
X139552539Y-119179675D01*
X139555896Y-119179188D01*
X139760698Y-119109666D01*
X139763650Y-119108013D01*
X139763654Y-119108011D01*
X139821853Y-119075418D01*
X140542153Y-119075418D01*
X140612530Y-119429228D01*
X140817076Y-119735352D01*
X140912836Y-119831112D01*
X141218960Y-120035658D01*
X141572770Y-120106034D01*
X141926580Y-120035658D01*
X142232704Y-119831112D01*
X142328463Y-119735353D01*
X142533009Y-119429228D01*
X142603386Y-119075418D01*
X143653423Y-119075418D01*
X143723800Y-119429228D01*
X143928346Y-119735352D01*
X144024106Y-119831112D01*
X144330229Y-120035658D01*
X144684040Y-120106034D01*
X145037850Y-120035658D01*
X145343973Y-119831112D01*
X145439733Y-119735352D01*
X145644279Y-119429228D01*
X145714656Y-119075418D01*
X146764693Y-119075418D01*
X146835070Y-119429228D01*
X147039616Y-119735352D01*
X147135376Y-119831112D01*
X147441499Y-120035658D01*
X147795309Y-120106034D01*
X148149119Y-120035658D01*
X148455243Y-119831112D01*
X148551003Y-119735352D01*
X148755549Y-119429228D01*
X148825926Y-119075418D01*
X149875963Y-119075418D01*
X149946340Y-119429228D01*
X150150886Y-119735353D01*
X150246645Y-119831112D01*
X150552769Y-120035658D01*
X150906579Y-120106034D01*
X151260389Y-120035658D01*
X151566513Y-119831112D01*
X151662273Y-119735352D01*
X151866819Y-119429228D01*
X151937196Y-119075418D01*
X151866819Y-118721608D01*
X151662273Y-118415484D01*
X151566513Y-118319724D01*
X151260389Y-118115178D01*
X150906579Y-118044802D01*
X150552769Y-118115178D01*
X150246645Y-118319724D01*
X150150886Y-118415483D01*
X149946340Y-118721608D01*
X149875963Y-119075418D01*
X148825926Y-119075418D01*
X148755549Y-118721608D01*
X148551003Y-118415484D01*
X148455243Y-118319724D01*
X148149119Y-118115178D01*
X147795309Y-118044802D01*
X147441499Y-118115178D01*
X147135376Y-118319724D01*
X147039616Y-118415484D01*
X146835070Y-118721608D01*
X146764693Y-119075418D01*
X145714656Y-119075418D01*
X145644279Y-118721608D01*
X145439733Y-118415484D01*
X145343973Y-118319724D01*
X145037850Y-118115178D01*
X144684040Y-118044802D01*
X144330229Y-118115178D01*
X144024106Y-118319724D01*
X143928346Y-118415484D01*
X143723800Y-118721608D01*
X143653423Y-119075418D01*
X142603386Y-119075418D01*
X142533009Y-118721608D01*
X142328463Y-118415483D01*
X142232704Y-118319724D01*
X141926580Y-118115178D01*
X141572770Y-118044802D01*
X141218960Y-118115178D01*
X140912836Y-118319724D01*
X140817076Y-118415484D01*
X140612530Y-118721608D01*
X140542153Y-119075418D01*
X139821853Y-119075418D01*
X139946443Y-119005645D01*
X139946446Y-119005643D01*
X139949403Y-119003987D01*
X139952008Y-119001820D01*
X139952013Y-119001817D01*
X140113080Y-118867857D01*
X140115688Y-118865688D01*
X140140315Y-118836078D01*
X140251817Y-118702013D01*
X140251820Y-118702008D01*
X140253987Y-118699403D01*
X140359666Y-118510698D01*
X140429188Y-118305896D01*
X140429675Y-118302538D01*
X140459909Y-118094015D01*
X140459910Y-118094007D01*
X140460222Y-118091853D01*
X140461842Y-118030000D01*
X140457590Y-117983720D01*
X140442362Y-117818003D01*
X140442052Y-117814626D01*
X140441133Y-117811368D01*
X140441132Y-117811362D01*
X140384266Y-117609731D01*
X140384265Y-117609729D01*
X140383345Y-117606466D01*
X140340598Y-117519783D01*
X142097788Y-117519783D01*
X142168165Y-117873593D01*
X142372711Y-118179717D01*
X142468471Y-118275477D01*
X142774595Y-118480023D01*
X143128405Y-118550399D01*
X143482215Y-118480023D01*
X143788338Y-118275477D01*
X143884098Y-118179717D01*
X144088644Y-117873593D01*
X144159021Y-117519783D01*
X145209058Y-117519783D01*
X145279435Y-117873593D01*
X145483981Y-118179717D01*
X145579741Y-118275477D01*
X145885864Y-118480023D01*
X146239674Y-118550399D01*
X146593485Y-118480023D01*
X146899608Y-118275477D01*
X146995368Y-118179717D01*
X147199914Y-117873593D01*
X147270291Y-117519783D01*
X148320328Y-117519783D01*
X148390705Y-117873593D01*
X148595251Y-118179717D01*
X148691011Y-118275477D01*
X148997134Y-118480023D01*
X149350944Y-118550399D01*
X149704754Y-118480023D01*
X150010878Y-118275477D01*
X150106638Y-118179717D01*
X150311184Y-117873593D01*
X150381561Y-117519783D01*
X151431598Y-117519783D01*
X151501975Y-117873593D01*
X151706521Y-118179718D01*
X151802280Y-118275477D01*
X152108404Y-118480023D01*
X152462214Y-118550399D01*
X152816024Y-118480023D01*
X153122148Y-118275477D01*
X153156681Y-118240944D01*
X153156393Y-118239123D01*
X153155940Y-118235766D01*
X153155431Y-118231213D01*
X153155131Y-118227831D01*
X153140986Y-118012013D01*
X153140842Y-118008627D01*
X153140752Y-118004046D01*
X153140763Y-118000652D01*
X153141118Y-117987114D01*
X153141286Y-117983720D01*
X153141616Y-117979154D01*
X153141936Y-117975790D01*
X153167357Y-117761008D01*
X153167832Y-117757656D01*
X153168578Y-117753136D01*
X153169208Y-117749798D01*
X153172024Y-117736552D01*
X153172804Y-117733256D01*
X153173960Y-117728826D01*
X153174891Y-117725566D01*
X153239027Y-117519014D01*
X153240104Y-117515804D01*
X153241660Y-117511499D01*
X153242886Y-117508337D01*
X153248068Y-117495825D01*
X153249439Y-117492718D01*
X153251385Y-117488569D01*
X153252893Y-117485536D01*
X153353597Y-117294130D01*
X153355244Y-117291166D01*
X153357561Y-117287213D01*
X153359343Y-117284327D01*
X153366719Y-117272970D01*
X153368625Y-117270177D01*
X153371291Y-117266456D01*
X153373331Y-117263742D01*
X153428085Y-117194286D01*
X153422454Y-117165973D01*
X153217908Y-116859849D01*
X153122148Y-116764089D01*
X152816024Y-116559543D01*
X152462214Y-116489167D01*
X152108404Y-116559543D01*
X151802280Y-116764089D01*
X151706521Y-116859848D01*
X151501975Y-117165973D01*
X151431598Y-117519783D01*
X150381561Y-117519783D01*
X150311184Y-117165973D01*
X150106638Y-116859849D01*
X150010878Y-116764089D01*
X149704754Y-116559543D01*
X149350944Y-116489167D01*
X148997134Y-116559543D01*
X148691011Y-116764089D01*
X148595251Y-116859849D01*
X148390705Y-117165973D01*
X148320328Y-117519783D01*
X147270291Y-117519783D01*
X147199914Y-117165973D01*
X146995368Y-116859849D01*
X146899608Y-116764089D01*
X146593485Y-116559543D01*
X146239674Y-116489167D01*
X145885864Y-116559543D01*
X145579741Y-116764089D01*
X145483981Y-116859849D01*
X145279435Y-117165973D01*
X145209058Y-117519783D01*
X144159021Y-117519783D01*
X144088644Y-117165973D01*
X143884098Y-116859849D01*
X143788338Y-116764089D01*
X143482215Y-116559543D01*
X143128405Y-116489167D01*
X142774595Y-116559543D01*
X142468471Y-116764089D01*
X142372711Y-116859849D01*
X142168165Y-117165973D01*
X142097788Y-117519783D01*
X140340598Y-117519783D01*
X140287686Y-117412489D01*
X140270390Y-117389326D01*
X140160312Y-117241914D01*
X140160311Y-117241913D01*
X140158280Y-117239193D01*
X140155789Y-117236890D01*
X140155786Y-117236887D01*
X140001952Y-117094685D01*
X140001948Y-117094682D01*
X139999460Y-117092382D01*
X139816545Y-116976971D01*
X139813407Y-116975719D01*
X139813401Y-116975716D01*
X139618815Y-116898085D01*
X139618812Y-116898084D01*
X139615661Y-116896827D01*
X139612334Y-116896165D01*
X139612330Y-116896164D01*
X139406860Y-116855293D01*
X139406858Y-116855293D01*
X139403536Y-116854632D01*
X139308358Y-116853386D01*
X139190667Y-116851845D01*
X139190662Y-116851845D01*
X139187274Y-116851801D01*
X139183928Y-116852376D01*
X139183927Y-116852376D01*
X139140443Y-116859848D01*
X138974117Y-116888428D01*
X138771204Y-116963287D01*
X138585331Y-117073870D01*
X138582787Y-117076101D01*
X138582783Y-117076104D01*
X138432792Y-117207643D01*
X138385614Y-117225989D01*
X138337682Y-117209718D01*
X138311422Y-117166444D01*
X138310000Y-117152007D01*
X138310000Y-116363463D01*
X138327313Y-116315897D01*
X138371150Y-116290587D01*
X138421000Y-116299377D01*
X138435635Y-116310456D01*
X138536243Y-116408464D01*
X138539062Y-116410348D01*
X138539065Y-116410350D01*
X138713252Y-116526738D01*
X138713257Y-116526741D01*
X138716074Y-116528623D01*
X138719194Y-116529963D01*
X138719195Y-116529964D01*
X138911671Y-116612659D01*
X138911675Y-116612660D01*
X138914791Y-116613999D01*
X139021295Y-116638098D01*
X139122423Y-116660981D01*
X139122426Y-116660981D01*
X139125739Y-116661731D01*
X139233796Y-116665977D01*
X139338458Y-116670089D01*
X139338462Y-116670089D01*
X139341853Y-116670222D01*
X139484340Y-116649563D01*
X139552538Y-116639675D01*
X139552539Y-116639675D01*
X139555896Y-116639188D01*
X139760698Y-116569666D01*
X139763650Y-116568013D01*
X139763654Y-116568011D01*
X139946443Y-116465645D01*
X139946446Y-116465643D01*
X139949403Y-116463987D01*
X139952008Y-116461820D01*
X139952013Y-116461817D01*
X140113080Y-116327857D01*
X140115688Y-116325688D01*
X140140315Y-116296078D01*
X140251817Y-116162013D01*
X140251820Y-116162008D01*
X140253987Y-116159403D01*
X140299659Y-116077849D01*
X140333341Y-116017706D01*
X140552806Y-116017706D01*
X140612530Y-116317958D01*
X140817076Y-116624082D01*
X140912836Y-116719842D01*
X141218960Y-116924388D01*
X141572770Y-116994764D01*
X141926580Y-116924388D01*
X142232704Y-116719842D01*
X142328463Y-116624083D01*
X142533009Y-116317958D01*
X142603386Y-115964148D01*
X143653423Y-115964148D01*
X143723800Y-116317958D01*
X143928346Y-116624082D01*
X144024106Y-116719842D01*
X144330229Y-116924388D01*
X144684040Y-116994764D01*
X145037850Y-116924388D01*
X145343973Y-116719842D01*
X145439733Y-116624082D01*
X145644279Y-116317958D01*
X145714656Y-115964148D01*
X146764693Y-115964148D01*
X146835070Y-116317958D01*
X147039616Y-116624082D01*
X147135376Y-116719842D01*
X147441499Y-116924388D01*
X147795309Y-116994764D01*
X148149119Y-116924388D01*
X148455243Y-116719842D01*
X148551003Y-116624082D01*
X148755549Y-116317958D01*
X148825926Y-115964148D01*
X149875963Y-115964148D01*
X149946340Y-116317958D01*
X150150886Y-116624083D01*
X150246645Y-116719842D01*
X150552769Y-116924388D01*
X150906579Y-116994764D01*
X151260389Y-116924388D01*
X151566513Y-116719842D01*
X151662273Y-116624082D01*
X151866819Y-116317958D01*
X151937196Y-115964148D01*
X151866819Y-115610338D01*
X151662273Y-115304214D01*
X151566514Y-115208455D01*
X151260389Y-115003909D01*
X150906579Y-114933532D01*
X150552769Y-115003909D01*
X150246644Y-115208455D01*
X150150886Y-115304213D01*
X149946340Y-115610338D01*
X149875963Y-115964148D01*
X148825926Y-115964148D01*
X148755549Y-115610338D01*
X148551003Y-115304214D01*
X148455244Y-115208455D01*
X148149119Y-115003909D01*
X147795309Y-114933532D01*
X147441499Y-115003909D01*
X147135375Y-115208455D01*
X147039616Y-115304214D01*
X146835070Y-115610338D01*
X146764693Y-115964148D01*
X145714656Y-115964148D01*
X145644279Y-115610338D01*
X145439733Y-115304214D01*
X145343974Y-115208455D01*
X145037850Y-115003909D01*
X144684040Y-114933532D01*
X144330229Y-115003909D01*
X144024105Y-115208455D01*
X143928346Y-115304214D01*
X143723800Y-115610338D01*
X143653423Y-115964148D01*
X142603386Y-115964148D01*
X142533009Y-115610338D01*
X142328463Y-115304213D01*
X142232705Y-115208455D01*
X141926580Y-115003909D01*
X141572770Y-114933532D01*
X141218960Y-115003909D01*
X140912835Y-115208455D01*
X140817076Y-115304214D01*
X140658563Y-115541444D01*
X140658155Y-115557035D01*
X140658065Y-115559216D01*
X140657901Y-115562159D01*
X140657748Y-115564336D01*
X140657007Y-115573017D01*
X140656791Y-115575177D01*
X140656455Y-115578099D01*
X140656173Y-115580263D01*
X140625139Y-115794306D01*
X140624575Y-115797653D01*
X140623711Y-115802149D01*
X140622997Y-115805456D01*
X140619836Y-115818625D01*
X140618967Y-115821910D01*
X140617694Y-115826312D01*
X140616680Y-115829542D01*
X140552806Y-116017706D01*
X140333341Y-116017706D01*
X140358011Y-115973654D01*
X140358013Y-115973650D01*
X140359666Y-115970698D01*
X140429188Y-115765896D01*
X140442384Y-115674881D01*
X140459909Y-115554015D01*
X140459910Y-115554007D01*
X140460222Y-115551853D01*
X140461842Y-115490000D01*
X140442052Y-115274626D01*
X140441133Y-115271368D01*
X140441132Y-115271362D01*
X140384266Y-115069731D01*
X140384265Y-115069729D01*
X140383345Y-115066466D01*
X140287686Y-114872489D01*
X140270390Y-114849326D01*
X140160312Y-114701914D01*
X140160311Y-114701913D01*
X140158280Y-114699193D01*
X140155789Y-114696890D01*
X140155786Y-114696887D01*
X140001952Y-114554685D01*
X140001948Y-114554682D01*
X139999460Y-114552382D01*
X139816545Y-114436971D01*
X139813407Y-114435719D01*
X139813401Y-114435716D01*
X139745215Y-114408513D01*
X142097788Y-114408513D01*
X142168165Y-114762323D01*
X142372711Y-115068447D01*
X142468471Y-115164207D01*
X142774595Y-115368753D01*
X143128405Y-115439130D01*
X143482215Y-115368753D01*
X143788338Y-115164207D01*
X143884098Y-115068447D01*
X144088644Y-114762323D01*
X144159021Y-114408513D01*
X145209058Y-114408513D01*
X145279435Y-114762323D01*
X145483981Y-115068447D01*
X145579741Y-115164207D01*
X145885864Y-115368753D01*
X146239674Y-115439130D01*
X146593485Y-115368753D01*
X146899608Y-115164207D01*
X146995368Y-115068447D01*
X147199914Y-114762323D01*
X147270291Y-114408513D01*
X148320328Y-114408513D01*
X148390705Y-114762323D01*
X148595251Y-115068447D01*
X148691011Y-115164207D01*
X148997134Y-115368753D01*
X149350944Y-115439130D01*
X149704754Y-115368753D01*
X150010878Y-115164207D01*
X150106638Y-115068447D01*
X150311184Y-114762323D01*
X150381561Y-114408513D01*
X151431598Y-114408513D01*
X151501975Y-114762323D01*
X151706521Y-115068448D01*
X151802280Y-115164207D01*
X152108404Y-115368753D01*
X152462214Y-115439130D01*
X152816024Y-115368753D01*
X153122148Y-115164207D01*
X153208261Y-115078094D01*
X153239026Y-114979014D01*
X153240104Y-114975804D01*
X153241660Y-114971499D01*
X153242886Y-114968337D01*
X153248068Y-114955825D01*
X153249439Y-114952718D01*
X153251385Y-114948569D01*
X153252893Y-114945536D01*
X153353597Y-114754130D01*
X153355244Y-114751166D01*
X153357561Y-114747213D01*
X153359343Y-114744327D01*
X153366719Y-114732970D01*
X153368625Y-114730177D01*
X153371291Y-114726456D01*
X153373332Y-114723742D01*
X153449295Y-114627384D01*
X153492830Y-114408513D01*
X153422454Y-114054703D01*
X153217908Y-113748579D01*
X153122149Y-113652820D01*
X152816024Y-113448274D01*
X152462214Y-113377897D01*
X152108404Y-113448274D01*
X151802279Y-113652820D01*
X151706521Y-113748578D01*
X151501975Y-114054703D01*
X151431598Y-114408513D01*
X150381561Y-114408513D01*
X150311184Y-114054703D01*
X150106638Y-113748579D01*
X150010879Y-113652820D01*
X149704754Y-113448274D01*
X149350944Y-113377897D01*
X148997134Y-113448274D01*
X148691010Y-113652820D01*
X148595251Y-113748579D01*
X148390705Y-114054703D01*
X148320328Y-114408513D01*
X147270291Y-114408513D01*
X147199914Y-114054703D01*
X146995368Y-113748579D01*
X146899609Y-113652820D01*
X146593485Y-113448274D01*
X146239674Y-113377897D01*
X145885864Y-113448274D01*
X145579740Y-113652820D01*
X145483981Y-113748579D01*
X145279435Y-114054703D01*
X145209058Y-114408513D01*
X144159021Y-114408513D01*
X144088644Y-114054703D01*
X143884098Y-113748579D01*
X143788339Y-113652820D01*
X143482215Y-113448274D01*
X143128405Y-113377897D01*
X142774595Y-113448274D01*
X142468470Y-113652820D01*
X142372711Y-113748579D01*
X142168165Y-114054703D01*
X142097788Y-114408513D01*
X139745215Y-114408513D01*
X139618815Y-114358085D01*
X139618812Y-114358084D01*
X139615661Y-114356827D01*
X139612334Y-114356165D01*
X139612330Y-114356164D01*
X139406860Y-114315293D01*
X139406858Y-114315293D01*
X139403536Y-114314632D01*
X139308358Y-114313386D01*
X139190667Y-114311845D01*
X139190662Y-114311845D01*
X139187274Y-114311801D01*
X139183928Y-114312376D01*
X139183927Y-114312376D01*
X139124049Y-114322665D01*
X138974117Y-114348428D01*
X138771204Y-114423287D01*
X138585331Y-114533870D01*
X138582787Y-114536101D01*
X138582783Y-114536104D01*
X138432792Y-114667643D01*
X138385614Y-114685989D01*
X138337682Y-114669718D01*
X138311422Y-114626444D01*
X138310000Y-114612007D01*
X138310000Y-113823463D01*
X138327313Y-113775897D01*
X138371150Y-113750587D01*
X138421000Y-113759377D01*
X138435635Y-113770456D01*
X138536243Y-113868464D01*
X138539062Y-113870348D01*
X138539065Y-113870350D01*
X138713252Y-113986738D01*
X138713257Y-113986741D01*
X138716074Y-113988623D01*
X138719194Y-113989963D01*
X138719195Y-113989964D01*
X138911671Y-114072659D01*
X138911675Y-114072660D01*
X138914791Y-114073999D01*
X139021295Y-114098098D01*
X139122423Y-114120981D01*
X139122426Y-114120981D01*
X139125739Y-114121731D01*
X139233796Y-114125976D01*
X139338458Y-114130089D01*
X139338462Y-114130089D01*
X139341853Y-114130222D01*
X139484340Y-114109563D01*
X139552538Y-114099675D01*
X139552539Y-114099675D01*
X139555896Y-114099188D01*
X139760698Y-114029666D01*
X139763650Y-114028013D01*
X139763654Y-114028011D01*
X139946443Y-113925645D01*
X139946446Y-113925643D01*
X139949403Y-113923987D01*
X139952008Y-113921820D01*
X139952013Y-113921817D01*
X140113080Y-113787857D01*
X140115688Y-113785688D01*
X140140315Y-113756078D01*
X140251817Y-113622013D01*
X140251820Y-113622008D01*
X140253987Y-113619403D01*
X140313680Y-113512813D01*
X140358011Y-113433654D01*
X140358013Y-113433650D01*
X140359666Y-113430698D01*
X140429188Y-113225896D01*
X140442384Y-113134881D01*
X140459909Y-113014015D01*
X140459910Y-113014007D01*
X140460222Y-113011853D01*
X140461842Y-112950000D01*
X140442052Y-112734626D01*
X140441133Y-112731368D01*
X140441132Y-112731362D01*
X140393907Y-112563914D01*
X140599631Y-112563914D01*
X140632619Y-112680880D01*
X140633464Y-112684162D01*
X140634504Y-112688622D01*
X140635198Y-112691941D01*
X140637666Y-112705257D01*
X140638208Y-112708613D01*
X140638835Y-112713150D01*
X140639222Y-112716509D01*
X140659012Y-112931883D01*
X140659179Y-112934055D01*
X140659362Y-112936994D01*
X140659465Y-112939172D01*
X140659750Y-112947880D01*
X140659790Y-112950050D01*
X140659800Y-112952995D01*
X140659775Y-112955183D01*
X140658155Y-113017036D01*
X140658065Y-113019216D01*
X140657901Y-113022159D01*
X140657748Y-113024336D01*
X140657007Y-113033017D01*
X140656791Y-113035177D01*
X140656455Y-113038099D01*
X140656173Y-113040263D01*
X140628564Y-113230685D01*
X140817076Y-113512812D01*
X140912836Y-113608572D01*
X141218960Y-113813118D01*
X141572770Y-113883495D01*
X141926580Y-113813118D01*
X142232704Y-113608572D01*
X142328463Y-113512813D01*
X142533009Y-113206688D01*
X142603386Y-112852878D01*
X143653423Y-112852878D01*
X143723800Y-113206688D01*
X143928346Y-113512812D01*
X144024106Y-113608572D01*
X144330229Y-113813118D01*
X144684040Y-113883495D01*
X145037850Y-113813118D01*
X145343973Y-113608572D01*
X145439733Y-113512812D01*
X145644279Y-113206688D01*
X145714656Y-112852878D01*
X146764693Y-112852878D01*
X146835070Y-113206688D01*
X147039616Y-113512812D01*
X147135376Y-113608572D01*
X147441499Y-113813118D01*
X147795309Y-113883495D01*
X148149119Y-113813118D01*
X148455243Y-113608572D01*
X148551003Y-113512812D01*
X148755549Y-113206688D01*
X148825926Y-112852878D01*
X149875963Y-112852878D01*
X149946340Y-113206688D01*
X150150886Y-113512813D01*
X150246645Y-113608572D01*
X150552769Y-113813118D01*
X150906579Y-113883495D01*
X151260389Y-113813118D01*
X151566513Y-113608572D01*
X151662273Y-113512812D01*
X151866819Y-113206688D01*
X151937196Y-112852878D01*
X151866819Y-112499068D01*
X151662273Y-112192944D01*
X151566514Y-112097185D01*
X151260389Y-111892639D01*
X150906579Y-111822262D01*
X150552769Y-111892639D01*
X150246644Y-112097185D01*
X150150886Y-112192943D01*
X149946340Y-112499068D01*
X149875963Y-112852878D01*
X148825926Y-112852878D01*
X148755549Y-112499068D01*
X148551003Y-112192944D01*
X148455244Y-112097185D01*
X148149119Y-111892639D01*
X147795309Y-111822262D01*
X147441499Y-111892639D01*
X147135375Y-112097185D01*
X147039616Y-112192944D01*
X146835070Y-112499068D01*
X146764693Y-112852878D01*
X145714656Y-112852878D01*
X145644279Y-112499068D01*
X145439733Y-112192944D01*
X145343974Y-112097185D01*
X145037850Y-111892639D01*
X144684040Y-111822262D01*
X144330229Y-111892639D01*
X144024105Y-112097185D01*
X143928346Y-112192944D01*
X143723800Y-112499068D01*
X143653423Y-112852878D01*
X142603386Y-112852878D01*
X142533009Y-112499068D01*
X142328463Y-112192943D01*
X142232705Y-112097185D01*
X141926580Y-111892639D01*
X141572770Y-111822262D01*
X141218960Y-111892639D01*
X140912835Y-112097185D01*
X140817076Y-112192944D01*
X140612530Y-112499068D01*
X140599631Y-112563914D01*
X140393907Y-112563914D01*
X140384266Y-112529731D01*
X140384265Y-112529729D01*
X140383345Y-112526466D01*
X140287686Y-112332489D01*
X140284230Y-112327860D01*
X140160312Y-112161914D01*
X140160311Y-112161913D01*
X140158280Y-112159193D01*
X140155789Y-112156890D01*
X140155786Y-112156887D01*
X140001952Y-112014685D01*
X140001948Y-112014682D01*
X139999460Y-112012382D01*
X139816545Y-111896971D01*
X139813407Y-111895719D01*
X139813401Y-111895716D01*
X139618815Y-111818085D01*
X139618812Y-111818084D01*
X139615661Y-111816827D01*
X139612334Y-111816165D01*
X139612330Y-111816164D01*
X139406860Y-111775293D01*
X139406858Y-111775293D01*
X139403536Y-111774632D01*
X139308358Y-111773386D01*
X139190667Y-111771845D01*
X139190662Y-111771845D01*
X139187274Y-111771801D01*
X139183928Y-111772376D01*
X139183927Y-111772376D01*
X139124049Y-111782665D01*
X138974117Y-111808428D01*
X138771204Y-111883287D01*
X138585331Y-111993870D01*
X138582787Y-111996101D01*
X138582783Y-111996104D01*
X138432792Y-112127643D01*
X138385614Y-112145989D01*
X138337682Y-112129718D01*
X138311422Y-112086444D01*
X138310000Y-112072007D01*
X138310000Y-111283463D01*
X138327313Y-111235897D01*
X138371150Y-111210587D01*
X138421000Y-111219377D01*
X138435635Y-111230456D01*
X138536243Y-111328464D01*
X138539062Y-111330348D01*
X138539065Y-111330350D01*
X138713252Y-111446738D01*
X138713257Y-111446741D01*
X138716074Y-111448623D01*
X138719194Y-111449963D01*
X138719195Y-111449964D01*
X138911671Y-111532659D01*
X138911675Y-111532660D01*
X138914791Y-111533999D01*
X139021295Y-111558098D01*
X139122423Y-111580981D01*
X139122426Y-111580981D01*
X139125739Y-111581731D01*
X139233796Y-111585977D01*
X139338458Y-111590089D01*
X139338462Y-111590089D01*
X139341853Y-111590222D01*
X139484340Y-111569563D01*
X139552538Y-111559675D01*
X139552539Y-111559675D01*
X139555896Y-111559188D01*
X139760698Y-111489666D01*
X139763650Y-111488013D01*
X139763654Y-111488011D01*
X139946443Y-111385645D01*
X139946446Y-111385643D01*
X139949403Y-111383987D01*
X139952008Y-111381820D01*
X139952013Y-111381817D01*
X140053701Y-111297243D01*
X142097788Y-111297243D01*
X142168165Y-111651053D01*
X142372711Y-111957177D01*
X142468471Y-112052937D01*
X142774595Y-112257483D01*
X143128405Y-112327860D01*
X143482215Y-112257483D01*
X143788338Y-112052937D01*
X143884098Y-111957177D01*
X144088644Y-111651053D01*
X144159021Y-111297243D01*
X145209058Y-111297243D01*
X145279435Y-111651053D01*
X145483981Y-111957177D01*
X145579741Y-112052937D01*
X145885864Y-112257483D01*
X146239674Y-112327860D01*
X146593485Y-112257483D01*
X146899608Y-112052937D01*
X146995368Y-111957177D01*
X147199914Y-111651053D01*
X147270291Y-111297243D01*
X148320328Y-111297243D01*
X148390705Y-111651053D01*
X148595251Y-111957177D01*
X148691011Y-112052937D01*
X148997134Y-112257483D01*
X149350944Y-112327860D01*
X149704754Y-112257483D01*
X150010878Y-112052937D01*
X150106638Y-111957177D01*
X150311184Y-111651053D01*
X150381561Y-111297243D01*
X151431598Y-111297243D01*
X151501975Y-111651053D01*
X151706521Y-111957178D01*
X151802280Y-112052937D01*
X152108404Y-112257483D01*
X152462214Y-112327860D01*
X152816024Y-112257483D01*
X153122148Y-112052937D01*
X153217908Y-111957177D01*
X153422454Y-111651053D01*
X153487574Y-111323672D01*
X153483159Y-111319372D01*
X153480799Y-111316966D01*
X153477670Y-111313627D01*
X153475400Y-111311091D01*
X153466604Y-111300794D01*
X153464452Y-111298154D01*
X153461638Y-111294535D01*
X153459624Y-111291820D01*
X153334799Y-111115196D01*
X153332914Y-111112394D01*
X153330444Y-111108537D01*
X153328675Y-111105629D01*
X153321904Y-111093901D01*
X153320271Y-111090917D01*
X153318166Y-111086850D01*
X153316682Y-111083816D01*
X153226134Y-110887402D01*
X153224783Y-110884285D01*
X153223058Y-110880041D01*
X153221856Y-110876877D01*
X153217336Y-110864112D01*
X153216283Y-110860908D01*
X153214953Y-110856527D01*
X153214039Y-110853247D01*
X153160800Y-110643621D01*
X153160039Y-110640306D01*
X153159117Y-110635821D01*
X153158512Y-110632499D01*
X153156393Y-110619123D01*
X153155940Y-110615766D01*
X153155431Y-110611213D01*
X153155131Y-110607831D01*
X153152796Y-110572198D01*
X153122148Y-110541550D01*
X152816024Y-110337004D01*
X152462214Y-110266627D01*
X152108404Y-110337004D01*
X151802280Y-110541550D01*
X151706521Y-110637309D01*
X151501975Y-110943433D01*
X151431598Y-111297243D01*
X150381561Y-111297243D01*
X150311184Y-110943433D01*
X150106638Y-110637310D01*
X150010878Y-110541550D01*
X149704754Y-110337004D01*
X149350944Y-110266627D01*
X148997134Y-110337004D01*
X148691011Y-110541550D01*
X148595251Y-110637310D01*
X148390705Y-110943433D01*
X148320328Y-111297243D01*
X147270291Y-111297243D01*
X147199914Y-110943433D01*
X146995368Y-110637310D01*
X146899608Y-110541550D01*
X146593485Y-110337004D01*
X146239674Y-110266627D01*
X145885864Y-110337004D01*
X145579741Y-110541550D01*
X145483981Y-110637310D01*
X145279435Y-110943433D01*
X145209058Y-111297243D01*
X144159021Y-111297243D01*
X144088644Y-110943433D01*
X143884098Y-110637310D01*
X143788338Y-110541550D01*
X143482215Y-110337004D01*
X143128405Y-110266627D01*
X142774595Y-110337004D01*
X142468471Y-110541550D01*
X142372711Y-110637310D01*
X142168165Y-110943433D01*
X142097788Y-111297243D01*
X140053701Y-111297243D01*
X140113080Y-111247857D01*
X140115688Y-111245688D01*
X140140315Y-111216078D01*
X140251817Y-111082013D01*
X140251820Y-111082008D01*
X140253987Y-111079403D01*
X140299659Y-110997849D01*
X140358011Y-110893654D01*
X140358013Y-110893650D01*
X140359666Y-110890698D01*
X140429188Y-110685896D01*
X140429675Y-110682538D01*
X140459909Y-110474015D01*
X140459910Y-110474007D01*
X140460222Y-110471853D01*
X140461842Y-110410000D01*
X140442052Y-110194626D01*
X140441133Y-110191368D01*
X140441132Y-110191362D01*
X140384266Y-109989731D01*
X140384265Y-109989729D01*
X140383345Y-109986466D01*
X140287686Y-109792489D01*
X140270390Y-109769326D01*
X140249692Y-109741608D01*
X140542153Y-109741608D01*
X140595139Y-110007987D01*
X140625105Y-110114237D01*
X140817076Y-110401542D01*
X140912836Y-110497302D01*
X141218960Y-110701848D01*
X141572770Y-110772225D01*
X141926580Y-110701848D01*
X142232704Y-110497302D01*
X142328463Y-110401543D01*
X142533009Y-110095418D01*
X142603386Y-109741608D01*
X143653423Y-109741608D01*
X143723800Y-110095418D01*
X143928346Y-110401542D01*
X144024106Y-110497302D01*
X144330229Y-110701848D01*
X144684040Y-110772225D01*
X145037850Y-110701848D01*
X145343973Y-110497302D01*
X145439733Y-110401542D01*
X145644279Y-110095418D01*
X145714656Y-109741608D01*
X146764693Y-109741608D01*
X146835070Y-110095418D01*
X147039616Y-110401542D01*
X147135376Y-110497302D01*
X147441499Y-110701848D01*
X147795309Y-110772225D01*
X148149119Y-110701848D01*
X148455243Y-110497302D01*
X148551003Y-110401542D01*
X148755549Y-110095418D01*
X148825926Y-109741608D01*
X149875963Y-109741608D01*
X149946340Y-110095418D01*
X150150886Y-110401543D01*
X150246645Y-110497302D01*
X150552769Y-110701848D01*
X150906579Y-110772225D01*
X151260389Y-110701848D01*
X151566513Y-110497302D01*
X151662273Y-110401542D01*
X151866819Y-110095418D01*
X151937196Y-109741608D01*
X151866819Y-109387798D01*
X151662273Y-109081675D01*
X151566513Y-108985915D01*
X151260389Y-108781369D01*
X150906579Y-108710992D01*
X150552769Y-108781369D01*
X150246645Y-108985915D01*
X150150886Y-109081674D01*
X149946340Y-109387798D01*
X149875963Y-109741608D01*
X148825926Y-109741608D01*
X148755549Y-109387798D01*
X148611421Y-109172096D01*
X148509542Y-109206680D01*
X148506312Y-109207694D01*
X148501910Y-109208967D01*
X148498625Y-109209836D01*
X148485456Y-109212997D01*
X148482149Y-109213711D01*
X148477653Y-109214575D01*
X148474306Y-109215139D01*
X148260263Y-109246173D01*
X148256887Y-109246584D01*
X148252331Y-109247032D01*
X148248963Y-109247286D01*
X148235440Y-109247995D01*
X148232051Y-109248094D01*
X148227470Y-109248124D01*
X148224080Y-109248069D01*
X148007966Y-109239578D01*
X148004588Y-109239368D01*
X148000023Y-109238979D01*
X147996645Y-109238613D01*
X147983219Y-109236845D01*
X147979869Y-109236325D01*
X147975362Y-109235520D01*
X147972042Y-109234848D01*
X147761094Y-109187116D01*
X147757809Y-109186294D01*
X147753393Y-109185080D01*
X147750142Y-109184105D01*
X147737262Y-109179920D01*
X147734064Y-109178800D01*
X147729778Y-109177187D01*
X147726632Y-109175919D01*
X147527915Y-109090543D01*
X147524830Y-109089133D01*
X147520711Y-109087135D01*
X147517700Y-109085589D01*
X147505799Y-109079128D01*
X147502858Y-109077443D01*
X147498936Y-109075075D01*
X147496072Y-109073255D01*
X147472039Y-109057197D01*
X148863912Y-109057197D01*
X148997134Y-109146213D01*
X149350944Y-109216590D01*
X149704754Y-109146213D01*
X150010878Y-108941667D01*
X150106638Y-108845907D01*
X150311184Y-108539784D01*
X150381561Y-108185974D01*
X151431598Y-108185974D01*
X151501975Y-108539784D01*
X151706521Y-108845908D01*
X151802280Y-108941667D01*
X152108404Y-109146213D01*
X152462214Y-109216590D01*
X152816024Y-109146213D01*
X153122148Y-108941667D01*
X153217908Y-108845907D01*
X153367693Y-108621739D01*
X153334799Y-108575195D01*
X153332914Y-108572394D01*
X153330444Y-108568537D01*
X153328675Y-108565629D01*
X153321904Y-108553901D01*
X153320271Y-108550917D01*
X153318166Y-108546850D01*
X153316682Y-108543816D01*
X153226134Y-108347402D01*
X153224783Y-108344285D01*
X153223058Y-108340041D01*
X153221856Y-108336877D01*
X153217336Y-108324112D01*
X153216279Y-108320894D01*
X153214950Y-108316513D01*
X153214040Y-108313247D01*
X153183285Y-108192153D01*
X153161820Y-108119223D01*
X153161690Y-108118776D01*
X153161529Y-108118216D01*
X153161421Y-108117835D01*
X153160957Y-108116188D01*
X153160830Y-108115735D01*
X153160678Y-108115182D01*
X153160579Y-108114816D01*
X153156974Y-108101433D01*
X153156867Y-108101031D01*
X153156719Y-108100469D01*
X153156607Y-108100040D01*
X153156182Y-108098386D01*
X153156063Y-108097918D01*
X153155924Y-108097362D01*
X153155837Y-108097007D01*
X153155580Y-108095957D01*
X153155490Y-108095588D01*
X153155361Y-108095049D01*
X153155260Y-108094619D01*
X153154872Y-108092954D01*
X153154776Y-108092539D01*
X153154643Y-108091953D01*
X153154542Y-108091502D01*
X153151559Y-108077968D01*
X153151466Y-108077537D01*
X153151342Y-108076958D01*
X153151252Y-108076531D01*
X153150904Y-108074858D01*
X153150836Y-108074528D01*
X153150724Y-108073977D01*
X153150627Y-108073492D01*
X153119162Y-107913207D01*
X153119080Y-107912783D01*
X153118998Y-107912352D01*
X153118958Y-107912138D01*
X153118718Y-107910856D01*
X153118675Y-107910624D01*
X153118595Y-107910189D01*
X153118520Y-107909777D01*
X153116667Y-107899371D01*
X153116601Y-107898993D01*
X153116525Y-107898553D01*
X153116478Y-107898280D01*
X153116261Y-107896995D01*
X153116194Y-107896590D01*
X153116124Y-107896161D01*
X153116087Y-107895932D01*
X153115956Y-107895113D01*
X153115910Y-107894822D01*
X153115845Y-107894405D01*
X153115795Y-107894079D01*
X153115598Y-107892777D01*
X153115550Y-107892459D01*
X153115482Y-107891996D01*
X153115429Y-107891629D01*
X153113927Y-107881033D01*
X153113887Y-107880741D01*
X153113826Y-107880298D01*
X153113776Y-107879933D01*
X153113602Y-107878621D01*
X153113565Y-107878336D01*
X153113508Y-107877893D01*
X153113461Y-107877523D01*
X153095397Y-107731321D01*
X153095373Y-107731120D01*
X153095348Y-107730913D01*
X153095335Y-107730808D01*
X153095264Y-107730213D01*
X153095252Y-107730113D01*
X153095229Y-107729918D01*
X153095207Y-107729729D01*
X153094647Y-107724874D01*
X153094613Y-107724567D01*
X153094591Y-107724369D01*
X153094525Y-107723780D01*
X153094515Y-107723690D01*
X153094492Y-107723481D01*
X153094468Y-107723263D01*
X153094427Y-107722880D01*
X153094396Y-107722576D01*
X153094371Y-107722333D01*
X153094365Y-107722277D01*
X153094316Y-107721801D01*
X153094298Y-107721628D01*
X153094258Y-107721230D01*
X153093769Y-107716270D01*
X153093745Y-107716026D01*
X153093723Y-107715795D01*
X153093714Y-107715697D01*
X153093657Y-107715090D01*
X153093644Y-107714950D01*
X153093616Y-107714645D01*
X153081754Y-107583248D01*
X153070178Y-107477117D01*
X153055742Y-107399742D01*
X153050117Y-107382151D01*
X152816024Y-107225734D01*
X152462214Y-107155357D01*
X152108404Y-107225734D01*
X151802280Y-107430280D01*
X151706521Y-107526039D01*
X151501975Y-107832163D01*
X151431598Y-108185974D01*
X150381561Y-108185974D01*
X150311184Y-107832163D01*
X150106638Y-107526040D01*
X150010878Y-107430280D01*
X149704754Y-107225734D01*
X149350944Y-107155357D01*
X149350104Y-107155524D01*
X149351486Y-107157899D01*
X149353698Y-107161910D01*
X149355268Y-107164917D01*
X149450927Y-107358894D01*
X149452355Y-107361967D01*
X149454190Y-107366162D01*
X149455478Y-107369298D01*
X149460331Y-107381940D01*
X149461473Y-107385132D01*
X149462917Y-107389479D01*
X149463912Y-107392720D01*
X149522619Y-107600880D01*
X149523464Y-107604162D01*
X149524504Y-107608622D01*
X149525198Y-107611941D01*
X149527666Y-107625257D01*
X149528208Y-107628613D01*
X149528835Y-107633150D01*
X149529222Y-107636509D01*
X149549012Y-107851883D01*
X149549179Y-107854055D01*
X149549362Y-107856994D01*
X149549465Y-107859172D01*
X149549750Y-107867880D01*
X149549790Y-107870050D01*
X149549800Y-107872995D01*
X149549775Y-107875183D01*
X149548155Y-107937036D01*
X149548065Y-107939216D01*
X149547901Y-107942159D01*
X149547748Y-107944336D01*
X149547007Y-107953017D01*
X149546791Y-107955177D01*
X149546455Y-107958099D01*
X149546173Y-107960263D01*
X149515139Y-108174306D01*
X149514575Y-108177653D01*
X149513711Y-108182149D01*
X149512997Y-108185456D01*
X149509836Y-108198625D01*
X149508967Y-108201910D01*
X149507694Y-108206312D01*
X149506680Y-108209542D01*
X149437158Y-108414344D01*
X149435996Y-108417524D01*
X149434327Y-108421789D01*
X149433018Y-108424921D01*
X149427510Y-108437292D01*
X149426063Y-108440351D01*
X149424011Y-108444445D01*
X149422421Y-108447445D01*
X149316742Y-108636150D01*
X149315018Y-108639070D01*
X149312599Y-108642960D01*
X149310743Y-108645797D01*
X149303072Y-108656958D01*
X149301087Y-108659709D01*
X149298323Y-108663360D01*
X149296217Y-108666013D01*
X149157918Y-108832298D01*
X149155687Y-108834859D01*
X149152600Y-108838242D01*
X149150263Y-108840688D01*
X149140688Y-108850263D01*
X149138242Y-108852600D01*
X149134859Y-108855687D01*
X149132298Y-108857918D01*
X148966013Y-108996217D01*
X148963360Y-108998323D01*
X148959709Y-109001087D01*
X148956958Y-109003072D01*
X148945797Y-109010743D01*
X148942960Y-109012599D01*
X148939070Y-109015018D01*
X148936150Y-109016742D01*
X148863912Y-109057197D01*
X147472039Y-109057197D01*
X147316241Y-108953096D01*
X147313466Y-108951148D01*
X147309776Y-108948430D01*
X147307091Y-108946356D01*
X147296567Y-108937833D01*
X147293975Y-108935633D01*
X147290554Y-108932592D01*
X147288082Y-108930291D01*
X147259823Y-108902762D01*
X147135375Y-108985916D01*
X147039616Y-109081675D01*
X146835070Y-109387798D01*
X146764693Y-109741608D01*
X145714656Y-109741608D01*
X145644279Y-109387798D01*
X145547324Y-109242696D01*
X145467966Y-109239578D01*
X145464588Y-109239368D01*
X145460023Y-109238979D01*
X145456645Y-109238613D01*
X145443219Y-109236845D01*
X145439869Y-109236325D01*
X145435362Y-109235520D01*
X145432042Y-109234848D01*
X145221094Y-109187116D01*
X145217809Y-109186294D01*
X145213393Y-109185080D01*
X145210142Y-109184105D01*
X145197262Y-109179920D01*
X145194064Y-109178800D01*
X145189778Y-109177187D01*
X145186632Y-109175919D01*
X144987915Y-109090543D01*
X144984830Y-109089133D01*
X144980711Y-109087135D01*
X144977700Y-109085589D01*
X144965799Y-109079128D01*
X144962858Y-109077443D01*
X144958936Y-109075075D01*
X144956072Y-109073255D01*
X144776241Y-108953096D01*
X144773466Y-108951148D01*
X144769776Y-108948430D01*
X144767091Y-108946356D01*
X144756567Y-108937833D01*
X144753975Y-108935633D01*
X144750554Y-108932592D01*
X144748082Y-108930291D01*
X144593159Y-108779372D01*
X144590799Y-108776966D01*
X144587670Y-108773627D01*
X144585400Y-108771091D01*
X144576604Y-108760794D01*
X144574452Y-108758154D01*
X144571638Y-108754535D01*
X144569624Y-108751819D01*
X144558428Y-108735977D01*
X144330229Y-108781369D01*
X144024106Y-108985915D01*
X143928346Y-109081675D01*
X143723800Y-109387798D01*
X143653423Y-109741608D01*
X142603386Y-109741608D01*
X142533009Y-109387798D01*
X142328463Y-109081674D01*
X142232704Y-108985915D01*
X141926580Y-108781369D01*
X141572770Y-108710992D01*
X141218960Y-108781369D01*
X140912836Y-108985915D01*
X140817076Y-109081675D01*
X140612530Y-109387798D01*
X140542153Y-109741608D01*
X140249692Y-109741608D01*
X140160312Y-109621914D01*
X140160311Y-109621913D01*
X140158280Y-109619193D01*
X140155789Y-109616890D01*
X140155786Y-109616887D01*
X140001952Y-109474685D01*
X140001948Y-109474682D01*
X139999460Y-109472382D01*
X139816545Y-109356971D01*
X139813407Y-109355719D01*
X139813401Y-109355716D01*
X139618815Y-109278085D01*
X139618812Y-109278084D01*
X139615661Y-109276827D01*
X139612334Y-109276165D01*
X139612330Y-109276164D01*
X139406860Y-109235293D01*
X139406858Y-109235293D01*
X139403536Y-109234632D01*
X139308358Y-109233386D01*
X139190667Y-109231845D01*
X139190662Y-109231845D01*
X139187274Y-109231801D01*
X139183928Y-109232376D01*
X139183927Y-109232376D01*
X139142014Y-109239578D01*
X138974117Y-109268428D01*
X138771204Y-109343287D01*
X138585331Y-109453870D01*
X138582787Y-109456101D01*
X138582783Y-109456104D01*
X138432792Y-109587643D01*
X138385614Y-109605989D01*
X138337682Y-109589718D01*
X138311422Y-109546444D01*
X138310000Y-109532007D01*
X138310000Y-108743463D01*
X138327313Y-108695897D01*
X138371150Y-108670587D01*
X138421000Y-108679377D01*
X138435635Y-108690456D01*
X138536243Y-108788464D01*
X138539062Y-108790348D01*
X138539065Y-108790350D01*
X138713252Y-108906738D01*
X138713257Y-108906741D01*
X138716074Y-108908623D01*
X138719194Y-108909963D01*
X138719195Y-108909964D01*
X138911671Y-108992659D01*
X138911675Y-108992660D01*
X138914791Y-108993999D01*
X139007683Y-109015018D01*
X139122423Y-109040981D01*
X139122426Y-109040981D01*
X139125739Y-109041731D01*
X139233796Y-109045977D01*
X139338458Y-109050089D01*
X139338462Y-109050089D01*
X139341853Y-109050222D01*
X139484340Y-109029563D01*
X139552538Y-109019675D01*
X139552539Y-109019675D01*
X139555896Y-109019188D01*
X139760698Y-108949666D01*
X139763650Y-108948013D01*
X139763654Y-108948011D01*
X139946443Y-108845645D01*
X139946446Y-108845643D01*
X139949403Y-108843987D01*
X139952008Y-108841820D01*
X139952013Y-108841817D01*
X140113080Y-108707857D01*
X140115688Y-108705688D01*
X140140315Y-108676078D01*
X140251817Y-108542013D01*
X140251820Y-108542008D01*
X140253987Y-108539403D01*
X140307166Y-108444445D01*
X140358011Y-108353654D01*
X140358013Y-108353650D01*
X140359666Y-108350698D01*
X140415583Y-108185974D01*
X142097788Y-108185974D01*
X142168165Y-108539784D01*
X142372711Y-108845907D01*
X142468471Y-108941667D01*
X142774595Y-109146213D01*
X143128405Y-109216590D01*
X143482215Y-109146213D01*
X143788338Y-108941667D01*
X143884098Y-108845907D01*
X144088644Y-108539784D01*
X144159021Y-108185974D01*
X144090016Y-107839063D01*
X144448563Y-107839063D01*
X144462708Y-108054881D01*
X144463544Y-108058172D01*
X144463544Y-108058173D01*
X144464946Y-108063692D01*
X144515947Y-108264507D01*
X144517363Y-108267579D01*
X144517365Y-108267584D01*
X144557044Y-108353654D01*
X144606495Y-108460921D01*
X144608447Y-108463683D01*
X144672207Y-108553901D01*
X144731320Y-108637545D01*
X144886243Y-108788464D01*
X144889062Y-108790348D01*
X144889065Y-108790350D01*
X145063252Y-108906738D01*
X145063257Y-108906741D01*
X145066074Y-108908623D01*
X145069194Y-108909963D01*
X145069195Y-108909964D01*
X145261671Y-108992659D01*
X145261675Y-108992660D01*
X145264791Y-108993999D01*
X145357683Y-109015018D01*
X145472423Y-109040981D01*
X145472426Y-109040981D01*
X145475739Y-109041731D01*
X145583796Y-109045977D01*
X145688458Y-109050089D01*
X145688462Y-109050089D01*
X145691853Y-109050222D01*
X145834340Y-109029563D01*
X145902538Y-109019675D01*
X145902539Y-109019675D01*
X145905896Y-109019188D01*
X146110698Y-108949666D01*
X146113650Y-108948013D01*
X146113654Y-108948011D01*
X146296443Y-108845645D01*
X146296446Y-108845643D01*
X146299403Y-108843987D01*
X146302008Y-108841820D01*
X146302013Y-108841817D01*
X146463080Y-108707857D01*
X146465688Y-108705688D01*
X146490315Y-108676078D01*
X146601817Y-108542013D01*
X146601820Y-108542008D01*
X146603987Y-108539403D01*
X146657166Y-108444445D01*
X146708011Y-108353654D01*
X146708013Y-108353650D01*
X146709666Y-108350698D01*
X146779188Y-108145896D01*
X146783257Y-108117835D01*
X146809909Y-107934015D01*
X146809910Y-107934007D01*
X146810222Y-107931853D01*
X146811842Y-107870000D01*
X146810303Y-107853244D01*
X146809000Y-107839063D01*
X146988563Y-107839063D01*
X147002708Y-108054881D01*
X147003544Y-108058172D01*
X147003544Y-108058173D01*
X147004946Y-108063692D01*
X147055947Y-108264507D01*
X147057363Y-108267579D01*
X147057365Y-108267584D01*
X147097044Y-108353654D01*
X147146495Y-108460921D01*
X147148447Y-108463683D01*
X147212207Y-108553901D01*
X147271320Y-108637545D01*
X147426243Y-108788464D01*
X147429062Y-108790348D01*
X147429065Y-108790350D01*
X147603252Y-108906738D01*
X147603257Y-108906741D01*
X147606074Y-108908623D01*
X147609194Y-108909963D01*
X147609195Y-108909964D01*
X147801671Y-108992659D01*
X147801675Y-108992660D01*
X147804791Y-108993999D01*
X147897683Y-109015018D01*
X148012423Y-109040981D01*
X148012426Y-109040981D01*
X148015739Y-109041731D01*
X148123796Y-109045977D01*
X148228458Y-109050089D01*
X148228462Y-109050089D01*
X148231853Y-109050222D01*
X148374340Y-109029563D01*
X148442538Y-109019675D01*
X148442539Y-109019675D01*
X148445896Y-109019188D01*
X148650698Y-108949666D01*
X148653650Y-108948013D01*
X148653654Y-108948011D01*
X148836443Y-108845645D01*
X148836446Y-108845643D01*
X148839403Y-108843987D01*
X148842008Y-108841820D01*
X148842013Y-108841817D01*
X149003080Y-108707857D01*
X149005688Y-108705688D01*
X149030315Y-108676078D01*
X149141817Y-108542013D01*
X149141820Y-108542008D01*
X149143987Y-108539403D01*
X149197166Y-108444445D01*
X149248011Y-108353654D01*
X149248013Y-108353650D01*
X149249666Y-108350698D01*
X149319188Y-108145896D01*
X149323257Y-108117835D01*
X149349909Y-107934015D01*
X149349910Y-107934007D01*
X149350222Y-107931853D01*
X149351842Y-107870000D01*
X149350303Y-107853244D01*
X149338359Y-107723263D01*
X149332052Y-107654626D01*
X149331133Y-107651368D01*
X149331132Y-107651362D01*
X149274266Y-107449731D01*
X149274265Y-107449729D01*
X149273345Y-107446466D01*
X149177686Y-107252489D01*
X149160390Y-107229326D01*
X149050312Y-107081914D01*
X149050311Y-107081913D01*
X149048280Y-107079193D01*
X149045789Y-107076890D01*
X149045786Y-107076887D01*
X148891952Y-106934685D01*
X148891948Y-106934682D01*
X148889460Y-106932382D01*
X148706545Y-106816971D01*
X148703407Y-106815719D01*
X148703401Y-106815716D01*
X148508815Y-106738085D01*
X148508812Y-106738084D01*
X148505661Y-106736827D01*
X148502334Y-106736165D01*
X148502330Y-106736164D01*
X148296860Y-106695293D01*
X148296858Y-106695293D01*
X148293536Y-106694632D01*
X148198358Y-106693386D01*
X148080667Y-106691845D01*
X148080662Y-106691845D01*
X148077274Y-106691801D01*
X148073928Y-106692376D01*
X148073927Y-106692376D01*
X148039580Y-106698278D01*
X147864117Y-106728428D01*
X147661204Y-106803287D01*
X147475331Y-106913870D01*
X147472787Y-106916101D01*
X147472783Y-106916104D01*
X147383048Y-106994800D01*
X147312722Y-107056474D01*
X147178824Y-107226323D01*
X147078120Y-107417729D01*
X147077114Y-107420968D01*
X147077113Y-107420971D01*
X147033574Y-107561191D01*
X147013984Y-107624281D01*
X147001481Y-107729918D01*
X146989380Y-107832163D01*
X146988563Y-107839063D01*
X146809000Y-107839063D01*
X146798359Y-107723263D01*
X146792052Y-107654626D01*
X146791133Y-107651368D01*
X146791132Y-107651362D01*
X146734266Y-107449731D01*
X146734265Y-107449729D01*
X146733345Y-107446466D01*
X146637686Y-107252489D01*
X146620390Y-107229326D01*
X146510312Y-107081914D01*
X146510311Y-107081913D01*
X146508280Y-107079193D01*
X146505789Y-107076890D01*
X146505786Y-107076887D01*
X146351952Y-106934685D01*
X146351948Y-106934682D01*
X146349460Y-106932382D01*
X146166545Y-106816971D01*
X146163407Y-106815719D01*
X146163401Y-106815716D01*
X145968815Y-106738085D01*
X145968812Y-106738084D01*
X145965661Y-106736827D01*
X145962334Y-106736165D01*
X145962330Y-106736164D01*
X145756860Y-106695293D01*
X145756858Y-106695293D01*
X145753536Y-106694632D01*
X145658358Y-106693386D01*
X145540667Y-106691845D01*
X145540662Y-106691845D01*
X145537274Y-106691801D01*
X145533928Y-106692376D01*
X145533927Y-106692376D01*
X145499580Y-106698278D01*
X145324117Y-106728428D01*
X145121204Y-106803287D01*
X144935331Y-106913870D01*
X144932787Y-106916101D01*
X144932783Y-106916104D01*
X144843048Y-106994800D01*
X144772722Y-107056474D01*
X144638824Y-107226323D01*
X144538120Y-107417729D01*
X144537114Y-107420968D01*
X144537113Y-107420971D01*
X144493574Y-107561191D01*
X144473984Y-107624281D01*
X144461481Y-107729918D01*
X144449380Y-107832163D01*
X144448563Y-107839063D01*
X144090016Y-107839063D01*
X144088644Y-107832163D01*
X143884098Y-107526040D01*
X143788338Y-107430280D01*
X143482215Y-107225734D01*
X143128405Y-107155357D01*
X142774595Y-107225734D01*
X142468471Y-107430280D01*
X142372711Y-107526040D01*
X142168165Y-107832163D01*
X142097788Y-108185974D01*
X140415583Y-108185974D01*
X140429188Y-108145896D01*
X140433257Y-108117835D01*
X140459909Y-107934015D01*
X140459910Y-107934007D01*
X140460222Y-107931853D01*
X140461842Y-107870000D01*
X140460303Y-107853244D01*
X140448359Y-107723263D01*
X140442052Y-107654626D01*
X140441133Y-107651368D01*
X140441132Y-107651362D01*
X140384266Y-107449731D01*
X140384265Y-107449729D01*
X140383345Y-107446466D01*
X140287686Y-107252489D01*
X140270390Y-107229326D01*
X140160312Y-107081914D01*
X140160311Y-107081913D01*
X140158280Y-107079193D01*
X140155789Y-107076890D01*
X140155786Y-107076887D01*
X140001952Y-106934685D01*
X140001948Y-106934682D01*
X139999460Y-106932382D01*
X139816545Y-106816971D01*
X139813407Y-106815719D01*
X139813401Y-106815716D01*
X139618815Y-106738085D01*
X139618812Y-106738084D01*
X139615661Y-106736827D01*
X139612334Y-106736165D01*
X139612330Y-106736164D01*
X139406860Y-106695293D01*
X139406858Y-106695293D01*
X139403536Y-106694632D01*
X139308358Y-106693386D01*
X139190667Y-106691845D01*
X139190662Y-106691845D01*
X139187274Y-106691801D01*
X139183928Y-106692376D01*
X139183927Y-106692376D01*
X139149580Y-106698278D01*
X138974117Y-106728428D01*
X138771204Y-106803287D01*
X138585331Y-106913870D01*
X138582787Y-106916101D01*
X138582783Y-106916104D01*
X138432792Y-107047643D01*
X138385614Y-107065989D01*
X138337682Y-107049718D01*
X138311422Y-107006444D01*
X138310000Y-106992007D01*
X138310000Y-106630339D01*
X140542153Y-106630339D01*
X140612530Y-106984149D01*
X140817076Y-107290272D01*
X140912836Y-107386032D01*
X141218960Y-107590578D01*
X141572770Y-107660955D01*
X141926580Y-107590578D01*
X142232704Y-107386032D01*
X142328463Y-107290273D01*
X142533009Y-106984149D01*
X142603386Y-106630339D01*
X143653423Y-106630339D01*
X143723800Y-106984149D01*
X143928346Y-107290272D01*
X144024106Y-107386032D01*
X144286249Y-107561191D01*
X144349027Y-107359014D01*
X144350104Y-107355804D01*
X144351660Y-107351499D01*
X144352886Y-107348337D01*
X144358068Y-107335825D01*
X144359439Y-107332718D01*
X144361385Y-107328569D01*
X144362893Y-107325536D01*
X144463597Y-107134130D01*
X144465244Y-107131166D01*
X144467561Y-107127213D01*
X144469343Y-107124327D01*
X144476719Y-107112970D01*
X144478625Y-107110177D01*
X144481291Y-107106456D01*
X144483332Y-107103742D01*
X144617230Y-106933893D01*
X144619394Y-106931274D01*
X144622390Y-106927813D01*
X144624659Y-106925309D01*
X144633980Y-106915486D01*
X144636370Y-106913081D01*
X144639673Y-106909905D01*
X144642171Y-106907610D01*
X144804780Y-106765006D01*
X144807378Y-106762831D01*
X144810956Y-106759972D01*
X144813654Y-106757916D01*
X144824610Y-106749956D01*
X144827398Y-106748026D01*
X144831222Y-106745507D01*
X144834094Y-106743708D01*
X145019967Y-106633125D01*
X145022925Y-106631456D01*
X145025015Y-106630339D01*
X146764693Y-106630339D01*
X146835070Y-106984149D01*
X146973503Y-107191328D01*
X147003597Y-107134130D01*
X147005244Y-107131166D01*
X147007561Y-107127213D01*
X147009343Y-107124327D01*
X147016719Y-107112970D01*
X147018625Y-107110177D01*
X147021291Y-107106456D01*
X147023332Y-107103742D01*
X147157230Y-106933893D01*
X147159394Y-106931274D01*
X147162390Y-106927813D01*
X147164659Y-106925309D01*
X147173980Y-106915486D01*
X147176370Y-106913081D01*
X147179673Y-106909905D01*
X147182171Y-106907610D01*
X147344780Y-106765006D01*
X147347378Y-106762831D01*
X147350956Y-106759972D01*
X147353654Y-106757916D01*
X147364610Y-106749956D01*
X147367398Y-106748026D01*
X147371222Y-106745507D01*
X147374094Y-106743708D01*
X147559967Y-106633125D01*
X147562925Y-106631456D01*
X147566965Y-106629297D01*
X147569985Y-106627771D01*
X147582208Y-106621941D01*
X147585287Y-106620557D01*
X147589506Y-106618776D01*
X147592672Y-106617525D01*
X147795585Y-106542666D01*
X147798803Y-106541562D01*
X147803168Y-106540176D01*
X147806411Y-106539227D01*
X147819492Y-106535722D01*
X147822779Y-106534922D01*
X147827253Y-106533940D01*
X147830586Y-106533288D01*
X148043743Y-106496661D01*
X148047092Y-106496164D01*
X148051634Y-106495596D01*
X148055009Y-106495252D01*
X148068510Y-106494189D01*
X148071895Y-106494001D01*
X148076474Y-106493851D01*
X148079866Y-106493817D01*
X148296128Y-106496648D01*
X148299520Y-106496771D01*
X148304094Y-106497041D01*
X148307471Y-106497318D01*
X148320939Y-106498734D01*
X148324304Y-106499166D01*
X148328831Y-106499853D01*
X148332165Y-106500437D01*
X148544290Y-106542632D01*
X148547595Y-106543368D01*
X148552041Y-106544466D01*
X148555316Y-106545355D01*
X148568300Y-106549201D01*
X148571521Y-106550236D01*
X148575848Y-106551736D01*
X148579031Y-106552922D01*
X148779915Y-106633066D01*
X148783042Y-106634398D01*
X148787212Y-106636288D01*
X148790257Y-106637753D01*
X148802324Y-106643901D01*
X148805311Y-106645510D01*
X148809294Y-106647775D01*
X148812201Y-106649517D01*
X148821006Y-106655073D01*
X148825926Y-106630339D01*
X149875963Y-106630339D01*
X149946340Y-106984149D01*
X150150886Y-107290273D01*
X150246645Y-107386032D01*
X150552769Y-107590578D01*
X150906579Y-107660955D01*
X151260389Y-107590578D01*
X151566513Y-107386032D01*
X151662273Y-107290272D01*
X151866819Y-106984149D01*
X151937196Y-106630339D01*
X151866819Y-106276529D01*
X151662273Y-105970405D01*
X151566513Y-105874645D01*
X151260389Y-105670099D01*
X150906579Y-105599722D01*
X150552769Y-105670099D01*
X150246645Y-105874645D01*
X150150886Y-105970404D01*
X149946340Y-106276529D01*
X149875963Y-106630339D01*
X148825926Y-106630339D01*
X148755549Y-106276529D01*
X148551003Y-105970405D01*
X148455243Y-105874645D01*
X148149119Y-105670099D01*
X147795309Y-105599722D01*
X147441499Y-105670099D01*
X147135376Y-105874645D01*
X147039616Y-105970405D01*
X146835070Y-106276529D01*
X146764693Y-106630339D01*
X145025015Y-106630339D01*
X145026965Y-106629297D01*
X145029985Y-106627771D01*
X145042208Y-106621941D01*
X145045287Y-106620557D01*
X145049506Y-106618776D01*
X145052672Y-106617525D01*
X145255585Y-106542666D01*
X145258803Y-106541562D01*
X145263168Y-106540176D01*
X145266411Y-106539227D01*
X145279492Y-106535722D01*
X145282779Y-106534922D01*
X145287253Y-106533940D01*
X145290586Y-106533288D01*
X145503743Y-106496661D01*
X145507092Y-106496164D01*
X145511634Y-106495596D01*
X145515009Y-106495252D01*
X145528510Y-106494189D01*
X145531895Y-106494001D01*
X145536474Y-106493851D01*
X145539866Y-106493817D01*
X145687886Y-106495755D01*
X145644279Y-106276529D01*
X145439733Y-105970405D01*
X145343973Y-105874645D01*
X145037850Y-105670099D01*
X144684040Y-105599722D01*
X144330229Y-105670099D01*
X144024106Y-105874645D01*
X143928346Y-105970405D01*
X143723800Y-106276529D01*
X143653423Y-106630339D01*
X142603386Y-106630339D01*
X142533009Y-106276529D01*
X142328463Y-105970404D01*
X142232704Y-105874645D01*
X141926580Y-105670099D01*
X141572770Y-105599722D01*
X141218960Y-105670099D01*
X140912836Y-105874645D01*
X140817076Y-105970405D01*
X140612530Y-106276529D01*
X140542153Y-106630339D01*
X138310000Y-106630339D01*
X138310000Y-106203463D01*
X138327313Y-106155897D01*
X138371150Y-106130587D01*
X138421000Y-106139377D01*
X138435635Y-106150456D01*
X138536243Y-106248464D01*
X138539062Y-106250348D01*
X138539065Y-106250350D01*
X138713252Y-106366738D01*
X138713257Y-106366741D01*
X138716074Y-106368623D01*
X138719194Y-106369963D01*
X138719195Y-106369964D01*
X138911671Y-106452659D01*
X138911675Y-106452660D01*
X138914791Y-106453999D01*
X139021295Y-106478098D01*
X139122423Y-106500981D01*
X139122426Y-106500981D01*
X139125739Y-106501731D01*
X139233796Y-106505977D01*
X139338458Y-106510089D01*
X139338462Y-106510089D01*
X139341853Y-106510222D01*
X139484340Y-106489563D01*
X139552538Y-106479675D01*
X139552539Y-106479675D01*
X139555896Y-106479188D01*
X139760698Y-106409666D01*
X139763650Y-106408013D01*
X139763654Y-106408011D01*
X139946443Y-106305645D01*
X139946446Y-106305643D01*
X139949403Y-106303987D01*
X139952008Y-106301820D01*
X139952013Y-106301817D01*
X140113080Y-106167857D01*
X140115688Y-106165688D01*
X140137571Y-106139377D01*
X140251817Y-106002013D01*
X140251820Y-106002008D01*
X140253987Y-105999403D01*
X140255645Y-105996443D01*
X140358011Y-105813654D01*
X140358013Y-105813650D01*
X140359666Y-105810698D01*
X140429188Y-105605896D01*
X140432452Y-105583383D01*
X140459909Y-105394015D01*
X140459910Y-105394007D01*
X140460222Y-105391853D01*
X140461842Y-105330000D01*
X140459603Y-105305626D01*
X140442362Y-105118003D01*
X140442052Y-105114626D01*
X140441133Y-105111368D01*
X140441132Y-105111362D01*
X140430793Y-105074704D01*
X142097788Y-105074704D01*
X142168165Y-105428514D01*
X142372711Y-105734637D01*
X142468471Y-105830397D01*
X142774595Y-106034943D01*
X143128405Y-106105320D01*
X143482215Y-106034943D01*
X143788338Y-105830397D01*
X143884098Y-105734637D01*
X144088644Y-105428514D01*
X144159021Y-105074704D01*
X145209058Y-105074704D01*
X145279435Y-105428514D01*
X145483981Y-105734637D01*
X145579741Y-105830397D01*
X145885864Y-106034943D01*
X146239674Y-106105320D01*
X146593485Y-106034943D01*
X146899608Y-105830397D01*
X146995368Y-105734637D01*
X147199914Y-105428514D01*
X147270291Y-105074704D01*
X148320328Y-105074704D01*
X148390705Y-105428514D01*
X148595251Y-105734637D01*
X148691011Y-105830397D01*
X148997134Y-106034943D01*
X149350944Y-106105320D01*
X149704754Y-106034943D01*
X150010878Y-105830397D01*
X150106638Y-105734637D01*
X150311184Y-105428514D01*
X150381561Y-105074704D01*
X150311184Y-104720894D01*
X150106638Y-104414770D01*
X150010878Y-104319010D01*
X149704754Y-104114464D01*
X149350944Y-104044087D01*
X148997134Y-104114464D01*
X148691011Y-104319010D01*
X148595251Y-104414770D01*
X148390705Y-104720894D01*
X148320328Y-105074704D01*
X147270291Y-105074704D01*
X147199914Y-104720894D01*
X146995368Y-104414770D01*
X146899608Y-104319010D01*
X146593485Y-104114464D01*
X146239674Y-104044087D01*
X145885864Y-104114464D01*
X145579741Y-104319010D01*
X145483981Y-104414770D01*
X145279435Y-104720894D01*
X145209058Y-105074704D01*
X144159021Y-105074704D01*
X144088644Y-104720894D01*
X143884098Y-104414770D01*
X143788338Y-104319010D01*
X143482215Y-104114464D01*
X143128405Y-104044087D01*
X142774595Y-104114464D01*
X142468471Y-104319010D01*
X142372711Y-104414770D01*
X142168165Y-104720894D01*
X142097788Y-105074704D01*
X140430793Y-105074704D01*
X140384266Y-104909731D01*
X140384265Y-104909729D01*
X140383345Y-104906466D01*
X140287686Y-104712489D01*
X140248089Y-104659461D01*
X140160312Y-104541914D01*
X140160311Y-104541913D01*
X140158280Y-104539193D01*
X140155789Y-104536890D01*
X140155786Y-104536887D01*
X140001952Y-104394685D01*
X140001948Y-104394682D01*
X139999460Y-104392382D01*
X139973661Y-104376104D01*
X139819406Y-104278776D01*
X139819405Y-104278775D01*
X139816545Y-104276971D01*
X139813407Y-104275719D01*
X139813401Y-104275716D01*
X139618815Y-104198085D01*
X139618812Y-104198084D01*
X139615661Y-104196827D01*
X139612334Y-104196165D01*
X139612330Y-104196164D01*
X139406860Y-104155293D01*
X139406858Y-104155293D01*
X139403536Y-104154632D01*
X139308358Y-104153386D01*
X139190667Y-104151845D01*
X139190662Y-104151845D01*
X139187274Y-104151801D01*
X139183928Y-104152376D01*
X139183927Y-104152376D01*
X139124049Y-104162665D01*
X138974117Y-104188428D01*
X138771204Y-104263287D01*
X138585331Y-104373870D01*
X138582787Y-104376101D01*
X138582783Y-104376104D01*
X138432792Y-104507643D01*
X138385614Y-104525989D01*
X138337682Y-104509718D01*
X138311422Y-104466444D01*
X138310000Y-104452007D01*
X138310000Y-103663463D01*
X138327313Y-103615897D01*
X138371150Y-103590587D01*
X138421000Y-103599377D01*
X138435635Y-103610456D01*
X138536243Y-103708464D01*
X138539062Y-103710348D01*
X138539065Y-103710350D01*
X138713252Y-103826738D01*
X138713257Y-103826741D01*
X138716074Y-103828623D01*
X138719194Y-103829963D01*
X138719195Y-103829964D01*
X138911671Y-103912659D01*
X138911675Y-103912660D01*
X138914791Y-103913999D01*
X139021295Y-103938098D01*
X139122423Y-103960981D01*
X139122426Y-103960981D01*
X139125739Y-103961731D01*
X139233796Y-103965976D01*
X139338458Y-103970089D01*
X139338462Y-103970089D01*
X139341853Y-103970222D01*
X139484340Y-103949563D01*
X139552538Y-103939675D01*
X139552539Y-103939675D01*
X139555896Y-103939188D01*
X139760698Y-103869666D01*
X139763650Y-103868013D01*
X139763654Y-103868011D01*
X139946443Y-103765645D01*
X139946446Y-103765643D01*
X139949403Y-103763987D01*
X139952008Y-103761820D01*
X139952013Y-103761817D01*
X140113080Y-103627857D01*
X140115688Y-103625688D01*
X140143278Y-103592515D01*
X140204363Y-103519069D01*
X140542153Y-103519069D01*
X140612530Y-103872879D01*
X140817076Y-104179003D01*
X140912835Y-104274762D01*
X141218960Y-104479308D01*
X141572770Y-104549685D01*
X141926580Y-104479308D01*
X142232705Y-104274762D01*
X142328463Y-104179004D01*
X142533009Y-103872879D01*
X142603386Y-103519069D01*
X143653423Y-103519069D01*
X143723800Y-103872879D01*
X143928346Y-104179003D01*
X144024105Y-104274762D01*
X144330229Y-104479308D01*
X144684040Y-104549685D01*
X145037850Y-104479308D01*
X145343974Y-104274762D01*
X145439733Y-104179003D01*
X145644279Y-103872879D01*
X145714656Y-103519069D01*
X146764693Y-103519069D01*
X146835070Y-103872879D01*
X147039616Y-104179003D01*
X147135375Y-104274762D01*
X147441499Y-104479308D01*
X147795309Y-104549685D01*
X148149119Y-104479308D01*
X148455244Y-104274762D01*
X148551003Y-104179003D01*
X148755549Y-103872879D01*
X148825926Y-103519069D01*
X148755549Y-103165259D01*
X148551003Y-102859135D01*
X148455243Y-102763375D01*
X148149119Y-102558829D01*
X147795309Y-102488452D01*
X147441499Y-102558829D01*
X147135376Y-102763375D01*
X147039616Y-102859135D01*
X146835070Y-103165259D01*
X146764693Y-103519069D01*
X145714656Y-103519069D01*
X145644279Y-103165259D01*
X145439733Y-102859135D01*
X145343973Y-102763375D01*
X145037850Y-102558829D01*
X144684040Y-102488452D01*
X144330229Y-102558829D01*
X144024106Y-102763375D01*
X143928346Y-102859135D01*
X143723800Y-103165259D01*
X143653423Y-103519069D01*
X142603386Y-103519069D01*
X142533009Y-103165259D01*
X142328463Y-102859134D01*
X142232704Y-102763375D01*
X141926580Y-102558829D01*
X141572770Y-102488452D01*
X141218960Y-102558829D01*
X140912836Y-102763375D01*
X140817076Y-102859135D01*
X140612530Y-103165259D01*
X140542153Y-103519069D01*
X140204363Y-103519069D01*
X140251817Y-103462013D01*
X140251820Y-103462008D01*
X140253987Y-103459403D01*
X140356528Y-103276302D01*
X140358011Y-103273654D01*
X140358013Y-103273650D01*
X140359666Y-103270698D01*
X140429188Y-103065896D01*
X140437092Y-103011385D01*
X140459909Y-102854015D01*
X140459910Y-102854007D01*
X140460222Y-102851853D01*
X140461842Y-102790000D01*
X140442052Y-102574626D01*
X140441133Y-102571368D01*
X140441132Y-102571362D01*
X140384266Y-102369731D01*
X140384265Y-102369729D01*
X140383345Y-102366466D01*
X140287686Y-102172489D01*
X140270390Y-102149326D01*
X140160312Y-102001914D01*
X140160311Y-102001913D01*
X140158280Y-101999193D01*
X140155789Y-101996890D01*
X140155786Y-101996887D01*
X140119597Y-101963434D01*
X142097788Y-101963434D01*
X142168165Y-102317244D01*
X142372711Y-102623368D01*
X142468470Y-102719127D01*
X142774595Y-102923673D01*
X143128405Y-102994050D01*
X143482215Y-102923673D01*
X143788339Y-102719127D01*
X143884098Y-102623368D01*
X144088644Y-102317244D01*
X144159021Y-101963434D01*
X145209058Y-101963434D01*
X145279435Y-102317244D01*
X145483981Y-102623368D01*
X145579740Y-102719127D01*
X145885864Y-102923673D01*
X146239674Y-102994050D01*
X146593485Y-102923673D01*
X146899609Y-102719127D01*
X146995368Y-102623368D01*
X147199914Y-102317244D01*
X147270291Y-101963434D01*
X147199914Y-101609624D01*
X146995368Y-101303500D01*
X146899608Y-101207740D01*
X146593485Y-101003194D01*
X146239674Y-100932818D01*
X145885864Y-101003194D01*
X145579741Y-101207740D01*
X145483981Y-101303500D01*
X145279435Y-101609624D01*
X145209058Y-101963434D01*
X144159021Y-101963434D01*
X144088644Y-101609624D01*
X143884098Y-101303500D01*
X143788338Y-101207740D01*
X143482215Y-101003194D01*
X143128405Y-100932818D01*
X142774595Y-101003194D01*
X142468471Y-101207740D01*
X142372711Y-101303500D01*
X142168165Y-101609624D01*
X142097788Y-101963434D01*
X140119597Y-101963434D01*
X140001952Y-101854685D01*
X140001948Y-101854682D01*
X139999460Y-101852382D01*
X139816545Y-101736971D01*
X139813407Y-101735719D01*
X139813401Y-101735716D01*
X139618815Y-101658085D01*
X139618812Y-101658084D01*
X139615661Y-101656827D01*
X139612334Y-101656165D01*
X139612330Y-101656164D01*
X139406860Y-101615293D01*
X139406858Y-101615293D01*
X139403536Y-101614632D01*
X139308358Y-101613386D01*
X139190667Y-101611845D01*
X139190662Y-101611845D01*
X139187274Y-101611801D01*
X139183928Y-101612376D01*
X139183927Y-101612376D01*
X139124049Y-101622665D01*
X138974117Y-101648428D01*
X138771204Y-101723287D01*
X138585331Y-101833870D01*
X138582787Y-101836101D01*
X138582783Y-101836104D01*
X138432792Y-101967643D01*
X138385614Y-101985989D01*
X138337682Y-101969718D01*
X138311422Y-101926444D01*
X138310000Y-101912007D01*
X138310000Y-101123463D01*
X138327313Y-101075897D01*
X138371150Y-101050587D01*
X138421000Y-101059377D01*
X138435635Y-101070456D01*
X138536243Y-101168464D01*
X138539062Y-101170348D01*
X138539065Y-101170350D01*
X138713252Y-101286738D01*
X138713257Y-101286741D01*
X138716074Y-101288623D01*
X138719194Y-101289963D01*
X138719195Y-101289964D01*
X138911671Y-101372659D01*
X138911675Y-101372660D01*
X138914791Y-101373999D01*
X139021295Y-101398098D01*
X139122423Y-101420981D01*
X139122426Y-101420981D01*
X139125739Y-101421731D01*
X139233796Y-101425976D01*
X139338458Y-101430089D01*
X139338462Y-101430089D01*
X139341853Y-101430222D01*
X139484340Y-101409563D01*
X139552538Y-101399675D01*
X139552539Y-101399675D01*
X139555896Y-101399188D01*
X139760698Y-101329666D01*
X139763650Y-101328013D01*
X139763654Y-101328011D01*
X139946443Y-101225645D01*
X139946446Y-101225643D01*
X139949403Y-101223987D01*
X139952008Y-101221820D01*
X139952013Y-101221817D01*
X140113080Y-101087857D01*
X140115688Y-101085688D01*
X140138362Y-101058426D01*
X140251817Y-100922013D01*
X140251820Y-100922008D01*
X140253987Y-100919403D01*
X140299659Y-100837849D01*
X140358011Y-100733654D01*
X140358013Y-100733650D01*
X140359666Y-100730698D01*
X140383386Y-100660823D01*
X140592483Y-100660823D01*
X140612530Y-100761609D01*
X140817076Y-101067733D01*
X140912835Y-101163492D01*
X141218960Y-101368038D01*
X141572770Y-101438415D01*
X141926580Y-101368038D01*
X142232705Y-101163492D01*
X142328463Y-101067734D01*
X142533009Y-100761609D01*
X142603386Y-100407799D01*
X143653423Y-100407799D01*
X143723800Y-100761609D01*
X143928346Y-101067733D01*
X144024105Y-101163492D01*
X144330229Y-101368038D01*
X144684040Y-101438415D01*
X145037850Y-101368038D01*
X145343974Y-101163492D01*
X145439733Y-101067733D01*
X145644279Y-100761609D01*
X145714656Y-100407799D01*
X146764693Y-100407799D01*
X146835070Y-100761609D01*
X147039616Y-101067733D01*
X147135375Y-101163492D01*
X147441499Y-101368038D01*
X147795309Y-101438415D01*
X148087237Y-101380347D01*
X147999769Y-101070213D01*
X147999383Y-101068790D01*
X147998887Y-101066887D01*
X147998538Y-101065493D01*
X147997182Y-101059843D01*
X147996857Y-101058426D01*
X147996437Y-101056511D01*
X147996141Y-101055095D01*
X147912967Y-100636950D01*
X147912697Y-100635522D01*
X147912352Y-100633590D01*
X147912111Y-100632158D01*
X147911202Y-100626419D01*
X147910989Y-100624980D01*
X147910720Y-100623035D01*
X147910535Y-100621595D01*
X147860425Y-100198213D01*
X147860271Y-100196792D01*
X147860078Y-100194839D01*
X147859947Y-100193369D01*
X147859491Y-100187576D01*
X147859390Y-100186101D01*
X147859275Y-100184140D01*
X147859205Y-100182713D01*
X147843252Y-99776680D01*
X147842950Y-99774130D01*
X147842335Y-99766312D01*
X147842107Y-99760509D01*
X147842107Y-99737356D01*
X147842335Y-99731546D01*
X147842951Y-99723724D01*
X147843634Y-99717958D01*
X147846500Y-99699863D01*
X147846500Y-99578145D01*
X147838970Y-99432419D01*
X147830358Y-99384154D01*
X147795310Y-99377183D01*
X147441499Y-99447559D01*
X147135376Y-99652105D01*
X147039616Y-99747865D01*
X146835070Y-100053989D01*
X146764693Y-100407799D01*
X145714656Y-100407799D01*
X145644279Y-100053989D01*
X145439733Y-99747865D01*
X145343973Y-99652105D01*
X145037850Y-99447559D01*
X144684040Y-99377183D01*
X144330229Y-99447559D01*
X144024106Y-99652105D01*
X143928346Y-99747865D01*
X143723800Y-100053989D01*
X143653423Y-100407799D01*
X142603386Y-100407799D01*
X142533009Y-100053989D01*
X142328463Y-99747864D01*
X142232704Y-99652105D01*
X141926580Y-99447559D01*
X141572770Y-99377183D01*
X141218960Y-99447559D01*
X140912836Y-99652105D01*
X140817076Y-99747865D01*
X140638979Y-100014404D01*
X140639222Y-100016509D01*
X140659012Y-100231883D01*
X140659179Y-100234055D01*
X140659362Y-100236994D01*
X140659465Y-100239172D01*
X140659750Y-100247880D01*
X140659790Y-100250050D01*
X140659800Y-100252995D01*
X140659775Y-100255183D01*
X140658155Y-100317036D01*
X140658065Y-100319216D01*
X140657901Y-100322159D01*
X140657748Y-100324336D01*
X140657007Y-100333017D01*
X140656791Y-100335177D01*
X140656455Y-100338099D01*
X140656173Y-100340263D01*
X140625139Y-100554306D01*
X140624575Y-100557653D01*
X140623711Y-100562149D01*
X140622997Y-100565456D01*
X140619836Y-100578625D01*
X140618967Y-100581910D01*
X140617694Y-100586312D01*
X140616680Y-100589542D01*
X140592483Y-100660823D01*
X140383386Y-100660823D01*
X140429188Y-100525896D01*
X140442384Y-100434881D01*
X140459909Y-100314015D01*
X140459910Y-100314007D01*
X140460222Y-100311853D01*
X140461842Y-100250000D01*
X140457084Y-100198213D01*
X140442362Y-100038003D01*
X140442052Y-100034626D01*
X140441133Y-100031368D01*
X140441132Y-100031362D01*
X140384266Y-99829731D01*
X140384265Y-99829729D01*
X140383345Y-99826466D01*
X140287686Y-99632489D01*
X140278950Y-99620789D01*
X140160312Y-99461914D01*
X140160311Y-99461913D01*
X140158280Y-99459193D01*
X140155789Y-99456890D01*
X140155786Y-99456887D01*
X140001952Y-99314685D01*
X140001948Y-99314682D01*
X139999460Y-99312382D01*
X139967122Y-99291978D01*
X139819406Y-99198776D01*
X139819405Y-99198775D01*
X139816545Y-99196971D01*
X139813403Y-99195717D01*
X139813400Y-99195716D01*
X139624377Y-99120304D01*
X139586612Y-99086598D01*
X139580575Y-99039397D01*
X139579385Y-99039280D01*
X139579823Y-99034812D01*
X139580000Y-99033007D01*
X139580000Y-98878685D01*
X139597313Y-98831119D01*
X139641150Y-98805809D01*
X139691000Y-98814599D01*
X139721629Y-98848646D01*
X139722014Y-98849513D01*
X139748061Y-98908153D01*
X139827287Y-98987241D01*
X139833535Y-98990003D01*
X139833536Y-98990004D01*
X139924583Y-99030256D01*
X139924585Y-99030256D01*
X139929673Y-99032506D01*
X139935201Y-99033150D01*
X139935203Y-99033151D01*
X139953225Y-99035252D01*
X139953229Y-99035252D01*
X139955354Y-99035500D01*
X141744646Y-99035500D01*
X141770846Y-99032382D01*
X141844683Y-98999585D01*
X142127111Y-98999585D01*
X142168165Y-99205974D01*
X142372711Y-99512098D01*
X142468471Y-99607858D01*
X142774595Y-99812404D01*
X143128405Y-99882780D01*
X143482215Y-99812404D01*
X143788338Y-99607858D01*
X143884098Y-99512098D01*
X144088644Y-99205974D01*
X144119325Y-99051732D01*
X145248755Y-99051732D01*
X145279435Y-99205974D01*
X145483981Y-99512098D01*
X145579741Y-99607858D01*
X145885864Y-99812404D01*
X146239674Y-99882780D01*
X146593485Y-99812404D01*
X146899608Y-99607858D01*
X146995368Y-99512098D01*
X147199914Y-99205974D01*
X147270291Y-98852164D01*
X147199914Y-98498354D01*
X147162791Y-98442797D01*
X147161932Y-98444614D01*
X147159879Y-98448709D01*
X147158292Y-98451702D01*
X147054974Y-98636189D01*
X147053251Y-98639106D01*
X147050831Y-98642998D01*
X147048972Y-98645841D01*
X147041301Y-98657001D01*
X147039314Y-98659754D01*
X147036551Y-98663403D01*
X147034449Y-98666050D01*
X146899242Y-98828620D01*
X146897011Y-98831182D01*
X146893924Y-98834565D01*
X146891587Y-98837011D01*
X146882011Y-98846587D01*
X146879565Y-98848924D01*
X146876182Y-98852011D01*
X146873620Y-98854242D01*
X146711050Y-98989449D01*
X146708403Y-98991551D01*
X146704754Y-98994314D01*
X146702001Y-98996301D01*
X146690841Y-99003972D01*
X146687998Y-99005831D01*
X146684106Y-99008251D01*
X146681189Y-99009974D01*
X146496702Y-99113292D01*
X146493709Y-99114879D01*
X146489614Y-99116932D01*
X146486546Y-99118383D01*
X146474174Y-99123891D01*
X146471049Y-99125197D01*
X146466785Y-99126866D01*
X146463599Y-99128030D01*
X146263374Y-99195997D01*
X146260139Y-99197013D01*
X146255739Y-99198285D01*
X146252462Y-99199152D01*
X146239295Y-99202313D01*
X146235983Y-99203028D01*
X146231486Y-99203892D01*
X146228143Y-99204455D01*
X146018883Y-99234797D01*
X146015504Y-99235208D01*
X146010947Y-99235656D01*
X146007581Y-99235910D01*
X145994057Y-99236619D01*
X145990668Y-99236718D01*
X145986087Y-99236748D01*
X145982697Y-99236693D01*
X145771413Y-99228391D01*
X145768034Y-99228181D01*
X145763470Y-99227792D01*
X145760093Y-99227426D01*
X145746666Y-99225658D01*
X145743318Y-99225139D01*
X145738810Y-99224334D01*
X145735487Y-99223661D01*
X145529254Y-99176995D01*
X145525977Y-99176175D01*
X145521563Y-99174962D01*
X145518308Y-99173986D01*
X145505429Y-99169802D01*
X145502225Y-99168679D01*
X145497937Y-99167065D01*
X145494794Y-99165800D01*
X145300518Y-99082333D01*
X145297426Y-99080919D01*
X145293304Y-99078919D01*
X145290296Y-99077374D01*
X145278395Y-99070912D01*
X145275455Y-99069227D01*
X145271535Y-99066860D01*
X145268674Y-99065042D01*
X145248755Y-99051732D01*
X144119325Y-99051732D01*
X144125931Y-99018519D01*
X143956702Y-99113292D01*
X143953709Y-99114879D01*
X143949614Y-99116932D01*
X143946546Y-99118383D01*
X143934174Y-99123891D01*
X143931049Y-99125197D01*
X143926785Y-99126866D01*
X143923599Y-99128030D01*
X143723374Y-99195997D01*
X143720139Y-99197013D01*
X143715739Y-99198285D01*
X143712462Y-99199152D01*
X143699295Y-99202313D01*
X143695983Y-99203028D01*
X143691486Y-99203892D01*
X143688143Y-99204455D01*
X143478883Y-99234797D01*
X143475504Y-99235208D01*
X143470947Y-99235656D01*
X143467581Y-99235910D01*
X143454057Y-99236619D01*
X143450668Y-99236718D01*
X143446087Y-99236748D01*
X143442697Y-99236693D01*
X143231413Y-99228391D01*
X143228034Y-99228181D01*
X143223470Y-99227792D01*
X143220093Y-99227426D01*
X143206666Y-99225658D01*
X143203318Y-99225139D01*
X143198810Y-99224334D01*
X143195487Y-99223661D01*
X142989254Y-99176995D01*
X142985977Y-99176175D01*
X142981563Y-99174962D01*
X142978308Y-99173986D01*
X142965429Y-99169802D01*
X142962225Y-99168679D01*
X142957937Y-99167065D01*
X142954794Y-99165800D01*
X142760518Y-99082333D01*
X142757426Y-99080919D01*
X142753304Y-99078919D01*
X142750296Y-99077374D01*
X142738395Y-99070912D01*
X142735455Y-99069227D01*
X142731535Y-99066860D01*
X142728674Y-99065042D01*
X142552862Y-98947568D01*
X142550085Y-98945619D01*
X142546398Y-98942903D01*
X142543717Y-98940832D01*
X142533192Y-98932309D01*
X142530613Y-98930121D01*
X142527189Y-98927079D01*
X142524701Y-98924764D01*
X142373241Y-98777218D01*
X142370860Y-98774789D01*
X142367729Y-98771445D01*
X142365476Y-98768926D01*
X142356682Y-98758629D01*
X142354542Y-98756004D01*
X142351731Y-98752390D01*
X142349711Y-98749666D01*
X142227675Y-98576989D01*
X142225784Y-98574179D01*
X142223316Y-98570324D01*
X142221554Y-98567428D01*
X142214782Y-98555700D01*
X142213153Y-98552724D01*
X142211046Y-98548655D01*
X142209556Y-98545609D01*
X142198500Y-98521627D01*
X142198500Y-98779646D01*
X142198469Y-98781788D01*
X142198385Y-98784689D01*
X142198291Y-98786840D01*
X142197793Y-98795409D01*
X142197638Y-98797546D01*
X142197386Y-98800435D01*
X142197168Y-98802574D01*
X142194174Y-98828255D01*
X142193325Y-98833741D01*
X142191901Y-98841102D01*
X142190643Y-98846510D01*
X142184822Y-98867863D01*
X142183158Y-98873170D01*
X142180648Y-98880236D01*
X142178598Y-98885388D01*
X142133333Y-98987774D01*
X142130298Y-98993865D01*
X142127111Y-98999585D01*
X141844683Y-98999585D01*
X141873153Y-98986939D01*
X141952241Y-98907713D01*
X141955289Y-98900820D01*
X141995256Y-98810417D01*
X141995256Y-98810415D01*
X141997506Y-98805327D01*
X141998663Y-98795409D01*
X142000252Y-98781775D01*
X142000252Y-98781771D01*
X142000500Y-98779646D01*
X142000500Y-97854754D01*
X142234967Y-97854754D01*
X142248796Y-98065749D01*
X142249632Y-98069040D01*
X142249632Y-98069041D01*
X142259194Y-98106689D01*
X142300845Y-98270690D01*
X142302261Y-98273762D01*
X142302263Y-98273767D01*
X142384292Y-98451702D01*
X142389369Y-98462714D01*
X142391327Y-98465484D01*
X142509446Y-98632620D01*
X142509450Y-98632624D01*
X142511405Y-98635391D01*
X142513830Y-98637753D01*
X142513834Y-98637758D01*
X142577110Y-98699398D01*
X142662865Y-98782937D01*
X142665683Y-98784820D01*
X142665688Y-98784824D01*
X142821880Y-98889188D01*
X142838677Y-98900411D01*
X142841791Y-98901749D01*
X142841793Y-98901750D01*
X143015654Y-98976446D01*
X143032953Y-98983878D01*
X143147569Y-99009813D01*
X143235337Y-99029673D01*
X143239186Y-99030544D01*
X143344828Y-99034695D01*
X143447075Y-99038713D01*
X143447079Y-99038713D01*
X143450470Y-99038846D01*
X143516075Y-99029333D01*
X143656368Y-99008992D01*
X143656373Y-99008991D01*
X143659730Y-99008504D01*
X143859955Y-98940537D01*
X143862908Y-98938883D01*
X143862913Y-98938881D01*
X144041480Y-98838878D01*
X144041482Y-98838877D01*
X144044442Y-98837219D01*
X144207012Y-98702012D01*
X144337215Y-98545459D01*
X144340045Y-98542056D01*
X144342219Y-98539442D01*
X144352196Y-98521627D01*
X144443881Y-98357913D01*
X144443883Y-98357908D01*
X144445537Y-98354955D01*
X144513504Y-98154730D01*
X144513991Y-98151373D01*
X144513992Y-98151368D01*
X144543533Y-97947629D01*
X144543533Y-97947628D01*
X144543846Y-97945470D01*
X144545429Y-97885000D01*
X144542650Y-97854754D01*
X144774967Y-97854754D01*
X144788796Y-98065749D01*
X144789632Y-98069040D01*
X144789632Y-98069041D01*
X144799194Y-98106689D01*
X144840845Y-98270690D01*
X144842261Y-98273762D01*
X144842263Y-98273767D01*
X144924292Y-98451702D01*
X144929369Y-98462714D01*
X144931327Y-98465484D01*
X145049446Y-98632620D01*
X145049450Y-98632624D01*
X145051405Y-98635391D01*
X145053830Y-98637753D01*
X145053834Y-98637758D01*
X145117110Y-98699398D01*
X145202865Y-98782937D01*
X145205683Y-98784820D01*
X145205688Y-98784824D01*
X145361880Y-98889188D01*
X145378677Y-98900411D01*
X145381791Y-98901749D01*
X145381793Y-98901750D01*
X145555654Y-98976446D01*
X145572953Y-98983878D01*
X145687569Y-99009813D01*
X145775337Y-99029673D01*
X145779186Y-99030544D01*
X145884828Y-99034695D01*
X145987075Y-99038713D01*
X145987079Y-99038713D01*
X145990470Y-99038846D01*
X146056075Y-99029333D01*
X146196368Y-99008992D01*
X146196373Y-99008991D01*
X146199730Y-99008504D01*
X146399955Y-98940537D01*
X146402908Y-98938883D01*
X146402913Y-98938881D01*
X146581480Y-98838878D01*
X146581482Y-98838877D01*
X146584442Y-98837219D01*
X146747012Y-98702012D01*
X146877215Y-98545459D01*
X146880045Y-98542056D01*
X146882219Y-98539442D01*
X146892196Y-98521627D01*
X146983881Y-98357913D01*
X146983883Y-98357908D01*
X146985537Y-98354955D01*
X147053504Y-98154730D01*
X147053991Y-98151373D01*
X147053992Y-98151368D01*
X147083533Y-97947629D01*
X147083533Y-97947628D01*
X147083846Y-97945470D01*
X147085429Y-97885000D01*
X147071646Y-97735000D01*
X147066392Y-97677819D01*
X147066391Y-97677814D01*
X147066081Y-97674440D01*
X147056801Y-97641533D01*
X147016571Y-97498891D01*
X147008686Y-97470931D01*
X146915165Y-97281290D01*
X146898300Y-97258704D01*
X146790683Y-97114588D01*
X146790682Y-97114587D01*
X146788651Y-97111867D01*
X146713621Y-97042510D01*
X146635873Y-96970640D01*
X146635869Y-96970637D01*
X146633381Y-96968337D01*
X146618714Y-96959083D01*
X146457415Y-96857310D01*
X146457414Y-96857309D01*
X146454554Y-96855505D01*
X146451412Y-96854251D01*
X146451409Y-96854250D01*
X146261314Y-96778410D01*
X146261311Y-96778409D01*
X146258160Y-96777152D01*
X146070734Y-96739871D01*
X146054099Y-96736562D01*
X146054097Y-96736562D01*
X146050775Y-96735901D01*
X145957571Y-96734681D01*
X145842739Y-96733177D01*
X145842734Y-96733177D01*
X145839346Y-96733133D01*
X145836000Y-96733708D01*
X145835999Y-96733708D01*
X145778864Y-96743526D01*
X145630953Y-96768941D01*
X145432575Y-96842127D01*
X145250856Y-96950238D01*
X145248312Y-96952469D01*
X145248308Y-96952472D01*
X145161282Y-97028792D01*
X145091881Y-97089655D01*
X145089784Y-97092314D01*
X145089783Y-97092316D01*
X145072226Y-97114588D01*
X144960976Y-97255708D01*
X144862523Y-97442836D01*
X144861517Y-97446075D01*
X144861516Y-97446078D01*
X144845117Y-97498891D01*
X144799820Y-97644773D01*
X144774967Y-97854754D01*
X144542650Y-97854754D01*
X144531646Y-97735000D01*
X144526392Y-97677819D01*
X144526391Y-97677814D01*
X144526081Y-97674440D01*
X144516801Y-97641533D01*
X144476571Y-97498891D01*
X144468686Y-97470931D01*
X144375165Y-97281290D01*
X144358300Y-97258704D01*
X144250683Y-97114588D01*
X144250682Y-97114587D01*
X144248651Y-97111867D01*
X144173621Y-97042510D01*
X144095873Y-96970640D01*
X144095869Y-96970637D01*
X144093381Y-96968337D01*
X144078714Y-96959083D01*
X143917415Y-96857310D01*
X143917414Y-96857309D01*
X143914554Y-96855505D01*
X143911412Y-96854251D01*
X143911409Y-96854250D01*
X143721314Y-96778410D01*
X143721311Y-96778409D01*
X143718160Y-96777152D01*
X143530734Y-96739871D01*
X143514099Y-96736562D01*
X143514097Y-96736562D01*
X143510775Y-96735901D01*
X143417571Y-96734681D01*
X143302739Y-96733177D01*
X143302734Y-96733177D01*
X143299346Y-96733133D01*
X143296000Y-96733708D01*
X143295999Y-96733708D01*
X143238864Y-96743526D01*
X143090953Y-96768941D01*
X142892575Y-96842127D01*
X142710856Y-96950238D01*
X142708312Y-96952469D01*
X142708308Y-96952472D01*
X142621282Y-97028792D01*
X142551881Y-97089655D01*
X142549784Y-97092314D01*
X142549783Y-97092316D01*
X142532226Y-97114588D01*
X142420976Y-97255708D01*
X142322523Y-97442836D01*
X142321517Y-97446075D01*
X142321516Y-97446078D01*
X142305117Y-97498891D01*
X142259820Y-97644773D01*
X142234967Y-97854754D01*
X142000500Y-97854754D01*
X142000500Y-96990354D01*
X141997382Y-96964154D01*
X141951939Y-96861847D01*
X141872713Y-96782759D01*
X141866465Y-96779997D01*
X141866464Y-96779996D01*
X141775417Y-96739744D01*
X141775415Y-96739744D01*
X141770327Y-96737494D01*
X141764799Y-96736850D01*
X141764797Y-96736849D01*
X141746775Y-96734748D01*
X141746771Y-96734748D01*
X141744646Y-96734500D01*
X139955354Y-96734500D01*
X139929154Y-96737618D01*
X139826847Y-96783061D01*
X139747759Y-96862287D01*
X139744997Y-96868535D01*
X139744996Y-96868536D01*
X139721681Y-96921273D01*
X139686613Y-96957777D01*
X139636285Y-96963199D01*
X139594246Y-96935003D01*
X139580000Y-96891351D01*
X139580000Y-96588104D01*
X139778000Y-96588104D01*
X139848779Y-96556665D01*
X139853927Y-96554606D01*
X139860974Y-96552089D01*
X139866255Y-96550423D01*
X139887549Y-96544571D01*
X139892934Y-96543305D01*
X139900275Y-96541867D01*
X139905755Y-96541006D01*
X139931955Y-96537888D01*
X139934147Y-96537660D01*
X139937094Y-96537398D01*
X139939263Y-96537237D01*
X139948008Y-96536718D01*
X139950194Y-96536621D01*
X139953156Y-96536533D01*
X139955354Y-96536500D01*
X140617336Y-96536500D01*
X140677070Y-96496587D01*
X140772828Y-96400829D01*
X140977374Y-96094704D01*
X141047751Y-95740894D01*
X142097788Y-95740894D01*
X142168165Y-96094704D01*
X142372711Y-96400828D01*
X142468471Y-96496588D01*
X142759388Y-96690973D01*
X142791338Y-96671965D01*
X142794296Y-96670296D01*
X142798336Y-96668137D01*
X142801356Y-96666611D01*
X142813579Y-96660781D01*
X142816658Y-96659397D01*
X142820877Y-96657616D01*
X142824043Y-96656365D01*
X143022421Y-96583179D01*
X143025639Y-96582075D01*
X143030004Y-96580689D01*
X143033247Y-96579740D01*
X143046328Y-96576235D01*
X143049615Y-96575435D01*
X143054089Y-96574453D01*
X143057422Y-96573801D01*
X143265815Y-96537993D01*
X143269164Y-96537496D01*
X143273706Y-96536928D01*
X143277081Y-96536584D01*
X143290582Y-96535521D01*
X143293968Y-96535333D01*
X143298548Y-96535183D01*
X143301939Y-96535149D01*
X143513368Y-96537917D01*
X143516761Y-96538040D01*
X143521334Y-96538310D01*
X143524710Y-96538587D01*
X143538178Y-96540003D01*
X143541545Y-96540435D01*
X143546071Y-96541122D01*
X143549403Y-96541706D01*
X143681493Y-96567980D01*
X143788338Y-96496588D01*
X143884098Y-96400828D01*
X144088644Y-96094704D01*
X144159021Y-95740894D01*
X145209058Y-95740894D01*
X145279435Y-96094704D01*
X145483981Y-96400828D01*
X145579741Y-96496588D01*
X145675277Y-96560423D01*
X145805815Y-96537993D01*
X145809164Y-96537496D01*
X145813706Y-96536928D01*
X145817081Y-96536584D01*
X145830582Y-96535521D01*
X145833968Y-96535333D01*
X145838548Y-96535183D01*
X145841939Y-96535149D01*
X146053368Y-96537917D01*
X146056761Y-96538040D01*
X146061334Y-96538310D01*
X146064710Y-96538587D01*
X146078178Y-96540003D01*
X146081545Y-96540435D01*
X146086071Y-96541122D01*
X146089403Y-96541706D01*
X146296788Y-96582957D01*
X146300089Y-96583692D01*
X146304536Y-96584790D01*
X146307815Y-96585680D01*
X146320799Y-96589526D01*
X146324034Y-96590566D01*
X146328361Y-96592067D01*
X146331530Y-96593248D01*
X146527924Y-96671601D01*
X146531038Y-96672927D01*
X146535208Y-96674816D01*
X146538266Y-96676287D01*
X146550333Y-96682435D01*
X146553320Y-96684044D01*
X146557303Y-96686309D01*
X146560211Y-96688051D01*
X146583951Y-96703030D01*
X146593485Y-96701134D01*
X146899608Y-96496588D01*
X146995368Y-96400828D01*
X147199914Y-96094704D01*
X147270291Y-95740894D01*
X148320328Y-95740894D01*
X148390705Y-96094704D01*
X148595251Y-96400828D01*
X148691011Y-96496588D01*
X148813270Y-96578279D01*
X148836788Y-96582957D01*
X148840089Y-96583692D01*
X148844536Y-96584790D01*
X148847815Y-96585680D01*
X148860799Y-96589526D01*
X148864034Y-96590566D01*
X148868361Y-96592067D01*
X148871530Y-96593248D01*
X149067924Y-96671601D01*
X149071038Y-96672927D01*
X149075208Y-96674816D01*
X149078266Y-96676287D01*
X149090333Y-96682435D01*
X149093320Y-96684044D01*
X149097303Y-96686309D01*
X149100211Y-96688051D01*
X149177948Y-96737100D01*
X149350943Y-96771510D01*
X149704754Y-96701134D01*
X150010878Y-96496588D01*
X150106638Y-96400828D01*
X150311184Y-96094704D01*
X150381561Y-95740894D01*
X151431598Y-95740894D01*
X151501975Y-96094704D01*
X151706521Y-96400829D01*
X151802280Y-96496588D01*
X152108404Y-96701134D01*
X152462214Y-96771510D01*
X152816024Y-96701134D01*
X153122148Y-96496588D01*
X153217908Y-96400828D01*
X153422454Y-96094704D01*
X153492830Y-95740894D01*
X153422454Y-95387084D01*
X153217908Y-95080960D01*
X153122149Y-94985201D01*
X152816024Y-94780655D01*
X152462214Y-94710278D01*
X152108404Y-94780655D01*
X151802279Y-94985201D01*
X151706521Y-95080959D01*
X151501975Y-95387084D01*
X151431598Y-95740894D01*
X150381561Y-95740894D01*
X150311184Y-95387084D01*
X150106638Y-95080960D01*
X150010879Y-94985201D01*
X149704754Y-94780655D01*
X149350944Y-94710278D01*
X148997134Y-94780655D01*
X148691010Y-94985201D01*
X148595251Y-95080960D01*
X148390705Y-95387084D01*
X148320328Y-95740894D01*
X147270291Y-95740894D01*
X147199914Y-95387084D01*
X146995368Y-95080960D01*
X146899609Y-94985201D01*
X146593485Y-94780655D01*
X146239674Y-94710278D01*
X145885864Y-94780655D01*
X145579740Y-94985201D01*
X145483981Y-95080960D01*
X145279435Y-95387084D01*
X145209058Y-95740894D01*
X144159021Y-95740894D01*
X144088644Y-95387084D01*
X143884098Y-95080960D01*
X143788339Y-94985201D01*
X143482215Y-94780655D01*
X143128405Y-94710278D01*
X142774595Y-94780655D01*
X142468470Y-94985201D01*
X142372711Y-95080960D01*
X142168165Y-95387084D01*
X142097788Y-95740894D01*
X141047751Y-95740894D01*
X140977374Y-95387084D01*
X140772828Y-95080959D01*
X140677070Y-94985201D01*
X140370945Y-94780655D01*
X140017135Y-94710278D01*
X139778000Y-94757845D01*
X139778000Y-96588104D01*
X139580000Y-96588104D01*
X139580000Y-94185259D01*
X140542153Y-94185259D01*
X140612530Y-94539069D01*
X140817076Y-94845193D01*
X140912836Y-94940953D01*
X141218960Y-95145499D01*
X141572770Y-95215876D01*
X141926580Y-95145499D01*
X142232704Y-94940953D01*
X142328463Y-94845194D01*
X142533009Y-94539069D01*
X142603386Y-94185259D01*
X143653423Y-94185259D01*
X143723800Y-94539069D01*
X143928346Y-94845193D01*
X144024106Y-94940953D01*
X144330229Y-95145499D01*
X144684040Y-95215876D01*
X145037850Y-95145499D01*
X145343973Y-94940953D01*
X145439733Y-94845193D01*
X145644279Y-94539069D01*
X145714656Y-94185259D01*
X146764693Y-94185259D01*
X146835070Y-94539069D01*
X147039616Y-94845193D01*
X147135376Y-94940953D01*
X147441499Y-95145499D01*
X147795309Y-95215876D01*
X148149119Y-95145499D01*
X148455243Y-94940953D01*
X148551003Y-94845193D01*
X148755549Y-94539069D01*
X148825926Y-94185259D01*
X149875963Y-94185259D01*
X149946340Y-94539069D01*
X150150886Y-94845194D01*
X150246645Y-94940953D01*
X150552769Y-95145499D01*
X150906579Y-95215876D01*
X151260389Y-95145499D01*
X151566513Y-94940953D01*
X151662273Y-94845193D01*
X151866819Y-94539069D01*
X151937196Y-94185259D01*
X152987233Y-94185259D01*
X153057609Y-94539069D01*
X153262155Y-94845193D01*
X153357915Y-94940953D01*
X153664039Y-95145499D01*
X154017849Y-95215876D01*
X154022000Y-95215051D01*
X154022000Y-93155468D01*
X154017849Y-93154643D01*
X153664039Y-93225020D01*
X153357914Y-93429566D01*
X153262155Y-93525325D01*
X153057609Y-93831449D01*
X152987233Y-94185259D01*
X151937196Y-94185259D01*
X151866819Y-93831449D01*
X151662273Y-93525325D01*
X151566514Y-93429566D01*
X151260389Y-93225020D01*
X150906579Y-93154643D01*
X150552769Y-93225020D01*
X150246644Y-93429566D01*
X150150886Y-93525324D01*
X149946340Y-93831449D01*
X149875963Y-94185259D01*
X148825926Y-94185259D01*
X148755549Y-93831449D01*
X148551003Y-93525325D01*
X148455244Y-93429566D01*
X148149119Y-93225020D01*
X147795309Y-93154643D01*
X147441499Y-93225020D01*
X147135375Y-93429566D01*
X147039616Y-93525325D01*
X146835070Y-93831449D01*
X146764693Y-94185259D01*
X145714656Y-94185259D01*
X145644279Y-93831449D01*
X145439733Y-93525325D01*
X145343974Y-93429566D01*
X145037850Y-93225020D01*
X144684040Y-93154643D01*
X144330229Y-93225020D01*
X144024105Y-93429566D01*
X143928346Y-93525325D01*
X143723800Y-93831449D01*
X143653423Y-94185259D01*
X142603386Y-94185259D01*
X142533009Y-93831449D01*
X142328463Y-93525324D01*
X142232705Y-93429566D01*
X141926580Y-93225020D01*
X141572770Y-93154643D01*
X141218960Y-93225020D01*
X140912835Y-93429566D01*
X140817076Y-93525325D01*
X140612530Y-93831449D01*
X140542153Y-94185259D01*
X139580000Y-94185259D01*
X139580000Y-93612674D01*
X139778000Y-93612674D01*
X140017135Y-93660241D01*
X140370945Y-93589864D01*
X140677069Y-93385318D01*
X140772828Y-93289559D01*
X140977374Y-92983434D01*
X141047751Y-92629624D01*
X142097788Y-92629624D01*
X142168165Y-92983434D01*
X142372711Y-93289558D01*
X142468471Y-93385318D01*
X142774595Y-93589864D01*
X143128405Y-93660241D01*
X143482215Y-93589864D01*
X143788338Y-93385318D01*
X143884098Y-93289558D01*
X144088644Y-92983434D01*
X144159021Y-92629624D01*
X145209058Y-92629624D01*
X145279435Y-92983434D01*
X145483981Y-93289558D01*
X145579741Y-93385318D01*
X145885864Y-93589864D01*
X146239674Y-93660241D01*
X146593485Y-93589864D01*
X146899608Y-93385318D01*
X146995368Y-93289558D01*
X147199914Y-92983434D01*
X147270291Y-92629624D01*
X148320328Y-92629624D01*
X148390705Y-92983434D01*
X148595251Y-93289558D01*
X148691011Y-93385318D01*
X148997134Y-93589864D01*
X149350944Y-93660241D01*
X149704754Y-93589864D01*
X150010878Y-93385318D01*
X150106638Y-93289558D01*
X150311184Y-92983434D01*
X150381561Y-92629624D01*
X151431598Y-92629624D01*
X151501975Y-92983434D01*
X151706521Y-93289559D01*
X151802280Y-93385318D01*
X152108404Y-93589864D01*
X152462214Y-93660241D01*
X152816024Y-93589864D01*
X153122148Y-93385318D01*
X153217908Y-93289558D01*
X153422454Y-92983434D01*
X153492830Y-92629624D01*
X153422454Y-92275814D01*
X153217908Y-91969691D01*
X153122148Y-91873931D01*
X152816024Y-91669385D01*
X152462214Y-91599008D01*
X152108404Y-91669385D01*
X151802280Y-91873931D01*
X151706521Y-91969690D01*
X151501975Y-92275814D01*
X151431598Y-92629624D01*
X150381561Y-92629624D01*
X150311184Y-92275814D01*
X150106638Y-91969691D01*
X150010878Y-91873931D01*
X149704754Y-91669385D01*
X149350944Y-91599008D01*
X148997134Y-91669385D01*
X148691011Y-91873931D01*
X148595251Y-91969691D01*
X148390705Y-92275814D01*
X148320328Y-92629624D01*
X147270291Y-92629624D01*
X147199914Y-92275814D01*
X146995368Y-91969691D01*
X146899608Y-91873931D01*
X146593485Y-91669385D01*
X146239674Y-91599008D01*
X145885864Y-91669385D01*
X145579741Y-91873931D01*
X145483981Y-91969691D01*
X145279435Y-92275814D01*
X145209058Y-92629624D01*
X144159021Y-92629624D01*
X144088644Y-92275814D01*
X143884098Y-91969691D01*
X143788338Y-91873931D01*
X143482215Y-91669385D01*
X143128405Y-91599008D01*
X142774595Y-91669385D01*
X142468471Y-91873931D01*
X142372711Y-91969691D01*
X142168165Y-92275814D01*
X142097788Y-92629624D01*
X141047751Y-92629624D01*
X140977374Y-92275814D01*
X140772828Y-91969690D01*
X140677069Y-91873931D01*
X140370945Y-91669385D01*
X140017135Y-91599008D01*
X139778000Y-91646575D01*
X139778000Y-93612674D01*
X139580000Y-93612674D01*
X139580000Y-91073989D01*
X140542153Y-91073989D01*
X140612530Y-91427799D01*
X140817076Y-91733923D01*
X140912836Y-91829683D01*
X141218960Y-92034229D01*
X141572770Y-92104606D01*
X141926580Y-92034229D01*
X142232704Y-91829683D01*
X142328463Y-91733924D01*
X142533009Y-91427799D01*
X142603386Y-91073989D01*
X143653423Y-91073989D01*
X143723800Y-91427799D01*
X143928346Y-91733923D01*
X144024106Y-91829683D01*
X144330229Y-92034229D01*
X144684040Y-92104606D01*
X145037850Y-92034229D01*
X145343973Y-91829683D01*
X145439733Y-91733923D01*
X145644279Y-91427799D01*
X145714656Y-91073989D01*
X146764693Y-91073989D01*
X146835070Y-91427799D01*
X147039616Y-91733923D01*
X147135376Y-91829683D01*
X147441499Y-92034229D01*
X147795309Y-92104606D01*
X148149119Y-92034229D01*
X148455243Y-91829683D01*
X148551003Y-91733923D01*
X148755549Y-91427799D01*
X148825926Y-91073989D01*
X149875963Y-91073989D01*
X149946340Y-91427799D01*
X150150886Y-91733924D01*
X150246645Y-91829683D01*
X150552769Y-92034229D01*
X150906579Y-92104606D01*
X151260389Y-92034229D01*
X151566513Y-91829683D01*
X151662273Y-91733923D01*
X151866819Y-91427799D01*
X151937196Y-91073989D01*
X152987233Y-91073989D01*
X153057609Y-91427799D01*
X153262155Y-91733923D01*
X153357915Y-91829683D01*
X153664039Y-92034229D01*
X154017849Y-92104606D01*
X154022000Y-92103781D01*
X154022000Y-90044198D01*
X154017849Y-90043373D01*
X153664039Y-90113750D01*
X153357915Y-90318296D01*
X153262155Y-90414056D01*
X153057609Y-90720179D01*
X152987233Y-91073989D01*
X151937196Y-91073989D01*
X151866819Y-90720179D01*
X151662273Y-90414056D01*
X151566513Y-90318296D01*
X151260389Y-90113750D01*
X150906579Y-90043373D01*
X150552769Y-90113750D01*
X150246645Y-90318296D01*
X150150886Y-90414055D01*
X149946340Y-90720179D01*
X149875963Y-91073989D01*
X148825926Y-91073989D01*
X148755549Y-90720179D01*
X148551003Y-90414056D01*
X148455243Y-90318296D01*
X148149119Y-90113750D01*
X147795309Y-90043373D01*
X147441499Y-90113750D01*
X147135376Y-90318296D01*
X147039616Y-90414056D01*
X146835070Y-90720179D01*
X146764693Y-91073989D01*
X145714656Y-91073989D01*
X145644279Y-90720179D01*
X145439733Y-90414056D01*
X145343973Y-90318296D01*
X145037850Y-90113750D01*
X144684040Y-90043373D01*
X144330229Y-90113750D01*
X144024106Y-90318296D01*
X143928346Y-90414056D01*
X143723800Y-90720179D01*
X143653423Y-91073989D01*
X142603386Y-91073989D01*
X142533009Y-90720179D01*
X142328463Y-90414055D01*
X142232704Y-90318296D01*
X141926580Y-90113750D01*
X141572770Y-90043373D01*
X141218960Y-90113750D01*
X140912836Y-90318296D01*
X140817076Y-90414056D01*
X140612530Y-90720179D01*
X140542153Y-91073989D01*
X139580000Y-91073989D01*
X139580000Y-90501404D01*
X139778000Y-90501404D01*
X140017135Y-90548971D01*
X140370945Y-90478594D01*
X140677069Y-90274048D01*
X140772828Y-90178289D01*
X140977374Y-89872165D01*
X141047751Y-89518354D01*
X142097788Y-89518354D01*
X142168165Y-89872165D01*
X142372711Y-90178288D01*
X142468471Y-90274048D01*
X142774595Y-90478594D01*
X143128405Y-90548971D01*
X143482215Y-90478594D01*
X143788338Y-90274048D01*
X143884098Y-90178288D01*
X144088644Y-89872165D01*
X144159021Y-89518354D01*
X145209058Y-89518354D01*
X145279435Y-89872165D01*
X145483981Y-90178288D01*
X145579741Y-90274048D01*
X145885864Y-90478594D01*
X146239674Y-90548971D01*
X146593485Y-90478594D01*
X146899608Y-90274048D01*
X146995368Y-90178288D01*
X147199914Y-89872165D01*
X147270291Y-89518354D01*
X148320328Y-89518354D01*
X148390705Y-89872165D01*
X148595251Y-90178288D01*
X148691011Y-90274048D01*
X148997134Y-90478594D01*
X149350944Y-90548971D01*
X149704754Y-90478594D01*
X150010878Y-90274048D01*
X150106638Y-90178288D01*
X150311184Y-89872165D01*
X150381561Y-89518354D01*
X151431598Y-89518354D01*
X151501975Y-89872165D01*
X151706521Y-90178289D01*
X151802280Y-90274048D01*
X152108404Y-90478594D01*
X152462214Y-90548971D01*
X152816024Y-90478594D01*
X153122148Y-90274048D01*
X153217908Y-90178288D01*
X153422454Y-89872165D01*
X153492830Y-89518354D01*
X153422454Y-89164544D01*
X153217908Y-88858421D01*
X153122148Y-88762661D01*
X152816024Y-88558115D01*
X152462214Y-88487738D01*
X152108404Y-88558115D01*
X151802280Y-88762661D01*
X151706521Y-88858420D01*
X151501975Y-89164544D01*
X151431598Y-89518354D01*
X150381561Y-89518354D01*
X150311184Y-89164544D01*
X150106638Y-88858421D01*
X150010878Y-88762661D01*
X149704754Y-88558115D01*
X149350944Y-88487738D01*
X148997134Y-88558115D01*
X148691011Y-88762661D01*
X148595251Y-88858421D01*
X148390705Y-89164544D01*
X148320328Y-89518354D01*
X147270291Y-89518354D01*
X147199914Y-89164544D01*
X146995368Y-88858421D01*
X146899608Y-88762661D01*
X146593485Y-88558115D01*
X146239674Y-88487738D01*
X145885864Y-88558115D01*
X145579741Y-88762661D01*
X145483981Y-88858421D01*
X145279435Y-89164544D01*
X145209058Y-89518354D01*
X144159021Y-89518354D01*
X144088644Y-89164544D01*
X143884098Y-88858421D01*
X143788338Y-88762661D01*
X143482215Y-88558115D01*
X143128405Y-88487738D01*
X142774595Y-88558115D01*
X142468471Y-88762661D01*
X142372711Y-88858421D01*
X142168165Y-89164544D01*
X142097788Y-89518354D01*
X141047751Y-89518354D01*
X140977374Y-89164544D01*
X140772828Y-88858420D01*
X140677069Y-88762661D01*
X140370945Y-88558115D01*
X140017135Y-88487738D01*
X139787487Y-88533418D01*
X139781052Y-88598752D01*
X139781222Y-88600699D01*
X139781504Y-88607152D01*
X139781504Y-88632851D01*
X139781222Y-88639304D01*
X139780462Y-88647986D01*
X139779620Y-88654383D01*
X139778000Y-88663570D01*
X139778000Y-90501404D01*
X139580000Y-90501404D01*
X139580000Y-88652723D01*
X139581124Y-88639873D01*
X139583504Y-88626375D01*
X139583504Y-88626374D01*
X139584628Y-88620001D01*
X139583422Y-88613160D01*
X139582654Y-88593058D01*
X139592737Y-88490691D01*
X139595567Y-88476464D01*
X139631170Y-88359096D01*
X139636722Y-88345694D01*
X139694537Y-88237530D01*
X139702596Y-88225468D01*
X139780402Y-88130660D01*
X139790660Y-88120402D01*
X139790662Y-88120401D01*
X139793588Y-88118000D01*
X140573040Y-88118000D01*
X140612530Y-88316530D01*
X140817076Y-88622653D01*
X140912836Y-88718413D01*
X141218960Y-88922959D01*
X141572770Y-88993336D01*
X141926580Y-88922959D01*
X142232704Y-88718413D01*
X142328463Y-88622654D01*
X142533009Y-88316530D01*
X142572499Y-88118000D01*
X143684310Y-88118000D01*
X143723800Y-88316530D01*
X143928346Y-88622653D01*
X144024106Y-88718413D01*
X144330229Y-88922959D01*
X144684040Y-88993336D01*
X145037850Y-88922959D01*
X145343973Y-88718413D01*
X145439733Y-88622653D01*
X145644279Y-88316530D01*
X145683769Y-88118000D01*
X146795580Y-88118000D01*
X146835070Y-88316530D01*
X147039616Y-88622653D01*
X147135376Y-88718413D01*
X147441499Y-88922959D01*
X147795309Y-88993336D01*
X148149119Y-88922959D01*
X148455243Y-88718413D01*
X148551003Y-88622653D01*
X148755549Y-88316530D01*
X148795039Y-88117999D01*
X149906850Y-88117999D01*
X149946340Y-88316530D01*
X150150886Y-88622654D01*
X150246645Y-88718413D01*
X150552769Y-88922959D01*
X150906579Y-88993336D01*
X151260389Y-88922959D01*
X151566513Y-88718413D01*
X151662273Y-88622653D01*
X151866819Y-88316530D01*
X151906309Y-88117999D01*
X149906850Y-88117999D01*
X148795039Y-88117999D01*
X146795580Y-88118000D01*
X145683769Y-88118000D01*
X143684310Y-88118000D01*
X142572499Y-88118000D01*
X140573040Y-88118000D01*
X139793588Y-88118000D01*
X139885469Y-88042595D01*
X139897530Y-88034537D01*
X140005694Y-87976722D01*
X140019096Y-87971170D01*
X140136464Y-87935567D01*
X140150691Y-87932737D01*
X140234209Y-87924511D01*
X140253059Y-87922654D01*
X140273161Y-87923422D01*
X140280001Y-87924628D01*
X140299874Y-87921124D01*
X140312723Y-87920000D01*
X146900000Y-87920000D01*
X153487277Y-87919999D01*
X153500126Y-87921123D01*
G37*
%TD.AperFunction*%
%TD*%
%TA.AperFunction,Conductor*%
%TO.N,RST*%
G36*
X148478433Y-97468769D02*
G01*
X149229057Y-98249326D01*
X149232322Y-98257665D01*
X149230898Y-98263034D01*
X149148775Y-98413744D01*
X149148218Y-98414663D01*
X149060317Y-98545713D01*
X149059850Y-98546357D01*
X148997827Y-98626073D01*
X148972451Y-98658688D01*
X148972213Y-98658984D01*
X148887832Y-98760455D01*
X148809195Y-98858741D01*
X148739021Y-98961548D01*
X148679914Y-99076726D01*
X148634473Y-99212127D01*
X148605302Y-99375601D01*
X148605283Y-99375969D01*
X148595573Y-99563904D01*
X148591724Y-99571989D01*
X148583889Y-99575000D01*
X148356111Y-99575000D01*
X148347838Y-99571573D01*
X148344427Y-99563904D01*
X148334716Y-99375969D01*
X148334697Y-99375601D01*
X148305526Y-99212127D01*
X148260085Y-99076726D01*
X148200978Y-98961548D01*
X148130804Y-98858741D01*
X148052167Y-98760455D01*
X147967786Y-98658984D01*
X147967548Y-98658688D01*
X147942172Y-98626073D01*
X147880149Y-98546357D01*
X147879682Y-98545713D01*
X147791781Y-98414663D01*
X147791224Y-98413744D01*
X147709102Y-98263034D01*
X147708153Y-98254130D01*
X147710943Y-98249326D01*
X148461567Y-97468769D01*
X148469771Y-97465181D01*
X148478433Y-97468769D01*
G37*
%TD.AperFunction*%
%TD*%
%TA.AperFunction,Conductor*%
%TO.N,+5V*%
G36*
X153800132Y-99352167D02*
G01*
X153836703Y-99383452D01*
X153883581Y-99412431D01*
X153883961Y-99412596D01*
X153883967Y-99412599D01*
X153930995Y-99433000D01*
X153931000Y-99433002D01*
X153931344Y-99433151D01*
X153978795Y-99446701D01*
X154004382Y-99450858D01*
X154024441Y-99454117D01*
X154024443Y-99454117D01*
X154024737Y-99454165D01*
X154051464Y-99455690D01*
X154067708Y-99456617D01*
X154067712Y-99456617D01*
X154067974Y-99456632D01*
X154107308Y-99455186D01*
X154124322Y-99453063D01*
X154141281Y-99450947D01*
X154141288Y-99450946D01*
X154141543Y-99450914D01*
X154141797Y-99450859D01*
X154141805Y-99450858D01*
X154161964Y-99446521D01*
X154169481Y-99444904D01*
X154169759Y-99444813D01*
X154169768Y-99444811D01*
X154180864Y-99441195D01*
X154189792Y-99441890D01*
X154194651Y-99446521D01*
X154317424Y-99661713D01*
X154808616Y-100522656D01*
X154809740Y-100531540D01*
X154804252Y-100538616D01*
X154795368Y-100539740D01*
X154792656Y-100538616D01*
X153716521Y-99924651D01*
X153711033Y-99917575D01*
X153711195Y-99910864D01*
X153714811Y-99899768D01*
X153714813Y-99899759D01*
X153714904Y-99899481D01*
X153720914Y-99871543D01*
X153725186Y-99837308D01*
X153726632Y-99797974D01*
X153724165Y-99754737D01*
X153716701Y-99708795D01*
X153703151Y-99661344D01*
X153703000Y-99660995D01*
X153682599Y-99613967D01*
X153682596Y-99613961D01*
X153682431Y-99613581D01*
X153653452Y-99566703D01*
X153622167Y-99530132D01*
X153619393Y-99521618D01*
X153622785Y-99514254D01*
X153784254Y-99352785D01*
X153792527Y-99349358D01*
X153800132Y-99352167D01*
G37*
%TD.AperFunction*%
%TD*%
%TA.AperFunction,Conductor*%
%TO.N,RST*%
G36*
X153381820Y-106554230D02*
G01*
X153526976Y-106685073D01*
X153667918Y-106783185D01*
X153800233Y-106848798D01*
X153927764Y-106889579D01*
X153928115Y-106889644D01*
X153928117Y-106889645D01*
X154054153Y-106913159D01*
X154054156Y-106913159D01*
X154054352Y-106913196D01*
X154183837Y-106927319D01*
X154319872Y-106939599D01*
X154320255Y-106939640D01*
X154356505Y-106944119D01*
X154466470Y-106957706D01*
X154467263Y-106957833D01*
X154574952Y-106978972D01*
X154627561Y-106989300D01*
X154628611Y-106989557D01*
X154799354Y-107039812D01*
X154806322Y-107045435D01*
X154807748Y-107050805D01*
X154812191Y-107278117D01*
X154829580Y-108167653D01*
X154826315Y-108175992D01*
X154817653Y-108179580D01*
X154448586Y-108172366D01*
X153700806Y-108157748D01*
X153692603Y-108154160D01*
X153689812Y-108149354D01*
X153639557Y-107978611D01*
X153639300Y-107977561D01*
X153607835Y-107817276D01*
X153607704Y-107816457D01*
X153589640Y-107670255D01*
X153589599Y-107669872D01*
X153577319Y-107533837D01*
X153563218Y-107404558D01*
X153563196Y-107404352D01*
X153539579Y-107277764D01*
X153498798Y-107150233D01*
X153433185Y-107017918D01*
X153335073Y-106876976D01*
X153204230Y-106731820D01*
X153201236Y-106723381D01*
X153204647Y-106715714D01*
X153365714Y-106554647D01*
X153373987Y-106551220D01*
X153381820Y-106554230D01*
G37*
%TD.AperFunction*%
%TD*%
M02*
