M48
; DRILL file {KiCad (6.0.1)} date Mon 07 Feb 2022 11:01:18 PM CET
; FORMAT={-:-/ absolute / metric / decimal}
; #@! TF.CreationDate,2022-02-07T23:01:18+01:00
; #@! TF.GenerationSoftware,Kicad,Pcbnew,(6.0.1)
; #@! TF.FileFunction,MixedPlating,1,2
FMAT,2
METRIC
; #@! TA.AperFunction,Plated,PTH,ViaDrill
T1C0.400
; #@! TA.AperFunction,Plated,PTH,ComponentDrill
T2C1.000
; #@! TA.AperFunction,Plated,PTH,ComponentDrill
T3C1.092
%
G90
G05
T1
X140.97Y-129.12
T2
X140.85Y-97.885
X143.39Y-97.885
X145.93Y-97.885
X148.47Y-97.885
X151.01Y-97.885
X153.55Y-97.885
T3
X139.28Y-100.25
X139.28Y-102.79
X139.28Y-105.33
X139.28Y-107.87
X139.28Y-110.41
X139.28Y-112.95
X139.28Y-115.49
X139.28Y-118.03
X139.28Y-120.57
X139.28Y-123.11
X139.28Y-125.65
X139.28Y-128.19
X139.28Y-130.73
X141.82Y-130.73
X144.36Y-130.73
X145.63Y-107.87
X146.9Y-130.73
X148.17Y-107.87
X149.44Y-130.73
X151.98Y-130.73
X154.52Y-100.25
X154.52Y-102.79
X154.52Y-105.33
X154.52Y-107.87
X154.52Y-110.41
X154.52Y-112.95
X154.52Y-115.49
X154.52Y-118.03
X154.52Y-120.57
X154.52Y-123.11
X154.52Y-125.65
X154.52Y-128.19
X154.52Y-130.73
T0
M30
