%TF.GenerationSoftware,KiCad,Pcbnew,(6.0.4)*%
%TF.CreationDate,2022-05-04T18:18:16+02:00*%
%TF.ProjectId,pogo,706f676f-2e6b-4696-9361-645f70636258,1.0*%
%TF.SameCoordinates,Original*%
%TF.FileFunction,Copper,L1,Top*%
%TF.FilePolarity,Positive*%
%FSLAX46Y46*%
G04 Gerber Fmt 4.6, Leading zero omitted, Abs format (unit mm)*
G04 Created by KiCad (PCBNEW (6.0.4)) date 2022-05-04 18:18:16*
%MOMM*%
%LPD*%
G01*
G04 APERTURE LIST*
G04 Aperture macros list*
%AMRoundRect*
0 Rectangle with rounded corners*
0 $1 Rounding radius*
0 $2 $3 $4 $5 $6 $7 $8 $9 X,Y pos of 4 corners*
0 Add a 4 corners polygon primitive as box body*
4,1,4,$2,$3,$4,$5,$6,$7,$8,$9,$2,$3,0*
0 Add four circle primitives for the rounded corners*
1,1,$1+$1,$2,$3*
1,1,$1+$1,$4,$5*
1,1,$1+$1,$6,$7*
1,1,$1+$1,$8,$9*
0 Add four rect primitives between the rounded corners*
20,1,$1+$1,$2,$3,$4,$5,0*
20,1,$1+$1,$4,$5,$6,$7,0*
20,1,$1+$1,$6,$7,$8,$9,0*
20,1,$1+$1,$8,$9,$2,$3,0*%
G04 Aperture macros list end*
%TA.AperFunction,SMDPad,CuDef*%
%ADD10RoundRect,0.425000X0.425000X-2.075000X0.425000X2.075000X-0.425000X2.075000X-0.425000X-2.075000X0*%
%TD*%
%TA.AperFunction,ComponentPad*%
%ADD11R,1.700000X1.700000*%
%TD*%
%TA.AperFunction,ComponentPad*%
%ADD12O,1.700000X1.700000*%
%TD*%
%TA.AperFunction,ViaPad*%
%ADD13C,0.600000*%
%TD*%
%TA.AperFunction,Conductor*%
%ADD14C,0.250000*%
%TD*%
G04 APERTURE END LIST*
D10*
%TO.P,J1,1,MISO*%
%TO.N,MISO*%
X144740000Y-117530000D03*
%TO.P,J1,3,SCK*%
%TO.N,SCK*%
X147280000Y-117530000D03*
%TO.P,J1,5,~{RST}*%
%TO.N,RST*%
X149820000Y-117530000D03*
%TD*%
D11*
%TO.P,J2,1,Pin_1*%
%TO.N,MOSI*%
X140930000Y-111105000D03*
D12*
%TO.P,J2,2,Pin_2*%
%TO.N,MISO*%
X143470000Y-111105000D03*
%TO.P,J2,3,Pin_3*%
%TO.N,SCK*%
X146010000Y-111105000D03*
%TO.P,J2,4,Pin_4*%
%TO.N,RST*%
X148550000Y-111105000D03*
%TO.P,J2,5,Pin_5*%
%TO.N,GND*%
X151090000Y-111105000D03*
%TO.P,J2,6,Pin_6*%
%TO.N,+5V*%
X153630000Y-111105000D03*
%TD*%
D13*
%TO.N,GND*%
X151810000Y-115510000D03*
X142690000Y-115460000D03*
%TD*%
D14*
%TO.N,RST*%
X148550020Y-116011472D02*
G75*
G03*
X148725736Y-116435736I599980J-28D01*
G01*
%TO.N,MISO*%
X143470020Y-116011472D02*
G75*
G03*
X143645736Y-116435736I599980J-28D01*
G01*
%TO.N,SCK*%
X146185722Y-116435750D02*
G75*
G02*
X146010000Y-116011472I424278J424250D01*
G01*
%TO.N,RST*%
X148550000Y-111105000D02*
X148550000Y-116011472D01*
X148725736Y-116435736D02*
X149820000Y-117530000D01*
%TO.N,SCK*%
X146010000Y-111105000D02*
X146010000Y-116011472D01*
X146185736Y-116435736D02*
X147280000Y-117530000D01*
%TO.N,MISO*%
X143470000Y-111105000D02*
X143470000Y-116011472D01*
X143645736Y-116435736D02*
X144740000Y-117530000D01*
%TD*%
%TA.AperFunction,Conductor*%
%TO.N,RST*%
G36*
X148558433Y-110688769D02*
G01*
X149309057Y-111469326D01*
X149312322Y-111477665D01*
X149310898Y-111483034D01*
X149228775Y-111633744D01*
X149228218Y-111634663D01*
X149140317Y-111765713D01*
X149139850Y-111766357D01*
X149077827Y-111846073D01*
X149052451Y-111878688D01*
X149052213Y-111878984D01*
X148967832Y-111980455D01*
X148889195Y-112078741D01*
X148819021Y-112181548D01*
X148759914Y-112296726D01*
X148714473Y-112432127D01*
X148685302Y-112595601D01*
X148685283Y-112595969D01*
X148675573Y-112783904D01*
X148671724Y-112791989D01*
X148663889Y-112795000D01*
X148436111Y-112795000D01*
X148427838Y-112791573D01*
X148424427Y-112783904D01*
X148414716Y-112595969D01*
X148414697Y-112595601D01*
X148385526Y-112432127D01*
X148340085Y-112296726D01*
X148280978Y-112181548D01*
X148210804Y-112078741D01*
X148132167Y-111980455D01*
X148047786Y-111878984D01*
X148047548Y-111878688D01*
X148022172Y-111846073D01*
X147960149Y-111766357D01*
X147959682Y-111765713D01*
X147871781Y-111634663D01*
X147871224Y-111633744D01*
X147789102Y-111483034D01*
X147788153Y-111474130D01*
X147790943Y-111469326D01*
X148541567Y-110688769D01*
X148549771Y-110685181D01*
X148558433Y-110688769D01*
G37*
%TD.AperFunction*%
%TD*%
%TA.AperFunction,Conductor*%
%TO.N,RST*%
G36*
X148836669Y-116309272D02*
G01*
X148988590Y-116390530D01*
X148988955Y-116390667D01*
X148988957Y-116390668D01*
X149188784Y-116465716D01*
X149188792Y-116465719D01*
X149188958Y-116465781D01*
X149412519Y-116532590D01*
X149646931Y-116595428D01*
X149879644Y-116658709D01*
X149880040Y-116658824D01*
X150090899Y-116724566D01*
X150097777Y-116730300D01*
X150099114Y-116735507D01*
X150120027Y-117805300D01*
X150116762Y-117813639D01*
X150108558Y-117817227D01*
X150100948Y-117814607D01*
X150099758Y-117813639D01*
X149140791Y-117033943D01*
X149136534Y-117026065D01*
X149137474Y-117020128D01*
X149203843Y-116870334D01*
X149187213Y-116735507D01*
X149186167Y-116727027D01*
X149186167Y-116727026D01*
X149186012Y-116725773D01*
X149102715Y-116590715D01*
X148976314Y-116461259D01*
X148829203Y-116333534D01*
X148829081Y-116333426D01*
X148823359Y-116328316D01*
X148819471Y-116320249D01*
X148822425Y-116311796D01*
X148830492Y-116307908D01*
X148836669Y-116309272D01*
G37*
%TD.AperFunction*%
%TA.AperFunction,Conductor*%
G36*
X148574295Y-115590811D02*
G01*
X148576179Y-115591933D01*
X148758304Y-115725099D01*
X148762959Y-115732749D01*
X148761668Y-115740149D01*
X148684119Y-115882238D01*
X148665868Y-115915679D01*
X148650054Y-116069411D01*
X148650678Y-116070812D01*
X148650678Y-116070813D01*
X148704892Y-116192536D01*
X148705127Y-116201487D01*
X148698964Y-116207984D01*
X148690013Y-116208219D01*
X148686413Y-116206024D01*
X148684121Y-116203978D01*
X148683192Y-116203050D01*
X148563051Y-116068577D01*
X148561379Y-116066145D01*
X148488006Y-115923685D01*
X148486718Y-115918809D01*
X148486638Y-115916839D01*
X148480393Y-115764286D01*
X148481516Y-115758786D01*
X148490373Y-115740149D01*
X148558707Y-115596356D01*
X148565352Y-115590355D01*
X148574295Y-115590811D01*
G37*
%TD.AperFunction*%
%TD*%
%TA.AperFunction,Conductor*%
%TO.N,SCK*%
G36*
X146018433Y-110688769D02*
G01*
X146769057Y-111469326D01*
X146772322Y-111477665D01*
X146770898Y-111483034D01*
X146688775Y-111633744D01*
X146688218Y-111634663D01*
X146600317Y-111765713D01*
X146599850Y-111766357D01*
X146537827Y-111846073D01*
X146512451Y-111878688D01*
X146512213Y-111878984D01*
X146427832Y-111980455D01*
X146349195Y-112078741D01*
X146279021Y-112181548D01*
X146219914Y-112296726D01*
X146174473Y-112432127D01*
X146145302Y-112595601D01*
X146145283Y-112595969D01*
X146135573Y-112783904D01*
X146131724Y-112791989D01*
X146123889Y-112795000D01*
X145896111Y-112795000D01*
X145887838Y-112791573D01*
X145884427Y-112783904D01*
X145874716Y-112595969D01*
X145874697Y-112595601D01*
X145845526Y-112432127D01*
X145800085Y-112296726D01*
X145740978Y-112181548D01*
X145670804Y-112078741D01*
X145592167Y-111980455D01*
X145507786Y-111878984D01*
X145507548Y-111878688D01*
X145482172Y-111846073D01*
X145420149Y-111766357D01*
X145419682Y-111765713D01*
X145331781Y-111634663D01*
X145331224Y-111633744D01*
X145249102Y-111483034D01*
X145248153Y-111474130D01*
X145250943Y-111469326D01*
X146001567Y-110688769D01*
X146009771Y-110685181D01*
X146018433Y-110688769D01*
G37*
%TD.AperFunction*%
%TD*%
%TA.AperFunction,Conductor*%
%TO.N,SCK*%
G36*
X146296587Y-116309249D02*
G01*
X146341837Y-116333451D01*
X146448582Y-116390543D01*
X146448947Y-116390680D01*
X146448949Y-116390681D01*
X146648753Y-116465717D01*
X146648762Y-116465720D01*
X146648951Y-116465791D01*
X146872513Y-116532596D01*
X147106927Y-116595431D01*
X147339659Y-116658714D01*
X147340036Y-116658824D01*
X147499959Y-116708684D01*
X147550898Y-116724566D01*
X147557777Y-116730300D01*
X147559114Y-116735506D01*
X147564795Y-117026097D01*
X147580027Y-117805301D01*
X147576762Y-117813640D01*
X147568558Y-117817228D01*
X147560948Y-117814608D01*
X146600767Y-117033974D01*
X146596510Y-117026097D01*
X146597451Y-117020158D01*
X146663170Y-116871815D01*
X146663815Y-116870360D01*
X146645981Y-116725796D01*
X146562684Y-116590738D01*
X146440686Y-116465791D01*
X146436456Y-116461459D01*
X146436454Y-116461457D01*
X146436283Y-116461282D01*
X146289174Y-116333559D01*
X146289052Y-116333451D01*
X146283276Y-116328293D01*
X146279388Y-116320226D01*
X146282342Y-116311773D01*
X146290409Y-116307885D01*
X146296587Y-116309249D01*
G37*
%TD.AperFunction*%
%TA.AperFunction,Conductor*%
G36*
X146034260Y-115590825D02*
G01*
X146036140Y-115591946D01*
X146218274Y-115725105D01*
X146222930Y-115732754D01*
X146221639Y-115740155D01*
X146125845Y-115915692D01*
X146110037Y-116069428D01*
X146110661Y-116070829D01*
X146164893Y-116192590D01*
X146165128Y-116201541D01*
X146158965Y-116208038D01*
X146150014Y-116208273D01*
X146146414Y-116206078D01*
X146144086Y-116203999D01*
X146143164Y-116203077D01*
X146023025Y-116068604D01*
X146021353Y-116066172D01*
X145947979Y-115923713D01*
X145946690Y-115918835D01*
X145946609Y-115916852D01*
X145940362Y-115764310D01*
X145941484Y-115758811D01*
X146018671Y-115596372D01*
X146025317Y-115590370D01*
X146034260Y-115590825D01*
G37*
%TD.AperFunction*%
%TD*%
%TA.AperFunction,Conductor*%
%TO.N,MISO*%
G36*
X143478433Y-110688769D02*
G01*
X144229057Y-111469326D01*
X144232322Y-111477665D01*
X144230898Y-111483034D01*
X144148775Y-111633744D01*
X144148218Y-111634663D01*
X144060317Y-111765713D01*
X144059850Y-111766357D01*
X143997827Y-111846073D01*
X143972451Y-111878688D01*
X143972213Y-111878984D01*
X143887832Y-111980455D01*
X143809195Y-112078741D01*
X143739021Y-112181548D01*
X143679914Y-112296726D01*
X143634473Y-112432127D01*
X143605302Y-112595601D01*
X143605283Y-112595969D01*
X143595573Y-112783904D01*
X143591724Y-112791989D01*
X143583889Y-112795000D01*
X143356111Y-112795000D01*
X143347838Y-112791573D01*
X143344427Y-112783904D01*
X143334716Y-112595969D01*
X143334697Y-112595601D01*
X143305526Y-112432127D01*
X143260085Y-112296726D01*
X143200978Y-112181548D01*
X143130804Y-112078741D01*
X143052167Y-111980455D01*
X142967786Y-111878984D01*
X142967548Y-111878688D01*
X142942172Y-111846073D01*
X142880149Y-111766357D01*
X142879682Y-111765713D01*
X142791781Y-111634663D01*
X142791224Y-111633744D01*
X142709102Y-111483034D01*
X142708153Y-111474130D01*
X142710943Y-111469326D01*
X143461567Y-110688769D01*
X143469771Y-110685181D01*
X143478433Y-110688769D01*
G37*
%TD.AperFunction*%
%TD*%
%TA.AperFunction,Conductor*%
%TO.N,MISO*%
G36*
X143756669Y-116309272D02*
G01*
X143908590Y-116390530D01*
X143908955Y-116390667D01*
X143908957Y-116390668D01*
X144108784Y-116465716D01*
X144108792Y-116465719D01*
X144108958Y-116465781D01*
X144332519Y-116532590D01*
X144566931Y-116595428D01*
X144799644Y-116658709D01*
X144800040Y-116658824D01*
X145010899Y-116724566D01*
X145017777Y-116730300D01*
X145019114Y-116735507D01*
X145040027Y-117805300D01*
X145036762Y-117813639D01*
X145028558Y-117817227D01*
X145020948Y-117814607D01*
X145019758Y-117813639D01*
X144060791Y-117033943D01*
X144056534Y-117026065D01*
X144057474Y-117020128D01*
X144123843Y-116870334D01*
X144107213Y-116735507D01*
X144106167Y-116727027D01*
X144106167Y-116727026D01*
X144106012Y-116725773D01*
X144022715Y-116590715D01*
X143896314Y-116461259D01*
X143749203Y-116333534D01*
X143749081Y-116333426D01*
X143743359Y-116328316D01*
X143739471Y-116320249D01*
X143742425Y-116311796D01*
X143750492Y-116307908D01*
X143756669Y-116309272D01*
G37*
%TD.AperFunction*%
%TA.AperFunction,Conductor*%
G36*
X143494295Y-115590811D02*
G01*
X143496179Y-115591933D01*
X143678304Y-115725099D01*
X143682959Y-115732749D01*
X143681668Y-115740149D01*
X143604119Y-115882238D01*
X143585868Y-115915679D01*
X143570054Y-116069411D01*
X143570678Y-116070812D01*
X143570678Y-116070813D01*
X143624892Y-116192536D01*
X143625127Y-116201487D01*
X143618964Y-116207984D01*
X143610013Y-116208219D01*
X143606413Y-116206024D01*
X143604121Y-116203978D01*
X143603192Y-116203050D01*
X143483051Y-116068577D01*
X143481379Y-116066145D01*
X143408006Y-115923685D01*
X143406718Y-115918809D01*
X143406638Y-115916839D01*
X143400393Y-115764286D01*
X143401516Y-115758786D01*
X143410373Y-115740149D01*
X143478707Y-115596356D01*
X143485352Y-115590355D01*
X143494295Y-115590811D01*
G37*
%TD.AperFunction*%
%TD*%
%TA.AperFunction,Conductor*%
%TO.N,GND*%
G36*
X153880082Y-101231624D02*
G01*
X153900000Y-101235136D01*
X153906376Y-101234012D01*
X153906378Y-101234012D01*
X153906872Y-101233925D01*
X153926971Y-101233157D01*
X154029212Y-101243227D01*
X154043440Y-101246057D01*
X154160713Y-101281631D01*
X154174115Y-101287183D01*
X154282193Y-101344952D01*
X154294255Y-101353011D01*
X154388987Y-101430755D01*
X154399245Y-101441013D01*
X154476989Y-101535745D01*
X154485048Y-101547807D01*
X154542817Y-101655885D01*
X154548369Y-101669287D01*
X154583943Y-101786560D01*
X154586773Y-101800788D01*
X154596843Y-101903029D01*
X154596075Y-101923128D01*
X154596075Y-101923129D01*
X154594864Y-101930000D01*
X154598376Y-101949917D01*
X154599500Y-101962767D01*
X154599500Y-110265157D01*
X154582187Y-110312723D01*
X154538350Y-110338033D01*
X154488500Y-110329243D01*
X154475269Y-110319497D01*
X154335873Y-110190640D01*
X154335869Y-110190637D01*
X154333381Y-110188337D01*
X154293359Y-110163085D01*
X154157415Y-110077310D01*
X154157414Y-110077309D01*
X154154554Y-110075505D01*
X154151412Y-110074251D01*
X154151409Y-110074250D01*
X153961314Y-109998410D01*
X153961311Y-109998409D01*
X153958160Y-109997152D01*
X153801791Y-109966049D01*
X153754099Y-109956562D01*
X153754097Y-109956562D01*
X153750775Y-109955901D01*
X153657571Y-109954681D01*
X153542739Y-109953177D01*
X153542734Y-109953177D01*
X153539346Y-109953133D01*
X153536000Y-109953708D01*
X153535999Y-109953708D01*
X153478864Y-109963526D01*
X153330953Y-109988941D01*
X153132575Y-110062127D01*
X152950856Y-110170238D01*
X152948312Y-110172469D01*
X152948308Y-110172472D01*
X152901640Y-110213399D01*
X152791881Y-110309655D01*
X152789784Y-110312314D01*
X152789783Y-110312316D01*
X152679018Y-110452822D01*
X152660976Y-110475708D01*
X152562523Y-110662836D01*
X152561517Y-110666075D01*
X152561516Y-110666078D01*
X152545117Y-110718891D01*
X152499820Y-110864773D01*
X152474967Y-111074754D01*
X152488796Y-111285749D01*
X152540845Y-111490690D01*
X152542261Y-111493762D01*
X152542263Y-111493767D01*
X152626951Y-111677470D01*
X152629369Y-111682714D01*
X152673231Y-111744777D01*
X152749446Y-111852620D01*
X152749450Y-111852624D01*
X152751405Y-111855391D01*
X152753830Y-111857753D01*
X152753834Y-111857758D01*
X152812401Y-111914811D01*
X152902865Y-112002937D01*
X152905683Y-112004820D01*
X152905688Y-112004824D01*
X153061880Y-112109188D01*
X153078677Y-112120411D01*
X153081791Y-112121749D01*
X153081793Y-112121750D01*
X153253746Y-112195626D01*
X153272953Y-112203878D01*
X153479186Y-112250544D01*
X153584828Y-112254695D01*
X153687075Y-112258713D01*
X153687079Y-112258713D01*
X153690470Y-112258846D01*
X153765341Y-112247990D01*
X153896368Y-112228992D01*
X153896373Y-112228991D01*
X153899730Y-112228504D01*
X154099955Y-112160537D01*
X154102908Y-112158883D01*
X154102913Y-112158881D01*
X154281480Y-112058878D01*
X154281482Y-112058877D01*
X154284442Y-112057219D01*
X154294795Y-112048609D01*
X154444398Y-111924186D01*
X154447012Y-111922012D01*
X154465737Y-111899497D01*
X154468606Y-111896048D01*
X154512332Y-111870547D01*
X154562220Y-111879119D01*
X154594926Y-111917753D01*
X154599500Y-111943366D01*
X154599500Y-112169801D01*
X154585677Y-112212867D01*
X151104676Y-117076985D01*
X151062915Y-117105591D01*
X151012537Y-117100661D01*
X150977114Y-117064501D01*
X150970499Y-117033919D01*
X150970499Y-115406794D01*
X150960003Y-115305628D01*
X150906463Y-115145148D01*
X150817440Y-115001289D01*
X150757504Y-114941458D01*
X150700753Y-114884805D01*
X150700750Y-114884802D01*
X150697711Y-114881769D01*
X150694055Y-114879515D01*
X150694052Y-114879513D01*
X150565999Y-114800580D01*
X150553697Y-114792997D01*
X150480965Y-114768873D01*
X150396963Y-114741010D01*
X150396960Y-114741009D01*
X150393124Y-114739737D01*
X150293207Y-114729500D01*
X149821993Y-114729500D01*
X149346794Y-114729501D01*
X149245628Y-114739997D01*
X149085148Y-114793537D01*
X149081491Y-114795800D01*
X149080889Y-114796082D01*
X149030470Y-114800580D01*
X148988956Y-114771617D01*
X148975500Y-114729069D01*
X148975500Y-114280661D01*
X149693807Y-114280661D01*
X149743701Y-114531501D01*
X150293207Y-114531500D01*
X150295093Y-114531524D01*
X150297642Y-114531589D01*
X150299529Y-114531661D01*
X150307071Y-114532046D01*
X150308947Y-114532166D01*
X150311494Y-114532361D01*
X150313387Y-114532530D01*
X150413304Y-114542767D01*
X150417311Y-114543289D01*
X150422697Y-114544140D01*
X150426662Y-114544877D01*
X150442417Y-114548255D01*
X150446332Y-114549207D01*
X150451591Y-114550638D01*
X150455459Y-114551805D01*
X150616032Y-114605065D01*
X150620064Y-114606533D01*
X150625454Y-114608675D01*
X150629398Y-114610377D01*
X150644931Y-114617620D01*
X150648777Y-114619551D01*
X150653883Y-114622304D01*
X150657594Y-114624446D01*
X150801608Y-114713218D01*
X150805194Y-114715574D01*
X150809946Y-114718898D01*
X150813393Y-114721462D01*
X150826843Y-114732084D01*
X150830141Y-114734848D01*
X150834476Y-114738701D01*
X150837595Y-114741639D01*
X150917244Y-114821149D01*
X151013262Y-114706719D01*
X151023580Y-114696614D01*
X151184460Y-114567263D01*
X151196545Y-114559355D01*
X151379486Y-114463716D01*
X151392877Y-114458306D01*
X151590909Y-114400022D01*
X151605095Y-114397316D01*
X151734171Y-114385570D01*
X151755039Y-114280661D01*
X151684662Y-113926851D01*
X151480116Y-113620726D01*
X151384358Y-113524968D01*
X151078233Y-113320422D01*
X150724423Y-113250045D01*
X150370613Y-113320422D01*
X150064488Y-113524968D01*
X149968729Y-113620727D01*
X149764183Y-113926851D01*
X149693807Y-114280661D01*
X148975500Y-114280661D01*
X148975500Y-113754706D01*
X149173500Y-113754706D01*
X149522598Y-113685266D01*
X149828722Y-113480720D01*
X149924482Y-113384960D01*
X150129028Y-113078836D01*
X150199404Y-112725026D01*
X151249441Y-112725026D01*
X151319818Y-113078836D01*
X151524364Y-113384960D01*
X151620124Y-113480720D01*
X151926248Y-113685266D01*
X152280058Y-113755643D01*
X152633868Y-113685266D01*
X152939992Y-113480720D01*
X153035751Y-113384961D01*
X153240297Y-113078836D01*
X153310674Y-112725026D01*
X153246187Y-112400826D01*
X153229255Y-112396995D01*
X153225977Y-112396175D01*
X153221563Y-112394962D01*
X153218308Y-112393986D01*
X153205429Y-112389802D01*
X153202225Y-112388679D01*
X153197937Y-112387065D01*
X153194794Y-112385800D01*
X153000518Y-112302333D01*
X152997426Y-112300919D01*
X152993304Y-112298919D01*
X152990296Y-112297374D01*
X152978395Y-112290912D01*
X152975455Y-112289227D01*
X152971535Y-112286860D01*
X152968674Y-112285042D01*
X152792862Y-112167568D01*
X152790085Y-112165619D01*
X152786398Y-112162903D01*
X152783717Y-112160832D01*
X152773192Y-112152309D01*
X152770613Y-112150121D01*
X152767189Y-112147079D01*
X152764701Y-112144764D01*
X152613241Y-111997218D01*
X152610860Y-111994789D01*
X152607729Y-111991445D01*
X152605476Y-111988926D01*
X152596682Y-111978629D01*
X152594542Y-111976004D01*
X152591731Y-111972390D01*
X152589711Y-111969666D01*
X152467675Y-111796989D01*
X152465784Y-111794179D01*
X152463316Y-111790324D01*
X152461554Y-111787428D01*
X152454782Y-111775700D01*
X152453153Y-111772724D01*
X152451046Y-111768655D01*
X152449556Y-111765609D01*
X152430531Y-111724341D01*
X152280058Y-111694410D01*
X152114301Y-111727381D01*
X152083260Y-111782023D01*
X152081396Y-111785124D01*
X152078778Y-111789249D01*
X152076767Y-111792253D01*
X152068442Y-111804054D01*
X152066288Y-111806954D01*
X152063281Y-111810803D01*
X152060985Y-111813599D01*
X151932843Y-111962053D01*
X151930415Y-111964730D01*
X151927046Y-111968268D01*
X151924488Y-111970827D01*
X151914029Y-111980787D01*
X151911341Y-111983223D01*
X151907643Y-111986414D01*
X151904858Y-111988702D01*
X151750321Y-112109440D01*
X151747425Y-112111591D01*
X151743434Y-112114407D01*
X151740424Y-112116422D01*
X151728230Y-112124161D01*
X151725126Y-112126026D01*
X151720878Y-112128439D01*
X151717694Y-112130147D01*
X151542648Y-112218568D01*
X151539382Y-112220118D01*
X151534917Y-112222106D01*
X151531575Y-112223497D01*
X151518110Y-112228719D01*
X151514708Y-112229944D01*
X151510075Y-112231485D01*
X151506620Y-112232541D01*
X151393246Y-112264196D01*
X151390997Y-112264691D01*
X151319818Y-112371216D01*
X151249441Y-112725026D01*
X150199404Y-112725026D01*
X150129028Y-112371216D01*
X149924481Y-112065092D01*
X149828722Y-111969332D01*
X149675204Y-111866755D01*
X149670897Y-111874660D01*
X149670665Y-111875083D01*
X149670380Y-111875598D01*
X149670191Y-111875937D01*
X149669359Y-111877422D01*
X149669188Y-111877725D01*
X149668911Y-111878214D01*
X149668671Y-111878634D01*
X149661671Y-111890805D01*
X149661483Y-111891132D01*
X149661206Y-111891608D01*
X149660984Y-111891986D01*
X149660121Y-111893449D01*
X149659849Y-111893905D01*
X149659542Y-111894417D01*
X149659361Y-111894719D01*
X149658804Y-111895638D01*
X149658600Y-111895973D01*
X149658297Y-111896467D01*
X149658052Y-111896863D01*
X149657155Y-111898305D01*
X149656933Y-111898660D01*
X149656630Y-111899141D01*
X149656404Y-111899497D01*
X149648858Y-111911326D01*
X149648630Y-111911681D01*
X149648318Y-111912164D01*
X149648083Y-111912525D01*
X149647152Y-111913948D01*
X149646899Y-111914333D01*
X149646582Y-111914811D01*
X149646367Y-111915133D01*
X149558466Y-112046183D01*
X149558336Y-112046377D01*
X149558076Y-112046762D01*
X149557820Y-112047138D01*
X149557057Y-112048253D01*
X149556811Y-112048609D01*
X149556556Y-112048977D01*
X149556425Y-112049166D01*
X149550030Y-112058334D01*
X149549825Y-112058626D01*
X149549572Y-112058985D01*
X149549403Y-112059224D01*
X149548617Y-112060330D01*
X149548451Y-112060563D01*
X149548173Y-112060951D01*
X149547927Y-112061293D01*
X149547460Y-112061937D01*
X149547258Y-112062213D01*
X149546990Y-112062579D01*
X149546795Y-112062844D01*
X149546050Y-112063852D01*
X149545830Y-112064149D01*
X149545594Y-112064465D01*
X149545466Y-112064635D01*
X149539263Y-112072891D01*
X149539073Y-112073143D01*
X149538813Y-112073486D01*
X149538618Y-112073742D01*
X149537860Y-112074733D01*
X149537697Y-112074946D01*
X149537445Y-112075273D01*
X149537235Y-112075543D01*
X149449836Y-112187874D01*
X149449795Y-112187928D01*
X149449696Y-112188055D01*
X149449590Y-112188190D01*
X149449225Y-112188656D01*
X149449145Y-112188759D01*
X149448998Y-112188946D01*
X149448860Y-112189120D01*
X149445829Y-112192952D01*
X149445769Y-112193028D01*
X149445654Y-112193173D01*
X149445545Y-112193311D01*
X149445176Y-112193774D01*
X149444990Y-112194006D01*
X149444855Y-112194174D01*
X149444841Y-112194191D01*
X149444603Y-112194487D01*
X149444512Y-112194600D01*
X149444357Y-112194792D01*
X149444218Y-112194964D01*
X149443833Y-112195438D01*
X149443785Y-112195497D01*
X149443680Y-112195626D01*
X149443573Y-112195756D01*
X149440383Y-112199657D01*
X149440257Y-112199811D01*
X149440183Y-112199901D01*
X149439812Y-112200352D01*
X149439629Y-112200575D01*
X149439441Y-112200802D01*
X149439347Y-112200915D01*
X149358018Y-112298717D01*
X149294278Y-112378382D01*
X149252617Y-112439417D01*
X149225183Y-112492875D01*
X149203619Y-112557127D01*
X149186504Y-112653045D01*
X149178401Y-112809883D01*
X149178126Y-112813500D01*
X149177633Y-112818382D01*
X149177178Y-112821990D01*
X149175013Y-112836335D01*
X149174385Y-112839906D01*
X149173500Y-112844299D01*
X149173500Y-113754706D01*
X148975500Y-113754706D01*
X148975500Y-112829292D01*
X148977764Y-112811129D01*
X148979774Y-112803192D01*
X148979775Y-112803187D01*
X148980666Y-112799667D01*
X148989170Y-112635074D01*
X148990222Y-112625894D01*
X149010305Y-112513344D01*
X149013000Y-112502798D01*
X149013316Y-112501858D01*
X149040445Y-112421022D01*
X149044761Y-112410784D01*
X149046388Y-112407615D01*
X149079997Y-112342122D01*
X149084715Y-112334189D01*
X149091801Y-112323809D01*
X149133399Y-112262866D01*
X149136732Y-112258359D01*
X149204132Y-112174119D01*
X149205016Y-112173036D01*
X149287030Y-112074411D01*
X149287217Y-112074183D01*
X149288639Y-112072444D01*
X149290297Y-112070416D01*
X149290535Y-112070120D01*
X149293566Y-112066288D01*
X149369002Y-111969333D01*
X149380755Y-111954227D01*
X149380759Y-111954222D01*
X149380965Y-111953957D01*
X149387168Y-111945701D01*
X149387635Y-111945057D01*
X149394030Y-111935889D01*
X149396713Y-111931890D01*
X149481710Y-111805169D01*
X149481724Y-111805148D01*
X149481931Y-111804839D01*
X149482122Y-111804540D01*
X149482144Y-111804506D01*
X149489247Y-111793370D01*
X149489477Y-111793010D01*
X149489819Y-111792447D01*
X149489829Y-111792429D01*
X149490034Y-111792091D01*
X149494041Y-111785124D01*
X149496805Y-111780319D01*
X149496822Y-111780289D01*
X149497034Y-111779920D01*
X149569948Y-111646110D01*
X149578099Y-111631152D01*
X149578100Y-111631149D01*
X149579157Y-111629210D01*
X149579973Y-111627162D01*
X149579977Y-111627153D01*
X149587221Y-111608966D01*
X149591404Y-111600190D01*
X149592112Y-111598927D01*
X149605537Y-111574955D01*
X149673504Y-111374730D01*
X149673991Y-111371373D01*
X149673992Y-111371368D01*
X149675616Y-111360166D01*
X150123513Y-111360166D01*
X150123667Y-111363108D01*
X150154727Y-111471427D01*
X150157377Y-111478122D01*
X150243711Y-111646110D01*
X150247616Y-111652168D01*
X150364930Y-111800182D01*
X150369935Y-111805366D01*
X150513768Y-111927776D01*
X150519687Y-111931890D01*
X150684555Y-112024032D01*
X150691156Y-112026915D01*
X150827589Y-112071245D01*
X150838222Y-112070873D01*
X150839009Y-112070164D01*
X150840000Y-112066191D01*
X150840000Y-112060442D01*
X151340000Y-112060442D01*
X151343638Y-112070438D01*
X151345288Y-112071390D01*
X151347996Y-112071257D01*
X151449891Y-112042807D01*
X151456599Y-112040206D01*
X151625195Y-111955043D01*
X151631269Y-111951188D01*
X151780104Y-111834905D01*
X151785323Y-111829935D01*
X151908736Y-111686959D01*
X151912885Y-111681079D01*
X152006180Y-111516848D01*
X152009108Y-111510273D01*
X152056641Y-111367381D01*
X152056344Y-111356748D01*
X152055734Y-111356061D01*
X152051542Y-111355000D01*
X151353048Y-111355000D01*
X151343052Y-111358638D01*
X151340000Y-111363925D01*
X151340000Y-112060442D01*
X150840000Y-112060442D01*
X150840000Y-111368048D01*
X150836362Y-111358052D01*
X150831075Y-111355000D01*
X150134390Y-111355000D01*
X150124394Y-111358638D01*
X150123513Y-111360166D01*
X149675616Y-111360166D01*
X149703533Y-111167629D01*
X149703533Y-111167628D01*
X149703846Y-111165470D01*
X149705429Y-111105000D01*
X149702340Y-111071381D01*
X149686392Y-110897819D01*
X149686391Y-110897814D01*
X149686081Y-110894440D01*
X149676801Y-110861533D01*
X149671451Y-110842562D01*
X150124096Y-110842562D01*
X150124542Y-110853190D01*
X150125353Y-110854078D01*
X150129107Y-110855000D01*
X150826952Y-110855000D01*
X150836948Y-110851362D01*
X150840000Y-110846075D01*
X150840000Y-110841952D01*
X151340000Y-110841952D01*
X151343638Y-110851948D01*
X151348925Y-110855000D01*
X152046101Y-110855000D01*
X152056097Y-110851362D01*
X152056838Y-110850077D01*
X152056637Y-110846678D01*
X152020065Y-110725549D01*
X152017321Y-110718891D01*
X151928651Y-110552126D01*
X151924665Y-110546127D01*
X151805291Y-110399760D01*
X151800215Y-110394649D01*
X151654694Y-110274263D01*
X151648709Y-110270226D01*
X151482574Y-110180397D01*
X151475936Y-110177607D01*
X151352465Y-110139386D01*
X151341841Y-110139906D01*
X151340854Y-110140820D01*
X151340000Y-110144351D01*
X151340000Y-110841952D01*
X150840000Y-110841952D01*
X150840000Y-110149170D01*
X150836362Y-110139174D01*
X150834956Y-110138363D01*
X150831784Y-110138540D01*
X150717048Y-110172310D01*
X150710378Y-110175004D01*
X150542994Y-110262510D01*
X150536967Y-110266454D01*
X150389770Y-110384803D01*
X150384623Y-110389844D01*
X150263221Y-110534525D01*
X150259152Y-110540469D01*
X150168159Y-110705984D01*
X150165323Y-110712601D01*
X150124096Y-110842562D01*
X149671451Y-110842562D01*
X149636571Y-110718891D01*
X149628686Y-110690931D01*
X149535165Y-110501290D01*
X149518300Y-110478704D01*
X149410683Y-110334588D01*
X149410682Y-110334587D01*
X149408651Y-110331867D01*
X149336792Y-110265441D01*
X149255873Y-110190640D01*
X149255869Y-110190637D01*
X149253381Y-110188337D01*
X149213359Y-110163085D01*
X149077415Y-110077310D01*
X149077414Y-110077309D01*
X149074554Y-110075505D01*
X149071412Y-110074251D01*
X149071409Y-110074250D01*
X148881314Y-109998410D01*
X148881311Y-109998409D01*
X148878160Y-109997152D01*
X148721791Y-109966049D01*
X148674099Y-109956562D01*
X148674097Y-109956562D01*
X148670775Y-109955901D01*
X148577571Y-109954681D01*
X148462739Y-109953177D01*
X148462734Y-109953177D01*
X148459346Y-109953133D01*
X148456000Y-109953708D01*
X148455999Y-109953708D01*
X148398864Y-109963526D01*
X148250953Y-109988941D01*
X148052575Y-110062127D01*
X147870856Y-110170238D01*
X147868312Y-110172469D01*
X147868308Y-110172472D01*
X147821640Y-110213399D01*
X147711881Y-110309655D01*
X147709784Y-110312314D01*
X147709783Y-110312316D01*
X147599018Y-110452822D01*
X147580976Y-110475708D01*
X147482523Y-110662836D01*
X147481517Y-110666075D01*
X147481516Y-110666078D01*
X147465117Y-110718891D01*
X147419820Y-110864773D01*
X147394967Y-111074754D01*
X147408796Y-111285749D01*
X147460845Y-111490690D01*
X147462261Y-111493762D01*
X147462263Y-111493767D01*
X147510743Y-111598927D01*
X147514179Y-111607861D01*
X147520842Y-111629209D01*
X147544736Y-111673059D01*
X147546951Y-111677470D01*
X147547949Y-111679634D01*
X147549369Y-111682714D01*
X147551325Y-111685482D01*
X147553023Y-111688423D01*
X147552973Y-111688452D01*
X147554174Y-111690380D01*
X147602964Y-111779919D01*
X147603175Y-111780285D01*
X147603198Y-111780327D01*
X147607283Y-111787428D01*
X147609965Y-111792091D01*
X147610522Y-111793010D01*
X147610752Y-111793370D01*
X147617855Y-111804506D01*
X147617877Y-111804540D01*
X147618068Y-111804839D01*
X147618275Y-111805148D01*
X147618289Y-111805169D01*
X147703287Y-111931890D01*
X147705969Y-111935889D01*
X147712364Y-111945057D01*
X147712831Y-111945701D01*
X147719034Y-111953957D01*
X147719240Y-111954222D01*
X147719244Y-111954227D01*
X147730997Y-111969333D01*
X147806433Y-112066288D01*
X147809464Y-112070120D01*
X147809702Y-112070416D01*
X147811360Y-112072444D01*
X147812782Y-112074183D01*
X147812969Y-112074411D01*
X147894983Y-112173036D01*
X147895867Y-112174119D01*
X147963267Y-112258359D01*
X147966600Y-112262866D01*
X148008199Y-112323809D01*
X148015284Y-112334189D01*
X148020002Y-112342122D01*
X148053612Y-112407615D01*
X148055238Y-112410784D01*
X148059554Y-112421022D01*
X148086684Y-112501858D01*
X148086999Y-112502798D01*
X148089694Y-112513344D01*
X148109777Y-112625894D01*
X148110829Y-112635072D01*
X148119334Y-112799669D01*
X148120125Y-112802971D01*
X148122465Y-112812744D01*
X148124500Y-112829978D01*
X148124500Y-114729058D01*
X148107187Y-114776624D01*
X148063350Y-114801934D01*
X148019226Y-114796125D01*
X148017359Y-114795254D01*
X148013697Y-114792997D01*
X148009616Y-114791643D01*
X148009613Y-114791642D01*
X147856963Y-114741010D01*
X147856960Y-114741009D01*
X147853124Y-114739737D01*
X147753207Y-114729500D01*
X147281993Y-114729500D01*
X146806794Y-114729501D01*
X146705628Y-114739997D01*
X146545148Y-114793537D01*
X146541491Y-114795800D01*
X146540889Y-114796082D01*
X146490470Y-114800580D01*
X146448956Y-114771617D01*
X146435500Y-114729069D01*
X146435500Y-114536874D01*
X146633500Y-114536874D01*
X146636943Y-114554184D01*
X146642966Y-114552175D01*
X146646832Y-114551001D01*
X146652099Y-114549558D01*
X146656028Y-114548596D01*
X146671810Y-114545187D01*
X146675789Y-114544441D01*
X146681186Y-114543581D01*
X146685194Y-114543054D01*
X146786360Y-114532558D01*
X146788271Y-114532385D01*
X146790848Y-114532185D01*
X146792752Y-114532062D01*
X146800389Y-114531667D01*
X146802292Y-114531593D01*
X146804875Y-114531526D01*
X146806794Y-114531501D01*
X147753207Y-114531500D01*
X147755093Y-114531524D01*
X147757642Y-114531589D01*
X147759529Y-114531661D01*
X147767071Y-114532046D01*
X147768947Y-114532166D01*
X147771494Y-114532361D01*
X147773387Y-114532530D01*
X147873304Y-114542767D01*
X147877311Y-114543289D01*
X147882697Y-114544140D01*
X147886662Y-114544877D01*
X147902417Y-114548255D01*
X147906332Y-114549207D01*
X147911591Y-114550638D01*
X147915459Y-114551805D01*
X147926500Y-114555467D01*
X147926500Y-113312374D01*
X147613153Y-113250045D01*
X147259343Y-113320422D01*
X146953218Y-113524968D01*
X146857459Y-113620727D01*
X146652913Y-113926851D01*
X146633500Y-114024449D01*
X146633500Y-114536874D01*
X146435500Y-114536874D01*
X146435500Y-112829292D01*
X146437764Y-112811129D01*
X146439774Y-112803192D01*
X146439775Y-112803187D01*
X146440666Y-112799667D01*
X146449170Y-112635074D01*
X146450222Y-112625894D01*
X146470305Y-112513344D01*
X146473000Y-112502798D01*
X146473316Y-112501858D01*
X146500445Y-112421022D01*
X146504761Y-112410784D01*
X146506388Y-112407615D01*
X146539997Y-112342122D01*
X146544715Y-112334189D01*
X146551801Y-112323809D01*
X146593399Y-112262866D01*
X146596732Y-112258359D01*
X146664132Y-112174119D01*
X146665016Y-112173036D01*
X146747030Y-112074411D01*
X146747217Y-112074183D01*
X146748639Y-112072444D01*
X146750297Y-112070416D01*
X146750535Y-112070120D01*
X146753566Y-112066288D01*
X146829002Y-111969333D01*
X146840755Y-111954227D01*
X146840759Y-111954222D01*
X146840965Y-111953957D01*
X146847168Y-111945701D01*
X146847635Y-111945057D01*
X146854030Y-111935889D01*
X146856713Y-111931890D01*
X146941710Y-111805169D01*
X146941724Y-111805148D01*
X146941931Y-111804839D01*
X146942122Y-111804540D01*
X146942144Y-111804506D01*
X146949247Y-111793370D01*
X146949477Y-111793010D01*
X146949819Y-111792447D01*
X146949829Y-111792429D01*
X146950034Y-111792091D01*
X146954041Y-111785124D01*
X146956805Y-111780319D01*
X146956822Y-111780289D01*
X146957034Y-111779920D01*
X147029948Y-111646110D01*
X147038099Y-111631152D01*
X147038100Y-111631149D01*
X147039157Y-111629210D01*
X147039973Y-111627162D01*
X147039977Y-111627153D01*
X147047221Y-111608966D01*
X147051404Y-111600190D01*
X147052112Y-111598927D01*
X147065537Y-111574955D01*
X147133504Y-111374730D01*
X147133991Y-111371373D01*
X147133992Y-111371368D01*
X147163533Y-111167629D01*
X147163533Y-111167628D01*
X147163846Y-111165470D01*
X147165429Y-111105000D01*
X147162340Y-111071381D01*
X147146392Y-110897819D01*
X147146391Y-110897814D01*
X147146081Y-110894440D01*
X147136801Y-110861533D01*
X147096571Y-110718891D01*
X147088686Y-110690931D01*
X146995165Y-110501290D01*
X146978300Y-110478704D01*
X146870683Y-110334588D01*
X146870682Y-110334587D01*
X146868651Y-110331867D01*
X146796792Y-110265441D01*
X146715873Y-110190640D01*
X146715869Y-110190637D01*
X146713381Y-110188337D01*
X146673359Y-110163085D01*
X146537415Y-110077310D01*
X146537414Y-110077309D01*
X146534554Y-110075505D01*
X146531412Y-110074251D01*
X146531409Y-110074250D01*
X146341314Y-109998410D01*
X146341311Y-109998409D01*
X146338160Y-109997152D01*
X146181791Y-109966049D01*
X146134099Y-109956562D01*
X146134097Y-109956562D01*
X146130775Y-109955901D01*
X146037571Y-109954681D01*
X145922739Y-109953177D01*
X145922734Y-109953177D01*
X145919346Y-109953133D01*
X145916000Y-109953708D01*
X145915999Y-109953708D01*
X145858864Y-109963526D01*
X145710953Y-109988941D01*
X145512575Y-110062127D01*
X145330856Y-110170238D01*
X145328312Y-110172469D01*
X145328308Y-110172472D01*
X145281640Y-110213399D01*
X145171881Y-110309655D01*
X145169784Y-110312314D01*
X145169783Y-110312316D01*
X145059018Y-110452822D01*
X145040976Y-110475708D01*
X144942523Y-110662836D01*
X144941517Y-110666075D01*
X144941516Y-110666078D01*
X144925117Y-110718891D01*
X144879820Y-110864773D01*
X144854967Y-111074754D01*
X144868796Y-111285749D01*
X144920845Y-111490690D01*
X144922261Y-111493762D01*
X144922263Y-111493767D01*
X144970743Y-111598927D01*
X144974179Y-111607861D01*
X144980842Y-111629209D01*
X145004736Y-111673059D01*
X145006951Y-111677470D01*
X145007949Y-111679634D01*
X145009369Y-111682714D01*
X145011325Y-111685482D01*
X145013023Y-111688423D01*
X145012973Y-111688452D01*
X145014174Y-111690380D01*
X145062964Y-111779919D01*
X145063175Y-111780285D01*
X145063198Y-111780327D01*
X145067283Y-111787428D01*
X145069965Y-111792091D01*
X145070522Y-111793010D01*
X145070752Y-111793370D01*
X145077855Y-111804506D01*
X145077877Y-111804540D01*
X145078068Y-111804839D01*
X145078275Y-111805148D01*
X145078289Y-111805169D01*
X145163287Y-111931890D01*
X145165969Y-111935889D01*
X145172364Y-111945057D01*
X145172831Y-111945701D01*
X145179034Y-111953957D01*
X145179240Y-111954222D01*
X145179244Y-111954227D01*
X145190997Y-111969333D01*
X145266433Y-112066288D01*
X145269464Y-112070120D01*
X145269702Y-112070416D01*
X145271360Y-112072444D01*
X145272782Y-112074183D01*
X145272969Y-112074411D01*
X145354983Y-112173036D01*
X145355867Y-112174119D01*
X145423267Y-112258359D01*
X145426600Y-112262866D01*
X145468199Y-112323809D01*
X145475284Y-112334189D01*
X145480002Y-112342122D01*
X145513612Y-112407615D01*
X145515238Y-112410784D01*
X145519554Y-112421022D01*
X145546684Y-112501858D01*
X145546999Y-112502798D01*
X145549694Y-112513344D01*
X145569777Y-112625894D01*
X145570829Y-112635072D01*
X145579334Y-112799669D01*
X145580125Y-112802971D01*
X145582465Y-112812744D01*
X145584500Y-112829978D01*
X145584500Y-114729058D01*
X145567187Y-114776624D01*
X145523350Y-114801934D01*
X145479226Y-114796125D01*
X145477359Y-114795254D01*
X145473697Y-114792997D01*
X145469616Y-114791643D01*
X145469613Y-114791642D01*
X145316963Y-114741010D01*
X145316960Y-114741009D01*
X145313124Y-114739737D01*
X145213207Y-114729500D01*
X144741993Y-114729500D01*
X144266794Y-114729501D01*
X144165628Y-114739997D01*
X144005148Y-114793537D01*
X144001491Y-114795800D01*
X144000889Y-114796082D01*
X143950470Y-114800580D01*
X143908956Y-114771617D01*
X143895500Y-114729069D01*
X143895500Y-114555332D01*
X144093500Y-114555332D01*
X144102966Y-114552174D01*
X144106832Y-114551001D01*
X144112099Y-114549558D01*
X144116028Y-114548596D01*
X144131810Y-114545187D01*
X144135789Y-114544441D01*
X144141186Y-114543581D01*
X144145194Y-114543054D01*
X144246360Y-114532558D01*
X144248271Y-114532385D01*
X144250848Y-114532185D01*
X144252752Y-114532062D01*
X144260389Y-114531667D01*
X144262292Y-114531593D01*
X144264875Y-114531526D01*
X144266794Y-114531501D01*
X145213207Y-114531500D01*
X145215093Y-114531524D01*
X145217642Y-114531589D01*
X145219529Y-114531661D01*
X145227071Y-114532046D01*
X145228947Y-114532166D01*
X145231494Y-114532361D01*
X145233387Y-114532530D01*
X145333304Y-114542767D01*
X145337311Y-114543289D01*
X145342697Y-114544140D01*
X145346662Y-114544877D01*
X145362417Y-114548255D01*
X145366332Y-114549207D01*
X145371591Y-114550638D01*
X145375459Y-114551805D01*
X145386500Y-114555467D01*
X145386500Y-113813674D01*
X145257577Y-113620727D01*
X145161818Y-113524968D01*
X144855693Y-113320422D01*
X144501883Y-113250045D01*
X144148073Y-113320422D01*
X144093500Y-113356887D01*
X144093500Y-114555332D01*
X143895500Y-114555332D01*
X143895500Y-112829292D01*
X143897764Y-112811129D01*
X143899774Y-112803192D01*
X143899775Y-112803187D01*
X143900666Y-112799667D01*
X143909170Y-112635074D01*
X143910222Y-112625894D01*
X143930305Y-112513344D01*
X143933000Y-112502798D01*
X143933316Y-112501858D01*
X143960445Y-112421022D01*
X143964761Y-112410784D01*
X143966388Y-112407615D01*
X143999997Y-112342122D01*
X144004715Y-112334189D01*
X144011801Y-112323809D01*
X144053399Y-112262866D01*
X144056732Y-112258359D01*
X144124132Y-112174119D01*
X144125016Y-112173036D01*
X144207030Y-112074411D01*
X144207217Y-112074183D01*
X144208639Y-112072444D01*
X144210297Y-112070416D01*
X144210535Y-112070120D01*
X144213566Y-112066288D01*
X144289002Y-111969333D01*
X144300755Y-111954227D01*
X144300759Y-111954222D01*
X144300965Y-111953957D01*
X144307168Y-111945701D01*
X144307635Y-111945057D01*
X144314030Y-111935889D01*
X144316713Y-111931890D01*
X144401710Y-111805169D01*
X144401724Y-111805148D01*
X144401931Y-111804839D01*
X144402122Y-111804540D01*
X144402144Y-111804506D01*
X144409247Y-111793370D01*
X144409477Y-111793010D01*
X144409819Y-111792447D01*
X144409829Y-111792429D01*
X144410034Y-111792091D01*
X144414041Y-111785124D01*
X144416805Y-111780319D01*
X144416822Y-111780289D01*
X144417034Y-111779920D01*
X144489948Y-111646110D01*
X144498099Y-111631152D01*
X144498100Y-111631149D01*
X144499157Y-111629210D01*
X144499973Y-111627162D01*
X144499977Y-111627153D01*
X144507221Y-111608966D01*
X144511404Y-111600190D01*
X144512112Y-111598927D01*
X144525537Y-111574955D01*
X144593504Y-111374730D01*
X144593991Y-111371373D01*
X144593992Y-111371368D01*
X144623533Y-111167629D01*
X144623533Y-111167628D01*
X144623846Y-111165470D01*
X144625429Y-111105000D01*
X144622340Y-111071381D01*
X144606392Y-110897819D01*
X144606391Y-110897814D01*
X144606081Y-110894440D01*
X144596801Y-110861533D01*
X144556571Y-110718891D01*
X144548686Y-110690931D01*
X144455165Y-110501290D01*
X144438300Y-110478704D01*
X144330683Y-110334588D01*
X144330682Y-110334587D01*
X144328651Y-110331867D01*
X144256792Y-110265441D01*
X144175873Y-110190640D01*
X144175869Y-110190637D01*
X144173381Y-110188337D01*
X144133359Y-110163085D01*
X143997415Y-110077310D01*
X143997414Y-110077309D01*
X143994554Y-110075505D01*
X143991412Y-110074251D01*
X143991409Y-110074250D01*
X143801314Y-109998410D01*
X143801311Y-109998409D01*
X143798160Y-109997152D01*
X143641791Y-109966049D01*
X143594099Y-109956562D01*
X143594097Y-109956562D01*
X143590775Y-109955901D01*
X143497571Y-109954681D01*
X143382739Y-109953177D01*
X143382734Y-109953177D01*
X143379346Y-109953133D01*
X143376000Y-109953708D01*
X143375999Y-109953708D01*
X143318864Y-109963526D01*
X143170953Y-109988941D01*
X142972575Y-110062127D01*
X142790856Y-110170238D01*
X142788312Y-110172469D01*
X142788308Y-110172472D01*
X142741640Y-110213399D01*
X142631881Y-110309655D01*
X142629784Y-110312314D01*
X142629783Y-110312316D01*
X142519018Y-110452822D01*
X142500976Y-110475708D01*
X142402523Y-110662836D01*
X142401517Y-110666075D01*
X142401516Y-110666078D01*
X142385117Y-110718891D01*
X142339820Y-110864773D01*
X142314967Y-111074754D01*
X142328796Y-111285749D01*
X142380845Y-111490690D01*
X142382261Y-111493762D01*
X142382263Y-111493767D01*
X142430743Y-111598927D01*
X142434179Y-111607861D01*
X142440842Y-111629209D01*
X142464736Y-111673059D01*
X142466951Y-111677470D01*
X142467949Y-111679634D01*
X142469369Y-111682714D01*
X142471325Y-111685482D01*
X142473023Y-111688423D01*
X142472973Y-111688452D01*
X142474174Y-111690380D01*
X142522964Y-111779919D01*
X142523175Y-111780285D01*
X142523198Y-111780327D01*
X142527283Y-111787428D01*
X142529965Y-111792091D01*
X142530522Y-111793010D01*
X142530752Y-111793370D01*
X142537855Y-111804506D01*
X142537877Y-111804540D01*
X142538068Y-111804839D01*
X142538275Y-111805148D01*
X142538289Y-111805169D01*
X142623287Y-111931890D01*
X142625969Y-111935889D01*
X142632364Y-111945057D01*
X142632831Y-111945701D01*
X142639034Y-111953957D01*
X142639240Y-111954222D01*
X142639244Y-111954227D01*
X142650997Y-111969333D01*
X142726433Y-112066288D01*
X142729464Y-112070120D01*
X142729702Y-112070416D01*
X142731360Y-112072444D01*
X142732782Y-112074183D01*
X142732969Y-112074411D01*
X142814983Y-112173036D01*
X142815867Y-112174119D01*
X142883267Y-112258359D01*
X142886600Y-112262866D01*
X142928199Y-112323809D01*
X142935284Y-112334189D01*
X142940002Y-112342122D01*
X142973612Y-112407615D01*
X142975238Y-112410784D01*
X142979554Y-112421022D01*
X143006684Y-112501858D01*
X143006999Y-112502798D01*
X143009694Y-112513344D01*
X143029777Y-112625894D01*
X143030829Y-112635072D01*
X143039334Y-112799669D01*
X143040125Y-112802971D01*
X143042465Y-112812744D01*
X143044500Y-112829978D01*
X143044500Y-115972150D01*
X143043588Y-115983729D01*
X143040107Y-116005698D01*
X143040107Y-116005702D01*
X143039196Y-116011452D01*
X143040107Y-116017204D01*
X143043020Y-116035607D01*
X143043702Y-116041375D01*
X143054006Y-116172372D01*
X143054684Y-116175195D01*
X143089715Y-116321136D01*
X143083983Y-116371429D01*
X143047264Y-116406272D01*
X142996739Y-116409360D01*
X142957582Y-116381474D01*
X140340849Y-112725026D01*
X141915632Y-112725026D01*
X141986009Y-113078836D01*
X142190555Y-113384961D01*
X142286314Y-113480720D01*
X142592438Y-113685266D01*
X142846500Y-113735802D01*
X142846500Y-112844488D01*
X142846063Y-112842459D01*
X142845201Y-112837955D01*
X142844641Y-112834614D01*
X142842705Y-112821198D01*
X142842297Y-112817831D01*
X142841851Y-112813270D01*
X142841599Y-112809887D01*
X142833495Y-112653046D01*
X142816380Y-112557127D01*
X142794816Y-112492875D01*
X142767382Y-112439417D01*
X142725721Y-112378382D01*
X142661981Y-112298717D01*
X142580652Y-112200915D01*
X142580558Y-112200802D01*
X142580370Y-112200575D01*
X142580187Y-112200352D01*
X142579800Y-112199881D01*
X142579742Y-112199811D01*
X142579616Y-112199657D01*
X142576426Y-112195756D01*
X142576319Y-112195626D01*
X142576214Y-112195497D01*
X142576166Y-112195438D01*
X142575781Y-112194964D01*
X142575642Y-112194792D01*
X142575487Y-112194600D01*
X142575396Y-112194487D01*
X142575158Y-112194191D01*
X142575144Y-112194174D01*
X142575009Y-112194006D01*
X142574823Y-112193774D01*
X142574454Y-112193311D01*
X142574345Y-112193173D01*
X142574230Y-112193028D01*
X142574170Y-112192952D01*
X142571139Y-112189120D01*
X142571001Y-112188946D01*
X142570854Y-112188759D01*
X142570774Y-112188656D01*
X142570409Y-112188190D01*
X142570303Y-112188055D01*
X142570204Y-112187928D01*
X142570163Y-112187874D01*
X142482764Y-112075543D01*
X142482554Y-112075273D01*
X142482302Y-112074946D01*
X142482139Y-112074733D01*
X142481381Y-112073742D01*
X142481186Y-112073486D01*
X142480926Y-112073143D01*
X142480736Y-112072891D01*
X142474533Y-112064635D01*
X142474405Y-112064465D01*
X142474169Y-112064149D01*
X142473949Y-112063852D01*
X142473204Y-112062844D01*
X142473009Y-112062579D01*
X142472741Y-112062213D01*
X142472539Y-112061937D01*
X142472072Y-112061293D01*
X142471826Y-112060951D01*
X142471548Y-112060563D01*
X142471382Y-112060330D01*
X142470596Y-112059224D01*
X142470427Y-112058985D01*
X142470174Y-112058626D01*
X142469969Y-112058334D01*
X142463574Y-112049166D01*
X142463443Y-112048977D01*
X142463188Y-112048609D01*
X142462942Y-112048253D01*
X142462179Y-112047138D01*
X142461923Y-112046762D01*
X142461663Y-112046377D01*
X142461533Y-112046183D01*
X142373632Y-111915133D01*
X142373417Y-111914811D01*
X142373100Y-111914333D01*
X142372847Y-111913948D01*
X142371916Y-111912525D01*
X142371739Y-111912253D01*
X142286313Y-111969333D01*
X142278500Y-111977146D01*
X142278500Y-111999646D01*
X142278469Y-112001788D01*
X142278385Y-112004689D01*
X142278291Y-112006840D01*
X142277793Y-112015409D01*
X142277638Y-112017546D01*
X142277386Y-112020435D01*
X142277168Y-112022574D01*
X142274174Y-112048255D01*
X142273325Y-112053741D01*
X142271901Y-112061102D01*
X142270643Y-112066510D01*
X142264822Y-112087863D01*
X142263158Y-112093170D01*
X142260648Y-112100236D01*
X142258598Y-112105388D01*
X142213333Y-112207774D01*
X142210298Y-112213865D01*
X142205823Y-112221898D01*
X142202234Y-112227695D01*
X142186924Y-112250053D01*
X142182821Y-112255489D01*
X142176952Y-112262564D01*
X142172369Y-112267598D01*
X142093281Y-112346824D01*
X142088253Y-112351418D01*
X142081188Y-112357299D01*
X142075760Y-112361410D01*
X142053428Y-112376759D01*
X142047642Y-112380355D01*
X142039618Y-112384844D01*
X142033529Y-112387892D01*
X141977766Y-112412661D01*
X141915632Y-112725026D01*
X140340849Y-112725026D01*
X140088611Y-112372566D01*
X140075007Y-112323809D01*
X140095927Y-112277715D01*
X140141581Y-112255852D01*
X140148788Y-112255500D01*
X141824646Y-112255500D01*
X141850846Y-112252382D01*
X141953153Y-112206939D01*
X142032241Y-112127713D01*
X142035470Y-112120411D01*
X142075256Y-112030417D01*
X142075256Y-112030415D01*
X142077506Y-112025327D01*
X142078663Y-112015409D01*
X142080252Y-112001775D01*
X142080252Y-112001771D01*
X142080500Y-111999646D01*
X142080500Y-110210354D01*
X142077382Y-110184154D01*
X142031939Y-110081847D01*
X141952713Y-110002759D01*
X141946465Y-109999997D01*
X141946464Y-109999996D01*
X141855417Y-109959744D01*
X141855415Y-109959744D01*
X141850327Y-109957494D01*
X141844799Y-109956850D01*
X141844797Y-109956849D01*
X141826775Y-109954748D01*
X141826771Y-109954748D01*
X141824646Y-109954500D01*
X140035354Y-109954500D01*
X140035354Y-109953360D01*
X139990398Y-109939973D01*
X139962520Y-109897722D01*
X139960500Y-109880551D01*
X139960500Y-109613756D01*
X141915632Y-109613756D01*
X141949681Y-109784931D01*
X142032774Y-109821667D01*
X142038865Y-109824702D01*
X142046898Y-109829177D01*
X142052695Y-109832766D01*
X142075053Y-109848076D01*
X142080489Y-109852179D01*
X142087564Y-109858048D01*
X142092598Y-109862631D01*
X142171824Y-109941719D01*
X142176418Y-109946747D01*
X142182299Y-109953812D01*
X142186410Y-109959240D01*
X142201759Y-109981572D01*
X142205355Y-109987358D01*
X142209844Y-109995382D01*
X142212892Y-110001472D01*
X142258335Y-110103779D01*
X142260394Y-110108927D01*
X142262911Y-110115974D01*
X142264577Y-110121255D01*
X142270429Y-110142549D01*
X142271695Y-110147934D01*
X142273133Y-110155275D01*
X142273994Y-110160755D01*
X142277112Y-110186955D01*
X142277340Y-110189147D01*
X142277602Y-110192094D01*
X142277763Y-110194263D01*
X142278282Y-110203008D01*
X142278379Y-110205194D01*
X142278467Y-110208156D01*
X142278500Y-110210354D01*
X142278500Y-110361636D01*
X142286314Y-110369450D01*
X142320967Y-110392604D01*
X142325749Y-110383515D01*
X142327395Y-110380554D01*
X142329710Y-110376604D01*
X142331491Y-110373719D01*
X142338866Y-110362362D01*
X142340773Y-110359567D01*
X142343441Y-110355843D01*
X142345482Y-110353127D01*
X142476387Y-110187074D01*
X142478554Y-110184452D01*
X142481552Y-110180989D01*
X142483822Y-110178485D01*
X142493144Y-110168662D01*
X142495531Y-110166259D01*
X142498832Y-110163085D01*
X142501330Y-110160791D01*
X142660305Y-110021374D01*
X142662903Y-110019199D01*
X142666481Y-110016340D01*
X142669179Y-110014284D01*
X142680135Y-110006324D01*
X142682923Y-110004394D01*
X142686747Y-110001875D01*
X142689619Y-110000076D01*
X142871338Y-109891965D01*
X142874296Y-109890296D01*
X142878336Y-109888137D01*
X142881356Y-109886611D01*
X142893579Y-109880781D01*
X142896658Y-109879397D01*
X142900877Y-109877616D01*
X142904043Y-109876365D01*
X143102421Y-109803179D01*
X143105639Y-109802075D01*
X143110004Y-109800689D01*
X143113247Y-109799740D01*
X143126328Y-109796235D01*
X143129615Y-109795435D01*
X143134089Y-109794453D01*
X143137422Y-109793801D01*
X143345815Y-109757993D01*
X143349164Y-109757496D01*
X143353706Y-109756928D01*
X143357081Y-109756584D01*
X143370582Y-109755521D01*
X143373968Y-109755333D01*
X143378548Y-109755183D01*
X143381939Y-109755149D01*
X143593368Y-109757917D01*
X143596761Y-109758040D01*
X143601334Y-109758310D01*
X143604710Y-109758587D01*
X143618178Y-109760003D01*
X143621545Y-109760435D01*
X143626071Y-109761122D01*
X143629403Y-109761706D01*
X143836788Y-109802957D01*
X143840089Y-109803692D01*
X143844536Y-109804790D01*
X143847815Y-109805680D01*
X143860799Y-109809526D01*
X143864034Y-109810566D01*
X143868361Y-109812067D01*
X143871530Y-109813248D01*
X143932356Y-109837515D01*
X143976865Y-109613756D01*
X145026902Y-109613756D01*
X145097279Y-109967567D01*
X145158014Y-110058463D01*
X145200306Y-110021374D01*
X145202903Y-110019199D01*
X145206481Y-110016340D01*
X145209179Y-110014284D01*
X145220135Y-110006324D01*
X145222923Y-110004394D01*
X145226747Y-110001875D01*
X145229619Y-110000076D01*
X145411338Y-109891965D01*
X145414296Y-109890296D01*
X145418336Y-109888137D01*
X145421356Y-109886611D01*
X145433579Y-109880781D01*
X145436658Y-109879397D01*
X145440877Y-109877616D01*
X145444043Y-109876365D01*
X145642421Y-109803179D01*
X145645639Y-109802075D01*
X145650004Y-109800689D01*
X145653247Y-109799740D01*
X145666328Y-109796235D01*
X145669615Y-109795435D01*
X145674089Y-109794453D01*
X145677422Y-109793801D01*
X145885815Y-109757993D01*
X145889164Y-109757496D01*
X145893706Y-109756928D01*
X145897081Y-109756584D01*
X145910582Y-109755521D01*
X145913968Y-109755333D01*
X145918548Y-109755183D01*
X145921939Y-109755149D01*
X146133368Y-109757917D01*
X146136761Y-109758040D01*
X146141334Y-109758310D01*
X146144710Y-109758587D01*
X146158178Y-109760003D01*
X146161545Y-109760435D01*
X146166071Y-109761122D01*
X146169403Y-109761706D01*
X146376788Y-109802957D01*
X146380089Y-109803692D01*
X146384536Y-109804790D01*
X146387815Y-109805680D01*
X146400799Y-109809526D01*
X146404034Y-109810566D01*
X146408361Y-109812067D01*
X146411530Y-109813248D01*
X146607924Y-109891601D01*
X146611038Y-109892927D01*
X146615208Y-109894816D01*
X146618266Y-109896287D01*
X146630333Y-109902435D01*
X146633320Y-109904044D01*
X146637303Y-109906309D01*
X146640211Y-109908051D01*
X146819038Y-110020883D01*
X146821860Y-110022756D01*
X146825618Y-110025375D01*
X146828358Y-110027379D01*
X146839101Y-110035623D01*
X146841743Y-110037749D01*
X146845244Y-110040700D01*
X146847783Y-110042941D01*
X146921724Y-110111291D01*
X147017758Y-109967567D01*
X147088134Y-109613756D01*
X148138172Y-109613756D01*
X148176299Y-109805438D01*
X148182422Y-109803179D01*
X148185639Y-109802075D01*
X148190004Y-109800689D01*
X148193247Y-109799740D01*
X148206328Y-109796235D01*
X148209615Y-109795435D01*
X148214089Y-109794453D01*
X148217422Y-109793801D01*
X148425815Y-109757993D01*
X148429164Y-109757496D01*
X148433706Y-109756928D01*
X148437081Y-109756584D01*
X148450582Y-109755521D01*
X148453968Y-109755333D01*
X148458548Y-109755183D01*
X148461939Y-109755149D01*
X148673368Y-109757917D01*
X148676761Y-109758040D01*
X148681334Y-109758310D01*
X148684710Y-109758587D01*
X148698178Y-109760003D01*
X148701545Y-109760435D01*
X148706071Y-109761122D01*
X148709403Y-109761706D01*
X148916788Y-109802957D01*
X148920089Y-109803692D01*
X148924536Y-109804790D01*
X148927815Y-109805680D01*
X148940799Y-109809526D01*
X148944034Y-109810566D01*
X148948361Y-109812067D01*
X148951530Y-109813248D01*
X149147924Y-109891601D01*
X149151038Y-109892927D01*
X149155208Y-109894816D01*
X149158266Y-109896287D01*
X149170333Y-109902435D01*
X149173320Y-109904044D01*
X149177303Y-109906309D01*
X149180211Y-109908051D01*
X149359038Y-110020883D01*
X149361860Y-110022756D01*
X149365618Y-110025375D01*
X149368358Y-110027379D01*
X149379101Y-110035623D01*
X149381743Y-110037749D01*
X149385244Y-110040700D01*
X149387783Y-110042941D01*
X149543053Y-110186471D01*
X149545486Y-110188826D01*
X149548703Y-110192085D01*
X149551031Y-110194553D01*
X149560093Y-110204617D01*
X149562304Y-110207189D01*
X149565210Y-110210730D01*
X149567300Y-110213399D01*
X149693814Y-110382822D01*
X149695780Y-110385585D01*
X149698349Y-110389376D01*
X149700185Y-110392224D01*
X149707261Y-110403771D01*
X149708962Y-110406693D01*
X149711174Y-110410703D01*
X149712747Y-110413717D01*
X149725071Y-110438707D01*
X149828722Y-110369450D01*
X149924482Y-110273690D01*
X150129028Y-109967567D01*
X150199404Y-109613756D01*
X151249441Y-109613756D01*
X151314929Y-109942985D01*
X151355824Y-109940985D01*
X151368712Y-109941480D01*
X151385940Y-109943656D01*
X151398549Y-109946382D01*
X151537940Y-109989530D01*
X151541363Y-109990682D01*
X151545955Y-109992353D01*
X151549328Y-109993675D01*
X151562642Y-109999272D01*
X151565950Y-110000759D01*
X151570354Y-110002870D01*
X151573564Y-110004506D01*
X151746072Y-110097781D01*
X151749200Y-110099572D01*
X151753379Y-110102102D01*
X151756436Y-110104056D01*
X151768409Y-110112132D01*
X151771358Y-110114228D01*
X151775269Y-110117154D01*
X151778108Y-110119389D01*
X151929213Y-110244394D01*
X151931945Y-110246769D01*
X151935552Y-110250063D01*
X151938158Y-110252562D01*
X151948335Y-110262810D01*
X151950823Y-110265441D01*
X151954092Y-110269072D01*
X151956443Y-110271815D01*
X152080391Y-110423790D01*
X152082607Y-110426646D01*
X152085506Y-110430578D01*
X152087580Y-110433541D01*
X152095572Y-110445570D01*
X152097497Y-110448627D01*
X152099998Y-110452822D01*
X152101775Y-110455975D01*
X152192710Y-110626999D01*
X152280058Y-110644373D01*
X152366254Y-110627228D01*
X152373429Y-110604121D01*
X152374507Y-110600911D01*
X152376063Y-110596606D01*
X152377289Y-110593444D01*
X152382471Y-110580932D01*
X152383842Y-110577825D01*
X152385788Y-110573676D01*
X152387296Y-110570643D01*
X152485749Y-110383515D01*
X152487395Y-110380554D01*
X152489710Y-110376604D01*
X152491491Y-110373719D01*
X152498866Y-110362362D01*
X152500773Y-110359567D01*
X152503441Y-110355843D01*
X152505482Y-110353127D01*
X152636387Y-110187074D01*
X152638554Y-110184452D01*
X152641552Y-110180989D01*
X152643822Y-110178485D01*
X152653144Y-110168662D01*
X152655531Y-110166259D01*
X152658832Y-110163085D01*
X152661330Y-110160791D01*
X152820305Y-110021374D01*
X152822903Y-110019199D01*
X152826481Y-110016340D01*
X152829179Y-110014284D01*
X152840135Y-110006324D01*
X152842923Y-110004394D01*
X152846747Y-110001875D01*
X152849619Y-110000076D01*
X153031338Y-109891965D01*
X153034296Y-109890296D01*
X153038336Y-109888137D01*
X153041356Y-109886611D01*
X153053579Y-109880781D01*
X153056658Y-109879397D01*
X153060877Y-109877616D01*
X153064043Y-109876365D01*
X153262421Y-109803179D01*
X153265639Y-109802075D01*
X153270004Y-109800689D01*
X153273247Y-109799740D01*
X153273704Y-109799617D01*
X153310674Y-109613756D01*
X153240297Y-109259946D01*
X153035751Y-108953822D01*
X152939992Y-108858063D01*
X152633868Y-108653517D01*
X152280058Y-108583140D01*
X151926248Y-108653517D01*
X151620124Y-108858063D01*
X151524364Y-108953823D01*
X151319818Y-109259946D01*
X151249441Y-109613756D01*
X150199404Y-109613756D01*
X150129028Y-109259946D01*
X149924482Y-108953823D01*
X149828722Y-108858063D01*
X149522598Y-108653517D01*
X149168788Y-108583140D01*
X148814978Y-108653517D01*
X148508854Y-108858063D01*
X148413094Y-108953823D01*
X148208548Y-109259946D01*
X148138172Y-109613756D01*
X147088134Y-109613756D01*
X147017758Y-109259946D01*
X146813212Y-108953823D01*
X146717452Y-108858063D01*
X146411328Y-108653517D01*
X146057518Y-108583140D01*
X145703708Y-108653517D01*
X145397584Y-108858063D01*
X145301825Y-108953822D01*
X145097279Y-109259946D01*
X145026902Y-109613756D01*
X143976865Y-109613756D01*
X143906488Y-109259946D01*
X143701942Y-108953823D01*
X143606182Y-108858063D01*
X143300058Y-108653517D01*
X142946248Y-108583140D01*
X142592438Y-108653517D01*
X142286314Y-108858063D01*
X142190555Y-108953822D01*
X141986009Y-109259946D01*
X141915632Y-109613756D01*
X139960500Y-109613756D01*
X139960500Y-108058122D01*
X140359997Y-108058122D01*
X140430374Y-108411932D01*
X140634920Y-108718055D01*
X140730680Y-108813815D01*
X141036803Y-109018361D01*
X141390613Y-109088738D01*
X141744423Y-109018361D01*
X142050547Y-108813815D01*
X142146307Y-108718055D01*
X142350853Y-108411932D01*
X142421230Y-108058122D01*
X143471267Y-108058122D01*
X143541644Y-108411932D01*
X143746190Y-108718056D01*
X143841949Y-108813815D01*
X144148073Y-109018361D01*
X144501883Y-109088738D01*
X144855693Y-109018361D01*
X145161817Y-108813815D01*
X145257577Y-108718055D01*
X145462123Y-108411932D01*
X145532500Y-108058122D01*
X146582537Y-108058122D01*
X146652913Y-108411932D01*
X146857459Y-108718055D01*
X146953219Y-108813815D01*
X147259343Y-109018361D01*
X147613153Y-109088738D01*
X147966963Y-109018361D01*
X148273087Y-108813815D01*
X148368847Y-108718055D01*
X148573393Y-108411932D01*
X148643769Y-108058122D01*
X149693807Y-108058122D01*
X149764183Y-108411932D01*
X149968729Y-108718055D01*
X150064489Y-108813815D01*
X150370613Y-109018361D01*
X150724423Y-109088738D01*
X151078233Y-109018361D01*
X151384357Y-108813815D01*
X151480116Y-108718056D01*
X151684662Y-108411932D01*
X151755039Y-108058122D01*
X152805076Y-108058122D01*
X152875453Y-108411932D01*
X153079999Y-108718055D01*
X153175759Y-108813815D01*
X153481883Y-109018361D01*
X153835693Y-109088738D01*
X154189503Y-109018361D01*
X154401500Y-108876708D01*
X154401500Y-107239535D01*
X154189503Y-107097882D01*
X153835693Y-107027505D01*
X153481883Y-107097882D01*
X153175759Y-107302428D01*
X153079999Y-107398188D01*
X152875453Y-107704311D01*
X152805076Y-108058122D01*
X151755039Y-108058122D01*
X151684662Y-107704311D01*
X151480116Y-107398187D01*
X151384357Y-107302428D01*
X151078233Y-107097882D01*
X150724423Y-107027505D01*
X150370613Y-107097882D01*
X150064489Y-107302428D01*
X149968729Y-107398188D01*
X149764183Y-107704311D01*
X149693807Y-108058122D01*
X148643769Y-108058122D01*
X148573393Y-107704311D01*
X148368847Y-107398188D01*
X148273087Y-107302428D01*
X147966963Y-107097882D01*
X147613153Y-107027505D01*
X147259343Y-107097882D01*
X146953219Y-107302428D01*
X146857459Y-107398188D01*
X146652913Y-107704311D01*
X146582537Y-108058122D01*
X145532500Y-108058122D01*
X145462123Y-107704311D01*
X145257577Y-107398188D01*
X145161817Y-107302428D01*
X144855693Y-107097882D01*
X144501883Y-107027505D01*
X144148073Y-107097882D01*
X143841949Y-107302428D01*
X143746190Y-107398187D01*
X143541644Y-107704311D01*
X143471267Y-108058122D01*
X142421230Y-108058122D01*
X142350853Y-107704311D01*
X142146307Y-107398188D01*
X142050547Y-107302428D01*
X141744423Y-107097882D01*
X141390613Y-107027505D01*
X141036803Y-107097882D01*
X140730680Y-107302428D01*
X140634920Y-107398188D01*
X140430374Y-107704311D01*
X140359997Y-108058122D01*
X139960500Y-108058122D01*
X139960500Y-106502487D01*
X141915632Y-106502487D01*
X141986009Y-106856297D01*
X142190555Y-107162421D01*
X142286314Y-107258180D01*
X142592438Y-107462726D01*
X142946248Y-107533103D01*
X143300058Y-107462726D01*
X143606182Y-107258180D01*
X143701942Y-107162420D01*
X143906488Y-106856297D01*
X143976865Y-106502487D01*
X145026902Y-106502487D01*
X145097279Y-106856297D01*
X145301825Y-107162421D01*
X145397584Y-107258180D01*
X145703708Y-107462726D01*
X146057518Y-107533103D01*
X146411328Y-107462726D01*
X146717452Y-107258180D01*
X146813212Y-107162420D01*
X147017758Y-106856297D01*
X147088134Y-106502487D01*
X148138172Y-106502487D01*
X148208548Y-106856297D01*
X148413094Y-107162420D01*
X148508854Y-107258180D01*
X148814978Y-107462726D01*
X149168788Y-107533103D01*
X149522598Y-107462726D01*
X149828722Y-107258180D01*
X149924482Y-107162420D01*
X150129028Y-106856297D01*
X150199404Y-106502487D01*
X151249441Y-106502487D01*
X151319818Y-106856297D01*
X151524364Y-107162420D01*
X151620124Y-107258180D01*
X151926248Y-107462726D01*
X152280058Y-107533103D01*
X152633868Y-107462726D01*
X152939992Y-107258180D01*
X153035751Y-107162421D01*
X153240297Y-106856297D01*
X153310674Y-106502487D01*
X153240297Y-106148677D01*
X153035751Y-105842552D01*
X152939992Y-105746793D01*
X152633868Y-105542247D01*
X152280058Y-105471870D01*
X151926248Y-105542247D01*
X151620124Y-105746793D01*
X151524364Y-105842553D01*
X151319818Y-106148677D01*
X151249441Y-106502487D01*
X150199404Y-106502487D01*
X150129028Y-106148677D01*
X149924482Y-105842553D01*
X149828722Y-105746793D01*
X149522598Y-105542247D01*
X149168788Y-105471870D01*
X148814978Y-105542247D01*
X148508854Y-105746793D01*
X148413094Y-105842553D01*
X148208548Y-106148677D01*
X148138172Y-106502487D01*
X147088134Y-106502487D01*
X147017758Y-106148677D01*
X146813212Y-105842553D01*
X146717452Y-105746793D01*
X146411328Y-105542247D01*
X146057518Y-105471870D01*
X145703708Y-105542247D01*
X145397584Y-105746793D01*
X145301825Y-105842552D01*
X145097279Y-106148677D01*
X145026902Y-106502487D01*
X143976865Y-106502487D01*
X143906488Y-106148677D01*
X143701942Y-105842553D01*
X143606182Y-105746793D01*
X143300058Y-105542247D01*
X142946248Y-105471870D01*
X142592438Y-105542247D01*
X142286314Y-105746793D01*
X142190555Y-105842552D01*
X141986009Y-106148677D01*
X141915632Y-106502487D01*
X139960500Y-106502487D01*
X139960500Y-104946852D01*
X140359997Y-104946852D01*
X140430374Y-105300662D01*
X140634920Y-105606785D01*
X140730680Y-105702545D01*
X141036803Y-105907091D01*
X141390613Y-105977468D01*
X141744423Y-105907091D01*
X142050547Y-105702545D01*
X142146307Y-105606785D01*
X142350853Y-105300662D01*
X142421230Y-104946852D01*
X143471267Y-104946852D01*
X143541644Y-105300662D01*
X143746190Y-105606786D01*
X143841949Y-105702545D01*
X144148073Y-105907091D01*
X144501883Y-105977468D01*
X144855693Y-105907091D01*
X145161817Y-105702545D01*
X145257577Y-105606785D01*
X145462123Y-105300662D01*
X145532500Y-104946852D01*
X146582537Y-104946852D01*
X146652913Y-105300662D01*
X146857459Y-105606785D01*
X146953219Y-105702545D01*
X147259343Y-105907091D01*
X147613153Y-105977468D01*
X147966963Y-105907091D01*
X148273087Y-105702545D01*
X148368847Y-105606785D01*
X148573393Y-105300662D01*
X148643769Y-104946852D01*
X149693807Y-104946852D01*
X149764183Y-105300662D01*
X149968729Y-105606785D01*
X150064489Y-105702545D01*
X150370613Y-105907091D01*
X150724423Y-105977468D01*
X151078233Y-105907091D01*
X151384357Y-105702545D01*
X151480116Y-105606786D01*
X151684662Y-105300662D01*
X151755039Y-104946852D01*
X152805076Y-104946852D01*
X152875453Y-105300662D01*
X153079999Y-105606785D01*
X153175759Y-105702545D01*
X153481883Y-105907091D01*
X153835693Y-105977468D01*
X154189503Y-105907091D01*
X154401500Y-105765438D01*
X154401500Y-104128265D01*
X154189503Y-103986612D01*
X153835693Y-103916235D01*
X153481883Y-103986612D01*
X153175759Y-104191158D01*
X153079999Y-104286918D01*
X152875453Y-104593042D01*
X152805076Y-104946852D01*
X151755039Y-104946852D01*
X151684662Y-104593042D01*
X151480116Y-104286917D01*
X151384357Y-104191158D01*
X151078233Y-103986612D01*
X150724423Y-103916235D01*
X150370613Y-103986612D01*
X150064489Y-104191158D01*
X149968729Y-104286918D01*
X149764183Y-104593042D01*
X149693807Y-104946852D01*
X148643769Y-104946852D01*
X148573393Y-104593042D01*
X148368847Y-104286918D01*
X148273087Y-104191158D01*
X147966963Y-103986612D01*
X147613153Y-103916235D01*
X147259343Y-103986612D01*
X146953219Y-104191158D01*
X146857459Y-104286918D01*
X146652913Y-104593042D01*
X146582537Y-104946852D01*
X145532500Y-104946852D01*
X145462123Y-104593042D01*
X145257577Y-104286918D01*
X145161817Y-104191158D01*
X144855693Y-103986612D01*
X144501883Y-103916235D01*
X144148073Y-103986612D01*
X143841949Y-104191158D01*
X143746190Y-104286917D01*
X143541644Y-104593042D01*
X143471267Y-104946852D01*
X142421230Y-104946852D01*
X142350853Y-104593042D01*
X142146307Y-104286918D01*
X142050547Y-104191158D01*
X141744423Y-103986612D01*
X141390613Y-103916235D01*
X141036803Y-103986612D01*
X140730680Y-104191158D01*
X140634920Y-104286918D01*
X140430374Y-104593042D01*
X140359997Y-104946852D01*
X139960500Y-104946852D01*
X139960500Y-103391217D01*
X141915632Y-103391217D01*
X141986009Y-103745027D01*
X142190555Y-104051152D01*
X142286313Y-104146910D01*
X142592438Y-104351456D01*
X142946248Y-104421833D01*
X143300058Y-104351456D01*
X143606183Y-104146910D01*
X143701942Y-104051151D01*
X143906488Y-103745027D01*
X143976865Y-103391217D01*
X145026902Y-103391217D01*
X145097279Y-103745027D01*
X145301825Y-104051152D01*
X145397583Y-104146910D01*
X145703708Y-104351456D01*
X146057518Y-104421833D01*
X146411328Y-104351456D01*
X146717453Y-104146910D01*
X146813212Y-104051151D01*
X147017758Y-103745027D01*
X147088134Y-103391217D01*
X148138172Y-103391217D01*
X148208548Y-103745027D01*
X148413094Y-104051151D01*
X148508853Y-104146910D01*
X148814978Y-104351456D01*
X149168788Y-104421833D01*
X149522598Y-104351456D01*
X149828723Y-104146910D01*
X149924482Y-104051151D01*
X150129028Y-103745027D01*
X150199404Y-103391217D01*
X151249441Y-103391217D01*
X151319818Y-103745027D01*
X151524364Y-104051151D01*
X151620123Y-104146910D01*
X151926248Y-104351456D01*
X152280058Y-104421833D01*
X152633868Y-104351456D01*
X152939993Y-104146910D01*
X153035751Y-104051152D01*
X153240297Y-103745027D01*
X153310674Y-103391217D01*
X153240297Y-103037407D01*
X153035751Y-102731282D01*
X152939992Y-102635523D01*
X152633868Y-102430977D01*
X152280058Y-102360600D01*
X151926248Y-102430977D01*
X151620124Y-102635523D01*
X151524364Y-102731283D01*
X151319818Y-103037407D01*
X151249441Y-103391217D01*
X150199404Y-103391217D01*
X150129028Y-103037407D01*
X149924482Y-102731283D01*
X149828722Y-102635523D01*
X149522598Y-102430977D01*
X149168788Y-102360600D01*
X148814978Y-102430977D01*
X148508854Y-102635523D01*
X148413094Y-102731283D01*
X148208548Y-103037407D01*
X148138172Y-103391217D01*
X147088134Y-103391217D01*
X147017758Y-103037407D01*
X146813212Y-102731283D01*
X146717452Y-102635523D01*
X146411328Y-102430977D01*
X146057518Y-102360600D01*
X145703708Y-102430977D01*
X145397584Y-102635523D01*
X145301825Y-102731282D01*
X145097279Y-103037407D01*
X145026902Y-103391217D01*
X143976865Y-103391217D01*
X143906488Y-103037407D01*
X143701942Y-102731283D01*
X143606182Y-102635523D01*
X143300058Y-102430977D01*
X142946248Y-102360600D01*
X142592438Y-102430977D01*
X142286314Y-102635523D01*
X142190555Y-102731282D01*
X141986009Y-103037407D01*
X141915632Y-103391217D01*
X139960500Y-103391217D01*
X139960500Y-101962768D01*
X139961624Y-101949918D01*
X139964012Y-101936375D01*
X139964012Y-101936374D01*
X139965136Y-101930001D01*
X139964012Y-101923623D01*
X139963925Y-101923129D01*
X139963157Y-101903030D01*
X139969800Y-101835582D01*
X140359997Y-101835582D01*
X140430374Y-102189392D01*
X140634920Y-102495516D01*
X140730679Y-102591275D01*
X141036803Y-102795821D01*
X141390613Y-102866198D01*
X141744423Y-102795821D01*
X142050548Y-102591275D01*
X142146307Y-102495516D01*
X142350853Y-102189392D01*
X142421230Y-101835582D01*
X143471267Y-101835582D01*
X143541644Y-102189392D01*
X143746190Y-102495517D01*
X143841948Y-102591275D01*
X144148073Y-102795821D01*
X144501883Y-102866198D01*
X144855693Y-102795821D01*
X145161818Y-102591275D01*
X145257577Y-102495516D01*
X145462123Y-102189392D01*
X145532500Y-101835582D01*
X146582537Y-101835582D01*
X146652913Y-102189392D01*
X146857459Y-102495516D01*
X146953218Y-102591275D01*
X147259343Y-102795821D01*
X147613153Y-102866198D01*
X147966963Y-102795821D01*
X148273088Y-102591275D01*
X148368847Y-102495516D01*
X148573393Y-102189392D01*
X148643769Y-101835582D01*
X149693807Y-101835582D01*
X149764183Y-102189392D01*
X149968729Y-102495516D01*
X150064488Y-102591275D01*
X150370613Y-102795821D01*
X150724423Y-102866198D01*
X151078233Y-102795821D01*
X151384358Y-102591275D01*
X151480116Y-102495517D01*
X151684662Y-102189392D01*
X151755039Y-101835582D01*
X152805076Y-101835582D01*
X152875453Y-102189392D01*
X153079999Y-102495516D01*
X153175758Y-102591275D01*
X153481883Y-102795821D01*
X153835693Y-102866198D01*
X154189503Y-102795821D01*
X154401500Y-102654169D01*
X154401500Y-101973616D01*
X154399872Y-101964383D01*
X154399030Y-101957985D01*
X154398270Y-101949302D01*
X154397988Y-101942850D01*
X154397988Y-101917152D01*
X154398269Y-101910706D01*
X154398444Y-101908705D01*
X154390923Y-101832350D01*
X154362439Y-101738447D01*
X154316188Y-101651918D01*
X154253936Y-101576064D01*
X154178082Y-101513812D01*
X154091553Y-101467561D01*
X153997650Y-101439077D01*
X153921295Y-101431556D01*
X153919294Y-101431731D01*
X153912848Y-101432012D01*
X153887150Y-101432012D01*
X153880698Y-101431730D01*
X153872015Y-101430970D01*
X153865617Y-101430128D01*
X153856384Y-101428500D01*
X152911049Y-101428500D01*
X152875453Y-101481772D01*
X152805076Y-101835582D01*
X151755039Y-101835582D01*
X151684662Y-101481772D01*
X151649067Y-101428500D01*
X149799778Y-101428500D01*
X149764183Y-101481772D01*
X149693807Y-101835582D01*
X148643769Y-101835582D01*
X148573393Y-101481772D01*
X148537798Y-101428500D01*
X146688508Y-101428501D01*
X146652913Y-101481772D01*
X146582537Y-101835582D01*
X145532500Y-101835582D01*
X145462123Y-101481772D01*
X145426528Y-101428501D01*
X143577239Y-101428501D01*
X143541644Y-101481772D01*
X143471267Y-101835582D01*
X142421230Y-101835582D01*
X142350853Y-101481772D01*
X142315258Y-101428501D01*
X140703616Y-101428501D01*
X140694383Y-101430129D01*
X140687985Y-101430971D01*
X140679302Y-101431731D01*
X140672850Y-101432013D01*
X140647151Y-101432013D01*
X140640698Y-101431731D01*
X140638701Y-101431556D01*
X140562348Y-101439077D01*
X140468448Y-101467560D01*
X140429008Y-101488641D01*
X140359997Y-101835582D01*
X139969800Y-101835582D01*
X139973227Y-101800789D01*
X139976057Y-101786561D01*
X140011631Y-101669287D01*
X140017183Y-101655885D01*
X140074952Y-101547807D01*
X140083011Y-101535745D01*
X140160755Y-101441013D01*
X140171013Y-101430755D01*
X140173760Y-101428501D01*
X140265747Y-101353009D01*
X140277808Y-101344950D01*
X140291258Y-101337761D01*
X140385886Y-101287181D01*
X140399285Y-101281631D01*
X140516561Y-101246057D01*
X140530787Y-101243227D01*
X140600937Y-101236317D01*
X140633024Y-101233157D01*
X140653126Y-101233925D01*
X140660000Y-101235137D01*
X140679918Y-101231625D01*
X140692767Y-101230501D01*
X147280000Y-101230501D01*
X153867233Y-101230500D01*
X153880082Y-101231624D01*
G37*
%TD.AperFunction*%
%TD*%
M02*
