M48
; DRILL file {KiCad (6.0.4)} date Wed 04 May 2022 05:58:43 PM CEST
; FORMAT={-:-/ absolute / metric / decimal}
; #@! TF.CreationDate,2022-05-04T17:58:43+02:00
; #@! TF.GenerationSoftware,Kicad,Pcbnew,(6.0.4)
; #@! TF.FileFunction,MixedPlating,1,2
FMAT,2
METRIC
; #@! TA.AperFunction,Plated,PTH,ComponentDrill
T1C0.700
; #@! TA.AperFunction,Plated,PTH,ComponentDrill
T2C0.800
; #@! TA.AperFunction,Plated,PTH,ComponentDrill
T3C1.000
%
G90
G05
T1
X105.8Y-112.66
X105.8Y-117.74
T2
X103.35Y-127.4
X103.35Y-141.8
X104.6Y-132.17
X104.6Y-137.05
X105.8Y-120.0
X105.8Y-125.0
X105.85Y-127.4
X105.85Y-141.8
X105.86Y-145.66
X105.86Y-150.66
T3
X110.65Y-155.425
X111.875Y-112.96
X111.875Y-115.5
X111.875Y-118.04
X111.875Y-120.58
X111.875Y-123.12
X111.875Y-125.66
X111.875Y-128.2
X111.875Y-130.74
X111.875Y-133.28
X111.875Y-135.82
X111.875Y-138.36
X111.875Y-140.9
X111.875Y-143.44
X111.875Y-145.98
X113.19Y-155.425
X115.73Y-155.425
X118.27Y-155.425
X120.81Y-155.425
X123.35Y-155.425
X127.115Y-112.96
X127.115Y-115.5
X127.115Y-118.04
X127.115Y-120.58
X127.115Y-123.12
X127.115Y-125.66
X127.115Y-128.2
X127.115Y-130.74
X127.115Y-133.28
X127.115Y-135.82
X127.115Y-138.36
X127.115Y-140.9
X127.115Y-143.44
X127.115Y-145.98
T0
M30
