%TF.GenerationSoftware,KiCad,Pcbnew,(6.0.1)*%
%TF.CreationDate,2022-02-07T23:02:12+01:00*%
%TF.ProjectId,dip28,64697032-382e-46b6-9963-61645f706362,1.0*%
%TF.SameCoordinates,Original*%
%TF.FileFunction,Legend,Top*%
%TF.FilePolarity,Positive*%
%FSLAX46Y46*%
G04 Gerber Fmt 4.6, Leading zero omitted, Abs format (unit mm)*
G04 Created by KiCad (PCBNEW (6.0.1)) date 2022-02-07 23:02:12*
%MOMM*%
%LPD*%
G01*
G04 APERTURE LIST*
%ADD10C,0.100000*%
%ADD11C,0.150000*%
%ADD12C,0.120000*%
%ADD13C,1.600000*%
%ADD14R,1.700000X1.700000*%
%ADD15O,1.700000X1.700000*%
%ADD16C,1.500000*%
%ADD17C,1.400000*%
%ADD18O,1.400000X1.400000*%
%ADD19R,2.000000X1.440000*%
%ADD20O,2.000000X1.440000*%
G04 APERTURE END LIST*
D10*
X118845238Y-161214285D02*
X118797619Y-161357142D01*
X118797619Y-161595238D01*
X118845238Y-161690476D01*
X118892857Y-161738095D01*
X118988095Y-161785714D01*
X119083333Y-161785714D01*
X119178571Y-161738095D01*
X119226190Y-161690476D01*
X119273809Y-161595238D01*
X119321428Y-161404761D01*
X119369047Y-161309523D01*
X119416666Y-161261904D01*
X119511904Y-161214285D01*
X119607142Y-161214285D01*
X119702380Y-161261904D01*
X119750000Y-161309523D01*
X119797619Y-161404761D01*
X119797619Y-161642857D01*
X119750000Y-161785714D01*
X118892857Y-162785714D02*
X118845238Y-162738095D01*
X118797619Y-162595238D01*
X118797619Y-162500000D01*
X118845238Y-162357142D01*
X118940476Y-162261904D01*
X119035714Y-162214285D01*
X119226190Y-162166666D01*
X119369047Y-162166666D01*
X119559523Y-162214285D01*
X119654761Y-162261904D01*
X119750000Y-162357142D01*
X119797619Y-162500000D01*
X119797619Y-162595238D01*
X119750000Y-162738095D01*
X119702380Y-162785714D01*
X118797619Y-163214285D02*
X119797619Y-163214285D01*
X118797619Y-163785714D02*
X119369047Y-163357142D01*
X119797619Y-163785714D02*
X119226190Y-163214285D01*
X112197619Y-161166666D02*
X111197619Y-161500000D01*
X112197619Y-161833333D01*
X111292857Y-162738095D02*
X111245238Y-162690476D01*
X111197619Y-162547619D01*
X111197619Y-162452380D01*
X111245238Y-162309523D01*
X111340476Y-162214285D01*
X111435714Y-162166666D01*
X111626190Y-162119047D01*
X111769047Y-162119047D01*
X111959523Y-162166666D01*
X112054761Y-162214285D01*
X112150000Y-162309523D01*
X112197619Y-162452380D01*
X112197619Y-162547619D01*
X112150000Y-162690476D01*
X112102380Y-162738095D01*
X111292857Y-163738095D02*
X111245238Y-163690476D01*
X111197619Y-163547619D01*
X111197619Y-163452380D01*
X111245238Y-163309523D01*
X111340476Y-163214285D01*
X111435714Y-163166666D01*
X111626190Y-163119047D01*
X111769047Y-163119047D01*
X111959523Y-163166666D01*
X112054761Y-163214285D01*
X112150000Y-163309523D01*
X112197619Y-163452380D01*
X112197619Y-163547619D01*
X112150000Y-163690476D01*
X112102380Y-163738095D01*
X123847619Y-160928571D02*
X124847619Y-160928571D01*
X124133333Y-161261904D01*
X124847619Y-161595238D01*
X123847619Y-161595238D01*
X124847619Y-162261904D02*
X124847619Y-162452380D01*
X124800000Y-162547619D01*
X124704761Y-162642857D01*
X124514285Y-162690476D01*
X124180952Y-162690476D01*
X123990476Y-162642857D01*
X123895238Y-162547619D01*
X123847619Y-162452380D01*
X123847619Y-162261904D01*
X123895238Y-162166666D01*
X123990476Y-162071428D01*
X124180952Y-162023809D01*
X124514285Y-162023809D01*
X124704761Y-162071428D01*
X124800000Y-162166666D01*
X124847619Y-162261904D01*
X123895238Y-163071428D02*
X123847619Y-163214285D01*
X123847619Y-163452380D01*
X123895238Y-163547619D01*
X123942857Y-163595238D01*
X124038095Y-163642857D01*
X124133333Y-163642857D01*
X124228571Y-163595238D01*
X124276190Y-163547619D01*
X124323809Y-163452380D01*
X124371428Y-163261904D01*
X124419047Y-163166666D01*
X124466666Y-163119047D01*
X124561904Y-163071428D01*
X124657142Y-163071428D01*
X124752380Y-163119047D01*
X124800000Y-163166666D01*
X124847619Y-163261904D01*
X124847619Y-163500000D01*
X124800000Y-163642857D01*
X123847619Y-164071428D02*
X124847619Y-164071428D01*
X114700000Y-161738095D02*
X114747619Y-161642857D01*
X114747619Y-161500000D01*
X114700000Y-161357142D01*
X114604761Y-161261904D01*
X114509523Y-161214285D01*
X114319047Y-161166666D01*
X114176190Y-161166666D01*
X113985714Y-161214285D01*
X113890476Y-161261904D01*
X113795238Y-161357142D01*
X113747619Y-161500000D01*
X113747619Y-161595238D01*
X113795238Y-161738095D01*
X113842857Y-161785714D01*
X114176190Y-161785714D01*
X114176190Y-161595238D01*
X113747619Y-162214285D02*
X114747619Y-162214285D01*
X113747619Y-162785714D01*
X114747619Y-162785714D01*
X113747619Y-163261904D02*
X114747619Y-163261904D01*
X114747619Y-163500000D01*
X114700000Y-163642857D01*
X114604761Y-163738095D01*
X114509523Y-163785714D01*
X114319047Y-163833333D01*
X114176190Y-163833333D01*
X113985714Y-163785714D01*
X113890476Y-163738095D01*
X113795238Y-163642857D01*
X113747619Y-163500000D01*
X113747619Y-163261904D01*
X121347619Y-160928571D02*
X122347619Y-160928571D01*
X121633333Y-161261904D01*
X122347619Y-161595238D01*
X121347619Y-161595238D01*
X121347619Y-162071428D02*
X122347619Y-162071428D01*
X121395238Y-162500000D02*
X121347619Y-162642857D01*
X121347619Y-162880952D01*
X121395238Y-162976190D01*
X121442857Y-163023809D01*
X121538095Y-163071428D01*
X121633333Y-163071428D01*
X121728571Y-163023809D01*
X121776190Y-162976190D01*
X121823809Y-162880952D01*
X121871428Y-162690476D01*
X121919047Y-162595238D01*
X121966666Y-162547619D01*
X122061904Y-162500000D01*
X122157142Y-162500000D01*
X122252380Y-162547619D01*
X122300000Y-162595238D01*
X122347619Y-162690476D01*
X122347619Y-162928571D01*
X122300000Y-163071428D01*
X122347619Y-163690476D02*
X122347619Y-163880952D01*
X122300000Y-163976190D01*
X122204761Y-164071428D01*
X122014285Y-164119047D01*
X121680952Y-164119047D01*
X121490476Y-164071428D01*
X121395238Y-163976190D01*
X121347619Y-163880952D01*
X121347619Y-163690476D01*
X121395238Y-163595238D01*
X121490476Y-163500000D01*
X121680952Y-163452380D01*
X122014285Y-163452380D01*
X122204761Y-163500000D01*
X122300000Y-163595238D01*
X122347619Y-163690476D01*
X116297619Y-161952380D02*
X116773809Y-161619047D01*
X116297619Y-161380952D02*
X117297619Y-161380952D01*
X117297619Y-161761904D01*
X117250000Y-161857142D01*
X117202380Y-161904761D01*
X117107142Y-161952380D01*
X116964285Y-161952380D01*
X116869047Y-161904761D01*
X116821428Y-161857142D01*
X116773809Y-161761904D01*
X116773809Y-161380952D01*
X116345238Y-162333333D02*
X116297619Y-162476190D01*
X116297619Y-162714285D01*
X116345238Y-162809523D01*
X116392857Y-162857142D01*
X116488095Y-162904761D01*
X116583333Y-162904761D01*
X116678571Y-162857142D01*
X116726190Y-162809523D01*
X116773809Y-162714285D01*
X116821428Y-162523809D01*
X116869047Y-162428571D01*
X116916666Y-162380952D01*
X117011904Y-162333333D01*
X117107142Y-162333333D01*
X117202380Y-162380952D01*
X117250000Y-162428571D01*
X117297619Y-162523809D01*
X117297619Y-162761904D01*
X117250000Y-162904761D01*
X117297619Y-163190476D02*
X117297619Y-163761904D01*
X116297619Y-163476190D02*
X117297619Y-163476190D01*
D11*
%TO.C,C4*%
X104433333Y-144207142D02*
X104385714Y-144254761D01*
X104242857Y-144302380D01*
X104147619Y-144302380D01*
X104004761Y-144254761D01*
X103909523Y-144159523D01*
X103861904Y-144064285D01*
X103814285Y-143873809D01*
X103814285Y-143730952D01*
X103861904Y-143540476D01*
X103909523Y-143445238D01*
X104004761Y-143350000D01*
X104147619Y-143302380D01*
X104242857Y-143302380D01*
X104385714Y-143350000D01*
X104433333Y-143397619D01*
X105290476Y-143635714D02*
X105290476Y-144302380D01*
X105052380Y-143254761D02*
X104814285Y-143969047D01*
X105433333Y-143969047D01*
%TO.C,C3*%
X104433333Y-129807142D02*
X104385714Y-129854761D01*
X104242857Y-129902380D01*
X104147619Y-129902380D01*
X104004761Y-129854761D01*
X103909523Y-129759523D01*
X103861904Y-129664285D01*
X103814285Y-129473809D01*
X103814285Y-129330952D01*
X103861904Y-129140476D01*
X103909523Y-129045238D01*
X104004761Y-128950000D01*
X104147619Y-128902380D01*
X104242857Y-128902380D01*
X104385714Y-128950000D01*
X104433333Y-128997619D01*
X104766666Y-128902380D02*
X105385714Y-128902380D01*
X105052380Y-129283333D01*
X105195238Y-129283333D01*
X105290476Y-129330952D01*
X105338095Y-129378571D01*
X105385714Y-129473809D01*
X105385714Y-129711904D01*
X105338095Y-129807142D01*
X105290476Y-129854761D01*
X105195238Y-129902380D01*
X104909523Y-129902380D01*
X104814285Y-129854761D01*
X104766666Y-129807142D01*
%TO.C,C2*%
X128382142Y-130991666D02*
X128429761Y-131039285D01*
X128477380Y-131182142D01*
X128477380Y-131277380D01*
X128429761Y-131420238D01*
X128334523Y-131515476D01*
X128239285Y-131563095D01*
X128048809Y-131610714D01*
X127905952Y-131610714D01*
X127715476Y-131563095D01*
X127620238Y-131515476D01*
X127525000Y-131420238D01*
X127477380Y-131277380D01*
X127477380Y-131182142D01*
X127525000Y-131039285D01*
X127572619Y-130991666D01*
X127572619Y-130610714D02*
X127525000Y-130563095D01*
X127477380Y-130467857D01*
X127477380Y-130229761D01*
X127525000Y-130134523D01*
X127572619Y-130086904D01*
X127667857Y-130039285D01*
X127763095Y-130039285D01*
X127905952Y-130086904D01*
X128477380Y-130658333D01*
X128477380Y-130039285D01*
%TO.C,C1*%
X106182142Y-122666666D02*
X106229761Y-122714285D01*
X106277380Y-122857142D01*
X106277380Y-122952380D01*
X106229761Y-123095238D01*
X106134523Y-123190476D01*
X106039285Y-123238095D01*
X105848809Y-123285714D01*
X105705952Y-123285714D01*
X105515476Y-123238095D01*
X105420238Y-123190476D01*
X105325000Y-123095238D01*
X105277380Y-122952380D01*
X105277380Y-122857142D01*
X105325000Y-122714285D01*
X105372619Y-122666666D01*
X106277380Y-121714285D02*
X106277380Y-122285714D01*
X106277380Y-122000000D02*
X105277380Y-122000000D01*
X105420238Y-122095238D01*
X105515476Y-122190476D01*
X105563095Y-122285714D01*
%TO.C,J1*%
X116741666Y-157647380D02*
X116741666Y-158361666D01*
X116694047Y-158504523D01*
X116598809Y-158599761D01*
X116455952Y-158647380D01*
X116360714Y-158647380D01*
X117741666Y-158647380D02*
X117170238Y-158647380D01*
X117455952Y-158647380D02*
X117455952Y-157647380D01*
X117360714Y-157790238D01*
X117265476Y-157885476D01*
X117170238Y-157933095D01*
%TO.C,Y1*%
X104601190Y-135051190D02*
X105077380Y-135051190D01*
X104077380Y-135384523D02*
X104601190Y-135051190D01*
X104077380Y-134717857D01*
X105077380Y-133860714D02*
X105077380Y-134432142D01*
X105077380Y-134146428D02*
X104077380Y-134146428D01*
X104220238Y-134241666D01*
X104315476Y-134336904D01*
X104363095Y-134432142D01*
%TO.C,R1*%
X106302380Y-115316666D02*
X105826190Y-115650000D01*
X106302380Y-115888095D02*
X105302380Y-115888095D01*
X105302380Y-115507142D01*
X105350000Y-115411904D01*
X105397619Y-115364285D01*
X105492857Y-115316666D01*
X105635714Y-115316666D01*
X105730952Y-115364285D01*
X105778571Y-115411904D01*
X105826190Y-115507142D01*
X105826190Y-115888095D01*
X106302380Y-114364285D02*
X106302380Y-114935714D01*
X106302380Y-114650000D02*
X105302380Y-114650000D01*
X105445238Y-114745238D01*
X105540476Y-114840476D01*
X105588095Y-114935714D01*
%TO.C,U1*%
X116213095Y-127102380D02*
X116213095Y-127911904D01*
X116260714Y-128007142D01*
X116308333Y-128054761D01*
X116403571Y-128102380D01*
X116594047Y-128102380D01*
X116689285Y-128054761D01*
X116736904Y-128007142D01*
X116784523Y-127911904D01*
X116784523Y-127102380D01*
X117784523Y-128102380D02*
X117213095Y-128102380D01*
X117498809Y-128102380D02*
X117498809Y-127102380D01*
X117403571Y-127245238D01*
X117308333Y-127340476D01*
X117213095Y-127388095D01*
D12*
%TO.C,C4*%
X105229000Y-142720000D02*
X103971000Y-142720000D01*
X105229000Y-140880000D02*
X103971000Y-140880000D01*
%TO.C,C3*%
X105229000Y-128320000D02*
X103971000Y-128320000D01*
X105229000Y-126480000D02*
X103971000Y-126480000D01*
%TO.C,C2*%
X129055000Y-128180000D02*
X129370000Y-128180000D01*
X126630000Y-133420000D02*
X126945000Y-133420000D01*
X126630000Y-133420000D02*
X126630000Y-128180000D01*
X129370000Y-133420000D02*
X129370000Y-128180000D01*
X126630000Y-128180000D02*
X126945000Y-128180000D01*
X129055000Y-133420000D02*
X129370000Y-133420000D01*
%TO.C,C1*%
X107170000Y-125120000D02*
X106855000Y-125120000D01*
X107170000Y-119880000D02*
X106855000Y-119880000D01*
X104430000Y-119880000D02*
X104430000Y-125120000D01*
X104745000Y-119880000D02*
X104430000Y-119880000D01*
X104745000Y-125120000D02*
X104430000Y-125120000D01*
X107170000Y-119880000D02*
X107170000Y-125120000D01*
%TO.C,J1*%
X109320000Y-159525000D02*
X124680000Y-159525000D01*
X122080000Y-156865000D02*
X122080000Y-159525000D01*
X112810000Y-165525000D02*
X112810000Y-159525000D01*
X114460000Y-156865000D02*
X114460000Y-159525000D01*
X120430000Y-165525000D02*
X120430000Y-159525000D01*
X113570000Y-159525000D02*
X113570000Y-165525000D01*
X123730000Y-156535000D02*
X123730000Y-156865000D01*
X117890000Y-165525000D02*
X117890000Y-159525000D01*
X111030000Y-156467929D02*
X111030000Y-156865000D01*
X115350000Y-156467929D02*
X115350000Y-156865000D01*
X111030000Y-165525000D02*
X110270000Y-165525000D01*
X121190000Y-159525000D02*
X121190000Y-165525000D01*
X123350000Y-154155000D02*
X124620000Y-154155000D01*
X123730000Y-165525000D02*
X122970000Y-165525000D01*
X124680000Y-159525000D02*
X124680000Y-156865000D01*
X113570000Y-156467929D02*
X113570000Y-156865000D01*
X119540000Y-156865000D02*
X119540000Y-159525000D01*
X113570000Y-165525000D02*
X112810000Y-165525000D01*
X115350000Y-165525000D02*
X115350000Y-159525000D01*
X121190000Y-165525000D02*
X120430000Y-165525000D01*
X110270000Y-165525000D02*
X110270000Y-159525000D01*
X116110000Y-159525000D02*
X116110000Y-165525000D01*
X120430000Y-156467929D02*
X120430000Y-156865000D01*
X123670000Y-159525000D02*
X123670000Y-165525000D01*
X122970000Y-165525000D02*
X122970000Y-159525000D01*
X118650000Y-165525000D02*
X117890000Y-165525000D01*
X123310000Y-159525000D02*
X123310000Y-165525000D01*
X121190000Y-156467929D02*
X121190000Y-156865000D01*
X122970000Y-156535000D02*
X122970000Y-156865000D01*
X123550000Y-159525000D02*
X123550000Y-165525000D01*
X123430000Y-159525000D02*
X123430000Y-165525000D01*
X123190000Y-159525000D02*
X123190000Y-165525000D01*
X123730000Y-159525000D02*
X123730000Y-165525000D01*
X124620000Y-154155000D02*
X124620000Y-155425000D01*
X110270000Y-156467929D02*
X110270000Y-156865000D01*
X117000000Y-156865000D02*
X117000000Y-159525000D01*
X116110000Y-156467929D02*
X116110000Y-156865000D01*
X123070000Y-159525000D02*
X123070000Y-165525000D01*
X124680000Y-156865000D02*
X109320000Y-156865000D01*
X117890000Y-156467929D02*
X117890000Y-156865000D01*
X118650000Y-159525000D02*
X118650000Y-165525000D01*
X112810000Y-156467929D02*
X112810000Y-156865000D01*
X111030000Y-159525000D02*
X111030000Y-165525000D01*
X109320000Y-156865000D02*
X109320000Y-159525000D01*
X111920000Y-156865000D02*
X111920000Y-159525000D01*
X118650000Y-156467929D02*
X118650000Y-156865000D01*
X116110000Y-165525000D02*
X115350000Y-165525000D01*
%TO.C,Y1*%
X102075000Y-137810000D02*
X102075000Y-131410000D01*
X107125000Y-137810000D02*
X107125000Y-131410000D01*
X107125000Y-131410000D02*
G75*
G03*
X102075000Y-131410000I-2525000J0D01*
G01*
X102075000Y-137810000D02*
G75*
G03*
X107125000Y-137810000I2525000J0D01*
G01*
%TO.C,R1*%
X104880000Y-113280000D02*
X104880000Y-117120000D01*
X106720000Y-113280000D02*
X106720000Y-117120000D01*
%TO.C,U1*%
X125955000Y-153000000D02*
X125955000Y-102300000D01*
X110225000Y-102300000D02*
X110225000Y-104560000D01*
X107955000Y-153000000D02*
X125955000Y-153000000D01*
X107955000Y-102300000D02*
X107955000Y-104160000D01*
X125955000Y-102300000D02*
X107955000Y-102300000D01*
X107955000Y-109060000D02*
X107955000Y-153000000D01*
X106925000Y-114230000D02*
X106925000Y-111690000D01*
X111225000Y-106610000D02*
G75*
G03*
X111225000Y-106610000I-2550000J0D01*
G01*
X109575000Y-106610000D02*
G75*
G03*
X109575000Y-106610000I-900000J0D01*
G01*
%TD*%
%LPC*%
D13*
%TO.C,C4*%
X105850000Y-141800000D03*
X103350000Y-141800000D03*
%TD*%
%TO.C,C3*%
X105850000Y-127400000D03*
X103350000Y-127400000D03*
%TD*%
%TO.C,C2*%
X128000000Y-133300000D03*
X128000000Y-128300000D03*
%TD*%
%TO.C,C1*%
X105800000Y-120000000D03*
X105800000Y-125000000D03*
%TD*%
D14*
%TO.C,J1*%
X123350000Y-155425000D03*
D15*
X120810000Y-155425000D03*
X118270000Y-155425000D03*
X115730000Y-155425000D03*
X113190000Y-155425000D03*
X110650000Y-155425000D03*
%TD*%
D16*
%TO.C,Y1*%
X104600000Y-137050000D03*
X104600000Y-132170000D03*
%TD*%
D17*
%TO.C,R1*%
X105800000Y-112660000D03*
D18*
X105800000Y-117740000D03*
%TD*%
D19*
%TO.C,U1*%
X111875000Y-112960000D03*
D20*
X111875000Y-115500000D03*
X111875000Y-118040000D03*
X111875000Y-120580000D03*
X111875000Y-123120000D03*
X111875000Y-125660000D03*
X111875000Y-128200000D03*
X111875000Y-130740000D03*
X111875000Y-133280000D03*
X111875000Y-135820000D03*
X111875000Y-138360000D03*
X111875000Y-140900000D03*
X111875000Y-143440000D03*
X111875000Y-145980000D03*
X122035000Y-145980000D03*
X122035000Y-143440000D03*
X122035000Y-140900000D03*
X122035000Y-138360000D03*
X122035000Y-135820000D03*
X122035000Y-133280000D03*
X122035000Y-130740000D03*
X122035000Y-128200000D03*
X122035000Y-125660000D03*
X122035000Y-123120000D03*
X122035000Y-120580000D03*
X122035000Y-118040000D03*
X122035000Y-115500000D03*
X122035000Y-112960000D03*
%TD*%
M02*
