%TF.GenerationSoftware,KiCad,Pcbnew,(6.0.1)*%
%TF.CreationDate,2022-02-07T23:02:12+01:00*%
%TF.ProjectId,dip28,64697032-382e-46b6-9963-61645f706362,1.0*%
%TF.SameCoordinates,Original*%
%TF.FileFunction,Soldermask,Top*%
%TF.FilePolarity,Negative*%
%FSLAX46Y46*%
G04 Gerber Fmt 4.6, Leading zero omitted, Abs format (unit mm)*
G04 Created by KiCad (PCBNEW (6.0.1)) date 2022-02-07 23:02:12*
%MOMM*%
%LPD*%
G01*
G04 APERTURE LIST*
%ADD10C,1.600000*%
%ADD11R,1.700000X1.700000*%
%ADD12O,1.700000X1.700000*%
%ADD13C,1.500000*%
%ADD14C,1.400000*%
%ADD15O,1.400000X1.400000*%
%ADD16R,2.000000X1.440000*%
%ADD17O,2.000000X1.440000*%
G04 APERTURE END LIST*
D10*
%TO.C,C4*%
X105850000Y-141800000D03*
X103350000Y-141800000D03*
%TD*%
%TO.C,C3*%
X105850000Y-127400000D03*
X103350000Y-127400000D03*
%TD*%
%TO.C,C2*%
X128000000Y-133300000D03*
X128000000Y-128300000D03*
%TD*%
%TO.C,C1*%
X105800000Y-120000000D03*
X105800000Y-125000000D03*
%TD*%
D11*
%TO.C,J1*%
X123350000Y-155425000D03*
D12*
X120810000Y-155425000D03*
X118270000Y-155425000D03*
X115730000Y-155425000D03*
X113190000Y-155425000D03*
X110650000Y-155425000D03*
%TD*%
D13*
%TO.C,Y1*%
X104600000Y-137050000D03*
X104600000Y-132170000D03*
%TD*%
D14*
%TO.C,R1*%
X105800000Y-112660000D03*
D15*
X105800000Y-117740000D03*
%TD*%
D16*
%TO.C,U1*%
X111875000Y-112960000D03*
D17*
X111875000Y-115500000D03*
X111875000Y-118040000D03*
X111875000Y-120580000D03*
X111875000Y-123120000D03*
X111875000Y-125660000D03*
X111875000Y-128200000D03*
X111875000Y-130740000D03*
X111875000Y-133280000D03*
X111875000Y-135820000D03*
X111875000Y-138360000D03*
X111875000Y-140900000D03*
X111875000Y-143440000D03*
X111875000Y-145980000D03*
X122035000Y-145980000D03*
X122035000Y-143440000D03*
X122035000Y-140900000D03*
X122035000Y-138360000D03*
X122035000Y-135820000D03*
X122035000Y-133280000D03*
X122035000Y-130740000D03*
X122035000Y-128200000D03*
X122035000Y-125660000D03*
X122035000Y-123120000D03*
X122035000Y-120580000D03*
X122035000Y-118040000D03*
X122035000Y-115500000D03*
X122035000Y-112960000D03*
%TD*%
M02*
